<?xml version="1.0" encoding="utf-8"?>
<!-- Generator: Adobe Illustrator 19.2.1, SVG Export Plug-In . SVG Version: 6.00 Build 0)  -->
<svg version="1.1" id="レイヤー_1" xmlns="http://www.w3.org/2000/svg" xmlns:xlink="http://www.w3.org/1999/xlink" x="0px"
	 y="0px" viewBox="0 0 28 44" enable-background="new 0 0 28 44" xml:space="preserve">
<g>
	<path fill="none" stroke="#435B5B" stroke-width="1.5" stroke-linecap="round" stroke-linejoin="round" stroke-miterlimit="10" d="
		M24.165,25.372c-2.661-1.698-6.872,2.425-9.996,2.425s-7.335-4.123-9.996-2.425c-2.661,1.698-2.79,6.254-0.287,10.177
		c2.503,3.923,6.488,5.127,9.35,2.014c0.288-0.313,1.606-0.335,1.868,0c2.432,3.113,6.847,1.909,9.35-2.014
		C26.955,31.626,26.827,27.07,24.165,25.372z"/>
	<path fill="none" stroke="#435B5B" stroke-width="1.5" stroke-linecap="round" stroke-linejoin="round" stroke-miterlimit="10" d="
		M16.468,22.645H11.87c-0.645,0-1.168-0.523-1.168-1.168v-1.553c0-0.645,0.523-1.168,1.168-1.168h4.598
		c0.645,0,1.168,0.523,1.168,1.168v1.553C17.636,22.122,17.113,22.645,16.468,22.645z"/>
	<path fill="none" stroke="#435B5B" stroke-width="1.5" stroke-linecap="round" stroke-linejoin="round" stroke-miterlimit="10" d="
		M16.468,15.251H11.87c-0.645,0-1.168-0.523-1.168-1.168v-1.553c0-0.645,0.523-1.168,1.168-1.168h4.598
		c0.645,0,1.168,0.523,1.168,1.168v1.553C17.636,14.727,17.113,15.251,16.468,15.251z"/>
	<path fill="none" stroke="#435B5B" stroke-width="1.5" stroke-linecap="round" stroke-linejoin="round" stroke-miterlimit="10" d="
		M16.468,7.856H11.87c-0.645,0-1.168-0.523-1.168-1.168V5.134c0-0.645,0.523-1.168,1.168-1.168h4.598
		c0.645,0,1.168,0.523,1.168,1.168v1.553C17.636,7.333,17.113,7.856,16.468,7.856z"/>
	
		<ellipse transform="matrix(0.8996 -0.4366 0.4366 0.8996 -13.4279 7.4156)" fill="none" stroke="#435B5B" stroke-width="1.5" stroke-linecap="round" stroke-linejoin="round" stroke-miterlimit="10" cx="9.417" cy="32.917" rx="2.417" ry="2.917"/>
	
		<ellipse transform="matrix(0.4366 -0.8996 0.8996 0.4366 -18.9134 35.6299)" fill="none" stroke="#435B5B" stroke-width="1.5" stroke-linecap="round" stroke-linejoin="round" stroke-miterlimit="10" cx="18.993" cy="32.917" rx="2.917" ry="2.417"/>
</g>
</svg>
