<svg xmlns="http://www.w3.org/2000/svg" viewBox="0 0 132.09 140.09"><defs><style>.cls-1{fill:#fff;}.cls-1,.cls-2{stroke:#4d4d4d;stroke-miterlimit:10;}.cls-2{fill:none;}</style></defs><g id="レイヤー_2" data-name="レイヤー 2"><g id="アイコン"><g id="TOP-1"><path id="表面_" data-name="表面１" class="cls-1" d="M109.5,130.57c-24.56,7.71-58.82,13.67-96,4-4.52-1.17-8.86-2.52-13-4V.57c2.65.36,5.31.69,8,1a412,412,0,0,0,101-1Z"/><g id="文章"><path class="cls-1" d="M98.5,53.57a240.42,240.42,0,0,1-64,5c-7-.4-13.69-1.09-20-2"/><path class="cls-1" d="M98.42,76.29a240,240,0,0,1-64,5c-7-.4-13.69-1.09-20-2"/><path class="cls-1" d="M98.42,29.29a240,240,0,0,1-64,5c-7-.4-13.69-1.09-20-2"/></g></g><path id="SEC-1" class="cls-2" d="M111.09,4.53l.63-.12,9.56,112.89c-2.64.94-5.39,1.87-8.26,2.77"/><path id="THR-1" class="cls-2" d="M114.89,13.45l1.94-.5,14.71,95.93c-2.85,1.27-5.88,2.54-9.1,3.76"/></g></g></svg>