<svg xmlns="http://www.w3.org/2000/svg" viewBox="0 0 209.93 165.32"><defs><style>.cls-1{font-size:12px;stroke:#000;stroke-width:0.1px;font-family:SpecialElite-Regular, Special Elite;letter-spacing:0.25em;}.cls-1,.cls-2,.cls-5{fill:#fff;}.cls-1,.cls-2{stroke-miterlimit:10;}.cls-2{font-size:28.17px;stroke:#053f3f;stroke-width:0.5px;font-family:PottaOne-Regular, Potta One;}.cls-3{fill:#231815;}.cls-4{fill:#dbdcdc;}</style></defs><g id="レイヤー_2" data-name="レイヤー 2"><g id="キャラクター"><text id="Special_Elite" data-name="Special Elite" class="cls-1" transform="translate(20.26 161.41)">Donguri-Seikotsuin</text><text id="Potta_One" data-name="Potta One" class="cls-2" transform="translate(0.25 140.76) scale(1.06 1)">どんぐり整骨院</text><g id="どんぐり君"><polygon class="cls-3" points="69.76 75.79 69.77 75.86 69.8 75.67 69.76 75.79"/><path class="cls-3" d="M69.94,75.36v-.12l-.1.54C69.87,76.09,69.91,75.16,69.94,75.36Z"/><path class="cls-3" d="M70,75.42c0,.12.06-.13.06-.22C70,75.4,70,75.14,70,75.42Z"/><path class="cls-3" d="M73.4,75v0S73.4,75,73.4,75Z"/><path class="cls-3" d="M74.09,74l0-.2c-.08.39-.33.07-.46.26V74c-.43,0-.76.38-1.17.6v-.1c0,.07,0,.2,0,.19a.24.24,0,0,1,0-.12c-.14-.32-.24.24-.33,0a.54.54,0,0,0,0,.28,3,3,0,0,0-1,.5.77.77,0,0,1,0-.25c-.28.55-.62.34-.93.26,0,.14,0,.15,0,.3s.19-.36.28-.1v.14c.07.08,0-.35.08-.17a.62.62,0,0,1,0,.18c.15-.06.3.06.42-.28,0,.3.15,0,.22.3,0-.12.07-.09.07-.29.51.11,1-.21,1.49-.26.14-.6.53,0,.77-.2V75c.07-.15.18-.24.3-.19l0-.25c.74.36,1.31-.12,2-.11s1.56.11,1.94-.84c0,0,0,.08,0,.11.15-.19.41-.06.54-.25l0,0c.25-.6,1-.34,1.14-1a4.51,4.51,0,0,0,1.51-.93l.06.1c.27-.44,1-.13,1.31-.55.57,0,.45-1.06,1-1.06.6.28.16-.9.75-.6,1,.35,1.13-.44,1.2-1.2.64-.1.44-1,1.29-.9-.12-.45.75,0,.86-.25l-.11-.09c.39.23-.3-.58.23-.17v0c.28.19-.49-.62-.18-.37l-.11-.12c0-.07.14.13.22.14s-.21-.21-.12-.17c.51.45,0-.2.57.31,0,0,.26.16.32.32s.12-.06-.12-.27a3.64,3.64,0,0,0-.69-.6l.18.17-.25-.19c-.08,0-.36-.2-.51-.27l0,0c.19.23,0,.15,0,.14l-.12-.09c-.22-.18.35.45,0,.1a.86.86,0,0,1-.3.45c.12.14-.11.08.18.31-.34-.26-.51-.24-.53-.2s-.06-.06,0,0c-.46-.32.27.42-.27,0,.32.34-.23,0,.12.42a2,2,0,0,1-.21-.19c-.13.1-.38.1-.5.18.19.37-.34,0,0,.52-.15,0-.42-.12-.35.12l0,0c-.08.1-.19.23,0,.55-.39-.37-.36-.26-.52-.35.1.24-.09.3,0,.55-.18-.18,0,.15-.26-.12.14.75-.4.87-1.06.68v0l.41.79s-.06-.07,0-.07-.29-.15-.32,0l-.06-.1c0,.17-.29-.15-.19.12l-.06-.07,0,.13c-.07-.09-.18-.24-.13-.22-.6.26-.8,1.12-1.44,1.37l0-.1v.23a.88.88,0,0,1,0-.1c-.25-.09-.22.28-.39.31a.82.82,0,0,0-.12-.2c.07.33-.38-.26-.09.34a2,2,0,0,1-.12-.21,1,1,0,0,1-.83.54c0,.67-.51.3-.55.85l-.06-.11c-.15.54-.73.29-1.06.51-.17,0-.21.18-.37.25l-.06-.13c0,.63-.73-.29-.78.39l0-.2c.07.31-.2-.05,0,.45l-.11-.13c0,.73-.44-.19-.53.3l0-.12c0,.11-.08.2-.17.1a.78.78,0,0,1,0-.09c-.34-.42-.39.17-.6.21l0-.24c0,.29-.27.1-.37.25l0-.11,0,.16,0-.21C74.36,73.71,74.25,73.93,74.09,74Z"/><path class="cls-3" d="M72.37,74.54h0Z"/><path class="cls-3" d="M86.84,65.85h0S86.85,65.85,86.84,65.85Z"/><ellipse class="cls-4" cx="108.9" cy="103.64" rx="41.96" ry="4.86"/><polygon class="cls-3" points="155.18 59.72 155.31 59.75 155.51 59.48 155.18 59.72"/><path class="cls-3" d="M156.87,58.69c-.1,0-.08-.07-.18-.07-.32.3-.57.58-.86.87C156.44,59.61,156.34,58.65,156.87,58.69Z"/><path class="cls-3" d="M157.4,58.56c.34-.09.71-.11.62-.33a2.38,2.38,0,0,0-.15-.44.67.67,0,0,1,0,.3s0,.14,0,.17l-.2.06C157.44,58.4,157.24,58.47,157.4,58.56Z"/><path class="cls-3" d="M131.08,35.25a.31.31,0,0,0,.13,0A.26.26,0,0,0,131.08,35.25Z"/><path class="cls-3" d="M121.38,33.37l-.15.17c1.87,0,3.76.94,5.66,1.31l-.15,0a122.57,122.57,0,0,1,13.4,4.78c-.08,0-.13,0-.21,0a2.48,2.48,0,0,1,.76.18c0,.07-.11,0-.19,0,.75.73,2.77,1.18,3.19,1.73.27.1.45,0,.37-.12a50.6,50.6,0,0,1,9.83,6.42c.09.16,0,.25-.08.29a11,11,0,0,1,3.31,3.91A9.9,9.9,0,0,1,158,54.6a11.57,11.57,0,0,1,.13,1.32,7.75,7.75,0,0,1-.08,1.51c.13.25.21-.49.31.08a3.8,3.8,0,0,0,0-1.89,5.06,5.06,0,0,1-.3-1.49l.18.09c-.12-.75-.39-.06-.44-.85,0-.32.2,0,.16-.12a9,9,0,0,0-2.61-3.92c0-.48-1.08-1.27-1.28-1.86-.38-.2-.65-.5-.91-.46a31.42,31.42,0,0,0-6.63-4.72c-2.35-1.37-4.82-2.58-7.29-3.77-2.6-.55-5.12-2.4-8.11-3.21,0,0,0-.05,0-.06a25.34,25.34,0,0,1-3.52-1c-.34,0-.69,0-1-.06-6.75-2.46-14.16-3.36-21.47-3.78-2.08-.12-4.1-.16-6.09-.13a32,32,0,0,0-6,.47,8.87,8.87,0,0,0-5.36,3.12,12.19,12.19,0,0,0-2.23,5.44s-.1,0-.07-.17c-.49,2.18-1.11,4.08-1.4,6.15l-.06,0c-.5,5.12-1.66,10.63-1,15.6a45.23,45.23,0,0,0,4,18.68l-.12,0c2.24,4.58,4.58,9.22,8.92,12.47a18.65,18.65,0,0,0,7.49,3.82,45.75,45.75,0,0,0,8.39,1.26,14.26,14.26,0,0,0,5.67-.45c1.92-.46,3.72-1.1,5.34-1.34a23.87,23.87,0,0,0,9-3.94,39,39,0,0,0,7.08-6.55c4.51-4,7.41-9.14,10.79-13.73.94-2.51,3.13-4.78,4.13-7.62l-.18,0c.84-.84.24-2.42,1.1-2.85v.12c.51-.44-.37-1.48.13-1.69l-.13-.13c.14-.66.21,0,.42-.51,0-.2-.28-.15-.06-.52.71.09.31-1.64,1.07-1.51-.1.36.44-.5.39.35.14-.21.39-1.34,0-1.31-.32-.17-.51-.67-1-.05l.22.19c-.31.17-.17.14-.38.18-.27.86-.65.9-1,1.48h0c.17.5-.18,1-.32,1.36l-.17.09c-.35.12.24,1.13-.17.73a35.54,35.54,0,0,1-2,5.61c.07.34-.66,1.43-.13,1.16a6.17,6.17,0,0,0-1.62,2.14.1.1,0,0,1,0-.15c-1,.74-.14,1.38-1.25,2,.36.37-1.07,1.55-.89,2.31-.15.06-.26,0-.31,0-1,1.57-2.29,3.19-3.26,4.43-.46,1.32-2.16,2.46-2.46,3.68a18.06,18.06,0,0,0-2.73,2.78l0-.14a26.78,26.78,0,0,0-3,3.37c-.72-.08-1.15.41-1.78.7a31.59,31.59,0,0,1-3.49,3c-.35-.07-1,.78-1.31.53a20.25,20.25,0,0,1-6.23,3.48,23.21,23.21,0,0,1-7.3,1.29l.07,0c-.58.26-1.23.78-1.85,1-.07,0-.06-.09.07-.09-.88.13-1.71-.21-2.57-.14,0-.06,0-.06.15-.11-.82.13-1.66-.34-2.63-.16l0-.1a4.48,4.48,0,0,1-.62.06c0-.11.08-.28.39-.2a27.25,27.25,0,0,1-10.48-3.35,24.12,24.12,0,0,1-7.94-7.69l.25.16c-.32-.36-.64-.72-1-1.1.06,0,.12,0,.18.07-.78-1.64-2-3.18-2.59-4.84.06,0,.28.18.24-.07C86.7,78,87.23,77,86.31,76.62a.15.15,0,0,1,.25,0,33,33,0,0,1-2.51-10.7c-1-3-.46-6.44-.77-9.63l.12,0c-.2-4.16.91-8.48,1.72-12.68.46-1.72.53-2.94,1.06-4.66h.16a7.49,7.49,0,0,1,2-4.17,13.24,13.24,0,0,1,3.94-2.71l-.15.25c.37-.48,1.93-.35,1.63-.83l.61.06c2.18-1,4.13,0,6.88-.52l-.18.13a7.57,7.57,0,0,1,2.15-.07c-.09,0,0,.06-.22.09,2.29.53,4.87.12,7.31.35l-.3.21a31,31,0,0,1,4.87.46l-.11.09.8,0,0,.22C117.56,32.78,119.46,33,121.38,33.37Z"/><path class="cls-3" d="M140.5,39.88h0C140.42,39.86,140.44,39.87,140.5,39.88Z"/><path class="cls-3" d="M154.1,57.49l.11-.2C154.16,57.29,154.13,57.43,154.1,57.49Z"/><polygon class="cls-3" points="135.67 16.58 135.75 16.68 136.09 16.6 135.67 16.58"/><path class="cls-3" d="M137.61,16.81s0-.09,0-.15l-1.25.14C136.67,17.25,137.38,16.51,137.61,16.81Z"/><path class="cls-3" d="M137.89,17a.64.64,0,0,0,.74.06C138.41,17.17,137.91,16.69,137.89,17Z"/><path class="cls-3" d="M159.24,44.25l0-.12A.13.13,0,0,0,159.24,44.25Z"/><path class="cls-3" d="M160.46,53.69l.21.11c-.26-1.8.18-3.81-.1-5.7l.08.13a37.06,37.06,0,0,0-3.27-13.55c.05.06.12.07.17.13a2.19,2.19,0,0,1-.45-.63c0-.07.12,0,.17.11,0-1.07-1.4-2.62-1.47-3.28-.17-.23-.36-.28-.38-.09a25.8,25.8,0,0,0-7.65-8.54c-.11-.15-.08-.24,0-.3-2.92-1.62-5.8-3.45-8.94-4.82-.18.08.26.26-.12.28.92.58,2,.46,2.76,1.14l-.18.06c.6.4.3-.24.88.25.2.23-.15.12,0,.19,1.36.67,2.65,1.54,4,2.11.11.42,1.29,1,1.53,1.53.38.15.64.43.9.38a31.26,31.26,0,0,1,8.66,13c1.41,2.17,1.45,5.24,2,8.09a0,0,0,0,1-.06,0,13.25,13.25,0,0,1,.49,3.46l.3.95A69.46,69.46,0,0,1,159,59c-.16.86-.34,1.71-.55,2.56a2.77,2.77,0,0,1-.36,1,1.53,1.53,0,0,1-.77.54,1.61,1.61,0,0,1-1,0,2.52,2.52,0,0,1-.89-.61c-.7-.6-1.37-1.23-2.09-1.82-6.44-5.33-12.94-9.35-21-11.71,0,0,0-.1.19,0-2.27-.77-4.26-1.67-6.45-2.24l0,0c-5.48-1.21-11.28-3-16.73-3.33a140.15,140.15,0,0,0-20.87-1.63l0-.12c-1.39,0-2.77,0-4.14,0s-2.93.2-3.65-.86a1.75,1.75,0,0,1-.29-1.6l.76-1.76c.54-1.18,1.1-2.34,1.67-3.53,2.76-4.58,5.63-9.77,10.24-13.14,1.52-.91,3-2.2,4.64-3.38a14.08,14.08,0,0,1,5-2.57c6.61-1.75,13-3.09,20-2.29.77.2,1.54.39,2.3.62a2.53,2.53,0,0,0,2.15,0,2.22,2.22,0,0,0,1.11-1.7L129,9.25c.41-1.43.82-2.85,1.29-4.25a16.33,16.33,0,0,1,.81-2.13,4.2,4.2,0,0,1,1.86-1.43,2.38,2.38,0,0,1,1.75-.5h0a3.33,3.33,0,0,1,1.79.62,3.06,3.06,0,0,1,1,1.51,9.79,9.79,0,0,1,.23,3.47l.18-.07c-.75,1,.08,2.51-.71,3.06V9.4c-.45.51.55,1.46.07,1.74l.15.13c-.11.7-.21,0-.39.56,0,.2.28.14.08.54-.68-.07-.34,1.72-1.12,1.52.13-.34-.49.46-.36-.37-.14.2-.53,1.24-.2,1.27.29.22.38.77.93.2l-.18-.23c.33-.13.19-.12.4-.14.39-.89.77-.91,1.12-1.55,0,0,0,0,0,0a2.44,2.44,0,0,1,.29-1.48l.17-.12c.34-.17-.36-1.16.09-.79.12-1,.26-2,.47-3l.17-.75.12-.42a2,2,0,0,0,0-.57,12.43,12.43,0,0,0-.14-1.7c-.19-.29-.48-1.78-.68-1.16a2,2,0,0,0-.44-1.57A3.12,3.12,0,0,0,136.14.43a.2.2,0,0,1,.21,0,1.82,1.82,0,0,0-1.64-.39l.17,0c-.72,0-1.12.18-2,.14,0,.26-.61.47-1.17.85s-1.13.94-1.11,1.44c-.19.09-.3.13-.35,0a15.07,15.07,0,0,0-.6,1.62c-.18.46-.35.93-.52,1.39-.34.92-.67,1.81-.93,2.58a7.44,7.44,0,0,1-.58,2.28,9.21,9.21,0,0,0-.35,1.14,3.56,3.56,0,0,0,0,.62,1.24,1.24,0,0,1-.94.24,1,1,0,0,1-.23-.06l-.54-.15a11.64,11.64,0,0,0-1.15-.22l.16,0a14.3,14.3,0,0,0-5-.45c-.44-.59-1.2-.5-1.93-.72a47.92,47.92,0,0,0-5.17.58c-.3-.24-1.39.29-1.54,0a78.33,78.33,0,0,0-14.85,5.61l0-.07A16.42,16.42,0,0,0,95,18.72c-.07,0-.1,0,0-.11-.7.57-1.6.84-2.26,1.46,0,0,0,0,0-.18-.55.65-1.55.95-2.09,1.83l-.11,0-.36.54c-.08-.09-.2-.23.08-.44a37.55,37.55,0,0,0-7.2,9.28,47.63,47.63,0,0,0-2.57,5.28c-.2.45-.37.9-.54,1.36a7.72,7.72,0,0,0-.5,1.5,2.73,2.73,0,0,0,1.92,2.9,2.85,2.85,0,0,1-.41,0,3.82,3.82,0,0,0,1.87.1c0,.06-.08.09-.16.11,2,.22,4.07-.08,6,0,0,.06-.31.16,0,.23,1.45-.28,2.29.5,3-.13a.13.13,0,0,1,0,.23,81.75,81.75,0,0,1,12.1.83c3.42-.22,7,.86,10.56,1.06l0,.12c4.53.44,9.07,2.05,13.5,3.45,1.82.67,3.1,1,4.91,1.69l0,.15c3.3.7,6,3.17,9.31,4.25l-.31.07c.63,0,1.73,1.08,1.85.53l.42.44c2.4.57,3.37,2.45,5.94,3.69h-.23a7.36,7.36,0,0,1,1.79,1.23c-.09,0-.08,0-.24-.06a16.22,16.22,0,0,0,2.72,2.4c.51.37,1,.74,1.54,1.11a2.67,2.67,0,0,0,1.93.23,2.15,2.15,0,0,1-.25.29A2.94,2.94,0,0,0,159,62.54a14.91,14.91,0,0,0,.58-2.48l.1.12,0-.79.24,0A37.46,37.46,0,0,0,160.46,53.69Z"/><path class="cls-3" d="M157.27,34.29v0S157.3,34.33,157.27,34.29Z"/><path class="cls-3" d="M137.74,12.83l-.11.24C137.68,13.06,137.71,12.91,137.74,12.83Z"/><path class="cls-5" d="M119.12,73.83A9.57,9.57,0,0,0,129.28,72a7.31,7.31,0,0,0,.71-8.88,10,10,0,0,0-4.46-3.92,9.57,9.57,0,0,0-6.25-.56A9.19,9.19,0,0,0,115.37,61c-1.77,1.71-1.91,5-1.4,7.34a6.44,6.44,0,0,0,2.49,4.27,6.88,6.88,0,0,0,4,1.48"/><polygon class="cls-3" points="120.53 72.85 120.52 72.78 120.44 72.96 120.53 72.85"/><path class="cls-3" d="M120.08,73.22v.13l.31-.51C120.32,72.53,120.12,73.44,120.08,73.22Z"/><path class="cls-3" d="M120,73.16c-.08-.14-.15.11-.19.19C119.89,73.16,120,73.43,120,73.16Z"/><path class="cls-3" d="M114.73,68.17l0,0S114.75,68.17,114.73,68.17Z"/><path class="cls-3" d="M113.57,66.11l-.21,0c.38.41,0,.9.25,1.34l-.07,0a6.28,6.28,0,0,0,1.3,3,.49.49,0,0,1-.12,0c.09,0,.24,0,.25.07a.13.13,0,0,1-.12,0c-.2.38.55.47.41.72.07,0,.21,0,.28-.12a4.64,4.64,0,0,0,2.19,1.37c0,.06,0,.14-.11.24a4.54,4.54,0,0,1,2.16.47c.06-.13,0-.16,0-.29-.18-.21-.49.26-.63,0l.07-.13c-.12-.12-.13.33-.23.12s.07-.16,0-.18c-.32,0-.55-.25-1-.07.09-.3-.29-.16-.22-.46-.13.06-.18,0-.32.14-.78-.72-1.89-1.37-2.29-2.38-.8-.29-.28-1.15-.62-1.75h.06a.9.9,0,0,1-.28-.74l-.29-.19c.35-1.57.09-3.21.9-4.54A5.26,5.26,0,0,1,116.75,61a16,16,0,0,0,1.93-1.67c0,.05,0,.08,0,.12.44-.3,1-.23,1.39-.43v0c1.15-.69,2.5-.08,3.76-.28a13.18,13.18,0,0,1,4.24,2.08L128,61c1.13.69,1.35,2,2,2.95a8.23,8.23,0,0,0,.79,1.72,2.41,2.41,0,0,1,.29,1.88c-.31.38-.2.81-.13,1.29s.07,1-.36,1.2c-1.46,1-1.8,2.21-3,3.52-1.39.44-2.72,1.61-4.29,1.07-.7.45-1.44-.49-2.14-.49v.14c-.16-.46-.72.48-.73-.18l0,0c0-.35-.54.64-.52.25l-.07.14c-.19,0,0-.18-.07-.27s-.12.27-.19.15c.22-.63-.46,0-.18-.71.08,0,0-.31.23-.39,0-.09-.27-.14-.39.15s-.4.52-.35.82l.14-.21a2.21,2.21,0,0,1-.06.3c.21.12.1.45.22.66a0,0,0,0,1,0,0c.22-.22.32,0,.41,0v.14c0,.29.45-.45.23,0,.54,0,1.12.14,1.69.19.1-.16.44.06.34-.31a.74.74,0,0,0,.7.53s0,.08,0,.06c.33.52.36-.49.68.15,0-.46.56.1.66-.45a.6.6,0,0,1,.07.27c.53,0,1.14,0,1.6-.09.25-.48,1-.09,1.07-.73.3,0,.82,0,1.06-.32v.07c.36-.23.82-.53.84-1,.43.36.52.17.78.17.08-.36.57-.7.69-1.17.24.11.15-.33.46-.13a9.52,9.52,0,0,1,1.78-3.59l0,0a5.63,5.63,0,0,0-.83-.63s.09,0,.08,0c0-.21.36-.39.29-.62a.21.21,0,0,1,.12,0c-.17-.21.32-.43,0-.68l.1,0-.14-.15c.12,0,.3,0,.27.08,0-2-1.36-3.74-2.49-5.23h.13l-.4-.17a.21.21,0,0,1,.11,0c-.15-.5-.77-.64-1.08-1,0,0,.18-.07.18-.16-.49,0-.16-.68-.74-.29a.32.32,0,0,1,.16-.17c-.93-.43-1.78-.93-2.68-1.4-1,.25-1.71-.49-2.65-.14l0-.11c-1.11.27-2.24-.14-3.35.21a4.2,4.2,0,0,0-1.15.49l-.07-.14c-.43.79-1.77.33-2,1.34l-.09-.19c.11.31-.46.22,0,.59l-.22,0c.13.85-1,.43-1,1.26l-.09-.1c0,.2,0,.4-.2.46,0,0-.05,0-.06-.09-.75.27-.43,1.08-.57,1.59l-.23-.11c.22.32-.15.76-.06,1.14l-.11,0,.14.2-.24,0A6.26,6.26,0,0,0,113.57,66.11Z"/><path class="cls-3" d="M114.85,70.54h0S114.83,70.54,114.85,70.54Z"/><path class="cls-3" d="M119.33,75l0-.06S119.31,75,119.33,75Z"/><ellipse class="cls-3" cx="118.36" cy="64.32" rx="3.24" ry="3.05"/><path class="cls-5" d="M97.65,69.91a9.57,9.57,0,0,0,10.16-1.83,7.31,7.31,0,0,0,.71-8.88,9.86,9.86,0,0,0-4.46-3.92,9.51,9.51,0,0,0-6.25-.56,9.25,9.25,0,0,0-3.91,2.33c-1.77,1.71-1.91,5-1.4,7.34A6.49,6.49,0,0,0,95,68.66a6.82,6.82,0,0,0,3.94,1.48"/><polygon class="cls-3" points="99.07 68.93 99.05 68.86 98.97 69.04 99.07 68.93"/><path class="cls-3" d="M98.61,69.3v.13l.31-.51C98.86,68.61,98.66,69.51,98.61,69.3Z"/><path class="cls-3" d="M98.55,69.24c-.07-.14-.15.11-.19.19C98.43,69.24,98.53,69.51,98.55,69.24Z"/><path class="cls-3" d="M93.26,64.25l0,0A0,0,0,0,0,93.26,64.25Z"/><path class="cls-3" d="M92.11,62.19l-.22,0c.39.41,0,.9.26,1.34l-.08,0a6.28,6.28,0,0,0,1.3,3,.37.37,0,0,1-.11,0c.09,0,.24,0,.25.07a.16.16,0,0,1-.13,0c-.2.38.55.47.41.72.08,0,.21,0,.28-.12a4.69,4.69,0,0,0,2.19,1.37c0,.06,0,.14-.11.24a4.58,4.58,0,0,1,2.17.47c.05-.13,0-.16.05-.29-.18-.21-.5.26-.63,0l.06-.13c-.11-.12-.13.33-.23.12s.07-.16.05-.18c-.32,0-.55-.25-1-.07.08-.3-.29-.16-.23-.46-.13.06-.18,0-.32.14-.77-.72-1.88-1.37-2.29-2.38-.8-.29-.28-1.15-.62-1.75h.06a.9.9,0,0,1-.28-.74l-.29-.19c.35-1.57.09-3.21.9-4.54a5.19,5.19,0,0,1,1.7-1.66,15.9,15.9,0,0,0,1.92-1.67s.05.08,0,.11c.43-.29.94-.22,1.38-.42v0c1.15-.69,2.5-.08,3.77-.28A13.28,13.28,0,0,1,106.63,57l-.09.08c1.13.69,1.36,2,2,3a9.41,9.41,0,0,0,.79,1.72,2.41,2.41,0,0,1,.29,1.88c-.31.38-.19.81-.12,1.28s.06,1-.37,1.21c-1.46,1-1.79,2.21-3,3.52-1.39.44-2.72,1.6-4.29,1.07-.7.45-1.43-.49-2.13-.49v.14c-.16-.46-.73.48-.73-.18l0,0c0-.35-.54.64-.51.25l-.08.14c-.18,0,0-.18-.07-.27s-.12.27-.19.15c.22-.63-.46,0-.18-.71.09,0,0-.31.24-.39,0-.09-.28-.14-.4.15s-.4.51-.34.82l.13-.21c0,.24,0,.13-.06.3.21.12.1.45.23.66v0c.23-.22.33,0,.41,0v.14c0,.29.45-.45.22,0,.54,0,1.12.14,1.7.19.09-.16.43,0,.34-.31a.73.73,0,0,0,.7.53s0,.08,0,.06c.32.52.36-.49.67.15,0-.46.56.1.67-.45a.77.77,0,0,1,.07.27c.52,0,1.14,0,1.59-.09.25-.48,1-.09,1.08-.73.29,0,.81,0,1-.32v.07c.37-.23.83-.53.84-1,.44.36.53.17.79.17.07-.36.57-.7.69-1.17.24.11.14-.33.45-.13a9.67,9.67,0,0,1,1.78-3.59l0,0a5.63,5.63,0,0,0-.83-.63s.09,0,.09,0c0-.22.35-.39.28-.62a.21.21,0,0,1,.12,0c-.16-.21.33-.44,0-.68l.1,0-.15-.15c.12,0,.31,0,.27.08,0-2-1.35-3.74-2.49-5.23h.14l-.41-.17a.24.24,0,0,1,.12,0c-.16-.5-.77-.64-1.08-1,0,0,.18-.07.17-.16-.48,0-.15-.68-.74-.29a.42.42,0,0,1,.16-.17c-.93-.43-1.78-.93-2.67-1.41-1,.26-1.72-.49-2.65-.13l0-.11c-1.1.27-2.23-.14-3.35.21a4.25,4.25,0,0,0-1.14.48l-.08-.13c-.42.79-1.77.33-2,1.34L94.63,56c.11.31-.46.22,0,.59l-.22,0c.14.85-1,.43-1,1.26l-.08-.1c0,.2,0,.4-.21.45,0,0,0,0-.06-.08-.75.27-.43,1.08-.57,1.59l-.23-.11c.22.32-.15.76,0,1.14l-.12,0,.15.2-.24,0A5.7,5.7,0,0,0,92.11,62.19Z"/><path class="cls-3" d="M93.38,66.62h0S93.37,66.62,93.38,66.62Z"/><path class="cls-3" d="M97.86,71.1l0-.06S97.84,71.09,97.86,71.1Z"/><ellipse class="cls-3" cx="97.17" cy="60.61" rx="3.24" ry="3.05"/><polygon class="cls-3" points="103.21 104.99 103.21 105.06 103.25 104.87 103.21 104.99"/><path class="cls-3" d="M103.37,104.58v-.13l-.13.53C103.25,105.29,103.38,104.37,103.37,104.58Z"/><path class="cls-3" d="M103.38,104.63c0,.13.05-.12.07-.2C103.42,104.62,103.41,104.36,103.38,104.63Z"/><path class="cls-3" d="M105.57,104.68v0S105.57,104.7,105.57,104.68Z"/><path class="cls-3" d="M106.21,103.87l0-.21c-.13.36-.22,0-.34.13v-.07c-.27-.1-.56.21-.86.35l0-.11c0,.07,0,.2-.06.18s0-.09,0-.11c0-.34-.19.2-.2-.06a.76.76,0,0,0,0,.27,1.57,1.57,0,0,0-.72.36,1.34,1.34,0,0,1,0-.25c-.25.52-.43.29-.62.19a1.6,1.6,0,0,1,0,.3c0,.18.16-.34.18-.08l0,.14c0,.09,0-.35.07-.17a.47.47,0,0,1,0,.19c.1,0,.18.08.3-.25,0,.3.09,0,.09.31a.91.91,0,0,0,.09-.28c.29.18.64-.08,1,0,.2-.56.31.14.51,0v.06c.07-.14.16-.2.22-.12l.08-.24c.37.53.82.21,1.22.46a6.17,6.17,0,0,0,.67.29.85.85,0,0,0,.89-.41c0,.06,0,.09,0,.11.14-.12.4,0,.5-.14l0,.05c.1-.51.75-.55.35-1.16a2,2,0,0,0,0-1.17h.12c-.23-.31.44-.54.27-.85.31-.28-.65-.66-.26-.93.6-.17-.67-.46,0-.61,1-.34.35-.72-.21-1.07.33-.33-.53-.65.14-1-.44-.14.53-.34.4-.51l-.15,0c.45-.08-.65-.11,0-.18h0c.34-.05-.82,0-.41-.08h-.17s.19,0,.26,0-.31,0-.21,0c.69,0-.16-.09.62-.13a2.9,2.9,0,0,1,.47,0c.08,0,0-.08-.29-.06a5.3,5.3,0,0,0-.94.06h.26l-.32,0c0,.06-.4.08-.56.13h0c.31,0,.13.05.09.07h-.15c-.29,0,.59,0,.08,0a.39.39,0,0,1,.14.33c.2,0,0,.09.36,0-.43.05-.53.14-.51.17s-.09,0-.07,0c-.56.08.51.06-.17.14.49,0-.15.1.42.12l-.29,0c0,.1-.18.22-.2.3.43.07-.18.18.4.24-.13.06-.37.14-.13.22h-.08c0,.08.07.19.43.25a1.7,1.7,0,0,0-.62.09c.26.06.18.17.41.26-.25,0,.11.07-.26.07.71.25.45.56-.1.79h0l.92.15h-.09c.06,0-.31.08-.24.13l-.12,0c.16,0-.3.08,0,.14h-.1l.14,0c-.12,0-.31,0-.27,0-.14.39.47.85.33,1.26l-.11,0,.2.1-.12,0c-.22.09.12.22.06.32l-.25,0c.33.11-.45.08.24.19l-.24,0c.21.2.16.51,0,.56.59.29,0,.21.45.61l-.11-.08c.31.5-.28.35-.42.42s-.11.11-.21.12l0-.15c0,.29-.15.15-.23,0s-.14-.24-.26.06l0-.2c0,.31-.11-.12-.13.42l0-.17c-.18.7-.22-.34-.41.1l0-.12c-.05.09-.1.17-.12,0l0-.09c-.1-.51-.29,0-.43,0l0-.23c-.09.27-.19,0-.29.12v-.11l-.06.15,0-.22C106.45,103.66,106.32,103.85,106.21,103.87Z"/><path class="cls-3" d="M105,104Z"/><path class="cls-3" d="M108.55,97.14h0S108.56,97.14,108.55,97.14Z"/><polygon class="cls-3" points="143.23 86.94 143.29 86.9 143.09 86.94 143.23 86.94"/><path class="cls-3" d="M142.71,86.88l-.12.06.59-.08C143.45,86.68,142.53,87,142.71,86.88Z"/><path class="cls-3" d="M142.74,86.81c.1-.1-.16,0-.24,0C142.7,86.75,142.48,86.94,142.74,86.81Z"/><path class="cls-3" d="M140.76,84.2l.05,0Z"/><path class="cls-3" d="M138.51,83.79l-.22-.08c.09.1,0,.11-.2.12H138l.2,0,0,0,0-.09a.86.86,0,0,1,.13-.14v0c.48-.3.79-.27,1.39.19a4.62,4.62,0,0,1,.5.38l-.18-.07a1.74,1.74,0,0,1,.35.16l-.19-.07c-.24,0-.07.09.07.18s.27.15.12.16a1.37,1.37,0,0,0,.4.07,7.34,7.34,0,0,0,1.07.86.71.71,0,0,1-.23.14c.73.12.76.66.87,1.1.15,0,.13-.1.29-.12.11-.21-.46-.1-.27-.33l.14,0c0-.12-.34.14-.22,0s.17-.07.18-.09c-.16-.16-.14-.42-.55-.43.25-.19-.11-.2.12-.41-.14,0-.14,0-.33,0a2.37,2.37,0,0,0-.15-.34l-.09-.09-.31-.25-.17-.17a3.33,3.33,0,0,1-.49-.25c-.3-.19.35.08-.13-.06l.15.06c-.41-.15-.73-.19-.6-.07l-.77-.17.26.24a3.62,3.62,0,0,0,.4,0l.5,0c.24,0,.37,0,.57,0a2.35,2.35,0,0,1,.88.12,1.41,1.41,0,0,0,.59,0,2.35,2.35,0,0,0,1.53-.59s0,.08,0,.11c.3-.15.61,0,.89-.12v.06c.67-.55,1.53-.09,2.17-.67a13.17,13.17,0,0,0,1.35-.14,3,3,0,0,0,1.36-.41l.09.08a2.2,2.2,0,0,0,.46-1,1.46,1.46,0,0,0-.21-1.11c0-.75-1.18-1.16-1.09-1.94.4-.6-1-.74-.58-1.32.57-1.1-.3-1.69-1.13-2.3,0-.85-1.06-1.3-.7-2.24-.53-.19.23-.89,0-1.22l-.14.06c.38-.29-.71-.08-.11-.4h0c.29-.2-.83.11-.46-.08l-.16,0c-.08-.07.17-.08.21-.17s-.29.1-.22,0c.64-.26-.22-.16.5-.44,0,0,.26-.18.45-.13s0-.19-.33-.06a2.53,2.53,0,0,0-.86.34l.24-.07a1.77,1.77,0,0,1-.28.14c0,.13-.33.28-.45.41h0c.31-.05.17.09.14.15l-.12.07c-.27.13.59-.07.1.07a1.78,1.78,0,0,1,.41.72c.2,0,.06.2.39,0-.37.21-.4.44-.36.51s-.08,0-.07,0c-.46.33.55,0,0,.35.46-.14-.05.29.51.18a1.18,1.18,0,0,1-.27.11c.08.24,0,.56.08.76.46,0,0,.48.58.43-.07.16-.22.44.06.53h-.07a.67.67,0,0,0,.62.42c-.5.24-.36.28-.5.42.29,0,.32.33.62.45-.23.11.16.12-.19.25.89.32.92,1.07.63,1.83h0c.22,0,.68-.05,1-.05a.11.11,0,0,1-.09,0c.11.08-.2.3-.09.38l-.12,0c.19,0-.21.3.11.33l-.09,0,.16,0c-.12,0-.29.09-.27,0a4.06,4.06,0,0,0,.73,1.33c.15.21.31.43.44.65a.52.52,0,0,1,.13.38l-.13,0a1.14,1.14,0,0,1,.23.15l-.13,0c-.22,0,.07.33-.12.39a1.75,1.75,0,0,0-.19-.2c.15.32-.37-.34,0,.28A1.28,1.28,0,0,1,149,82c0,.23-.72.28-1.23.23-.37.63-.93.14-1.33.66v-.12c-.54.48-1.22.1-1.83.24-.26,0-.41.14-.67.17l0-.15c-.37.61-1-.41-1.34.25v-.2c0,.32-.28-.08-.19.45l-.1-.16c-.11.37-.27.3-.42.2s-.41-.21-.47,0l-.05-.13c0,.11-.09.19-.26.09,0,0,0,0,0-.09-.37-.21-.6-.18-.72-.09s-.11.22-.3.23l-.31-.21a.16.16,0,0,1,0,.09c0,.12-.45,0-.47.14l-.14-.08.12.12-.31-.14C138.73,83.6,138.74,83.75,138.51,83.79Z"/><path class="cls-3" d="M140.29,84.22h0S140.27,84.21,140.29,84.22Z"/><path class="cls-3" d="M145.1,71.32l0,0S145.11,71.3,145.1,71.32Z"/><polygon class="cls-3" points="119.77 103.84 119.81 103.78 119.68 103.93 119.77 103.84"/><path class="cls-3" d="M119.42,104.13l-.07.11.38-.42C119.87,103.54,119.32,104.31,119.42,104.13Z"/><path class="cls-3" d="M119.43,104.07c0-.12-.11.09-.16.16C119.39,104.07,119.28,104.31,119.43,104.07Z"/><path class="cls-3" d="M117,103.56h0A0,0,0,0,0,117,103.56Z"/><path class="cls-3" d="M116.44,104.46v.21c.11-.39.23,0,.32-.19v.07c.25.07.49-.26.8-.38l0,.1c0-.06.06-.19.07-.17a.27.27,0,0,1,0,.11c0,.34.21-.18.19.08a.67.67,0,0,0,.08-.27,2.58,2.58,0,0,0,.84-.2.94.94,0,0,1-.08.24c.41-.42.57-.12.71.06.08-.11.06-.14.16-.25s-.31.23-.24,0l.08-.12c0-.1-.18.3-.14.12s.09-.15.08-.17-.18-.15-.41.12c.1-.29-.1-.06,0-.33a.93.93,0,0,0-.17.24c-.3-.27-.75-.08-1.09-.14-.23.56-.36-.14-.58.05v-.06c-.07.15-.15.22-.23.15l0,.24a1.34,1.34,0,0,0-.22-.16.2.2,0,0,0-.1-.07.35.35,0,0,0-.2,0c-.07,0-.14,0-.15,0s0-.27,0-.34-.07,0-.47.07l.12-.06c-.13,0,.09-.15,0-.17h.06c-.51,0,0-.49-.52-.7a1.93,1.93,0,0,0-.21-1.05h.12c-.27-.27.36-.57.15-.84.26-.3-.73-.56-.38-.87.59-.2-.71-.38-.1-.58.92-.39.3-.69-.28-1,.32-.34-.55-.61.11-1-.45-.12.52-.33.38-.49l-.15,0c.46-.08-.64-.1,0-.17h0c.34,0-.82,0-.41-.07h-.17s.19,0,.26,0-.31,0-.22,0c.7,0-.15-.08.63-.12a2.9,2.9,0,0,1,.47,0c.08,0,0-.08-.3-.06a6.52,6.52,0,0,0-.93.05h.26l-.32,0a3.07,3.07,0,0,1-.56.12h0c.31,0,.13,0,.08.07l-.14,0c-.3,0,.59,0,.07,0a.38.38,0,0,1,.15.33c.2,0,0,.09.36,0-.43,0-.53.14-.51.17h-.07c-.55.09.52.05-.16.14.48,0-.15.11.42.11l-.29,0c0,.11-.17.23-.19.31.43.06-.18.19.41.23-.12.06-.36.16-.12.22h-.08c0,.09.08.19.45.23a1.65,1.65,0,0,0-.62.12c.26,0,.19.16.43.24-.26,0,.11.06-.26.08.73.21.5.51,0,.79h0l.93.06h-.1c.08,0-.29.1-.22.15H114c.17,0-.29.11,0,.14h-.1l.14,0c-.12,0-.31,0-.27,0-.1.41.57.78.49,1.2h-.11l.21.07h-.12c-.2.12.15.2.1.3h-.24c.34.06-.44.14.27.14a1,1,0,0,1-.25,0,.45.45,0,0,1,.14.61c.64.14.08.36.59.51h-.13c.46.19,0,.48.1.76s.11.16.13.25l-.16.09c.56-.18-.41.76.18.49l-.17.14c.27-.22-.07.22.38-.25l-.13.17c.64-.61-.2.58.33.12l-.09.13c.08-.09.2-.22.14-.09l-.06.08c-.17.46.29-.11.4-.15l-.13.28c.12-.19.17-.18.22-.17a.12.12,0,0,0,.14-.06l0,.13.1-.2-.06.26C116.18,104.74,116.33,104.5,116.44,104.46Z"/><path class="cls-3" d="M117.58,104.21Z"/><path class="cls-3" d="M113.59,96.45h0S113.6,96.45,113.59,96.45Z"/><polygon class="cls-3" points="56.15 29.96 56.22 30.01 56.24 29.79 56.15 29.96"/><path class="cls-3" d="M56.64,29.3s0-.08-.09-.11l-.16.66C56.7,30.06,56.43,29.16,56.64,29.3Z"/><path class="cls-3" d="M56.78,29.3c.21.05.16-.21.16-.3C57,29.2,56.63,29.06,56.78,29.3Z"/><path class="cls-3" d="M63.27,36.22s0,0,0,0A0,0,0,0,0,63.27,36.22Z"/><path class="cls-3" d="M64.86,39.64h.22c-.51-.61-.27-1.42-.57-2.1l.09,0a40.42,40.42,0,0,0-1.43-5.14s.09,0,.12,0-.24-.15-.24-.25.11,0,.13,0c.29-.42-.4-1.06-.17-1.34a.22.22,0,0,0-.31-.05A4.09,4.09,0,0,0,62,29.05a2.22,2.22,0,0,0-1.6-.8c0-.05,0-.14,0-.25a12.23,12.23,0,0,0-1.48.42c-.54.21-1.23.43-1.85.64,0,.15.19.08.14.27.46,0,.56-.62,1-.53V29c.3,0-.1-.34.25-.29.15.06,0,.17.1.16.58-.31.77-.23,1.22-.57.07.29.46.06.51.38.14-.08.22,0,.34-.18A2.57,2.57,0,0,1,62,30.08c.22,1,.45,2,.62,3,.79.84.28,2.07.69,3.15h-.06a2.69,2.69,0,0,1,.4,1.3l.33.32c0,2.68.85,5.28,1.14,7.95.42,3,.49,5.74,1.85,8.51-.06,0-.09,0-.13,0,.29.82.22,1.63.5,2.4H67.3a12.69,12.69,0,0,1,.8,3,7,7,0,0,1,.25,2.79,9.62,9.62,0,0,1-1.67,1.83L64.93,66a.28.28,0,0,1-.47,0,1.65,1.65,0,0,1-.21-.47l-.33-1,.12,0c-.73-1.86-.56-3.88-1.21-5.77-.19-2.05-1.64-4-1.72-6,.3-1.36-1.32-2.75-1-4,.39-2.58-.69-4.8-1.73-7.11-.13-2.28-1.41-4.36-1.16-6.64-.62-1,.13-2.24-.21-3.36l-.14.07c.38-.48-.8-.81-.18-1.17l0,0c.3-.27-.89-.37-.51-.57h-.18c-.09-.26.19-.07.22-.28s-.31,0-.24-.15c.68-.15-.27-.62.5-.76,0,.14.26-.28.48,0,.06-.1-.06-.54-.38-.44s-.69-.11-.91.2H56c-.24.13-.12.09-.3.15,0,.36-.33.46-.44.74h0c.33.13.19.39.18.54l-.14.07c-.28.13.65.31.13.28a15.48,15.48,0,0,1,.55,2.3c.22.08.1.61.44.38A1.12,1.12,0,0,0,56.14,34s-.08,0-.07,0c-.47.52.6.42,0,.93.49,0,0,.75.59.88a.38.38,0,0,1-.27.09c.13.72.11,1.54.21,2.15.51.45.06,1.29.72,1.64a2.07,2.07,0,0,0,.17,1.5l-.08,0a3,3,0,0,0,.77,1.63c-.51.27-.35.5-.48.79.34.34.43,1.13.78,1.68-.23.14.21.47-.15.57a8.6,8.6,0,0,1,1.11,5.48l0,0c.25.19.75.37,1.06.55,0,0-.08,0-.09,0,.14.31-.15.68,0,1-.06,0-.06,0-.13,0,.23.27-.15.68.22,1l-.1,0,.19.2c-.12,0-.31.05-.29-.08.51,2.78,1.8,5.5,2.4,8.35l-.14-.08.34.5a.17.17,0,0,1-.13,0c0,.77.47,1.34.61,2.14-.06,0-.21-.11-.24.06a1.58,1.58,0,0,1,.25,1c0,.32.12.55.42.35,0,.06-.1.23-.17.22a2.12,2.12,0,0,0,.49.5.7.7,0,0,0,.72.09,5.85,5.85,0,0,0,1.65-1.34c.51-.47.83-.75,1.27-1.12.18-.63.74-1.06,1.11-1.74a2.09,2.09,0,0,0,.09-2l.13,0c-.74-1.52-.6-3.29-1-4.93-.08-.7-.32-1.13-.46-1.82l.15,0c-.81-1.05.07-2.53-.82-3.62l.23,0c-.36-.13,0-.75-.57-.58l.13-.24c-.9-.7,0-1.56-.62-2.48l.14,0a1,1,0,0,1-.21-.77s.06,0,.11.07c.36-.93-.4-1.77-.55-2.66l.27.06c-.37-.38-.25-1.21-.49-1.75l.12,0-.22-.26.23,0C65.36,41,65,40.35,64.86,39.64Z"/><path class="cls-3" d="M63.18,32.29h0S63.2,32.31,63.18,32.29Z"/><path class="cls-3" d="M55.25,29.47l0-.1C55.23,29.38,55.25,29.44,55.25,29.47Z"/><polygon class="cls-3" points="67.8 63.59 67.77 63.64 67.89 63.72 67.8 63.59"/><path class="cls-3" d="M68.16,64.2s0,0,.06,0l-.37-.32C67.73,64,68.24,64.06,68.16,64.2Z"/><path class="cls-3" d="M68.15,64.31c0,.16.11.2.17.22C68.2,64.5,68.29,64.25,68.15,64.31Z"/><path class="cls-3" d="M71.21,77.12l0-.05A.06.06,0,0,0,71.21,77.12Z"/><path class="cls-3" d="M72.52,80.34h.11a11.41,11.41,0,0,1-.59-2l0,0c-.38-1.67-.94-3.17-1.43-4.81,0,0,.06,0,.07,0s-.14-.15-.15-.24.05,0,.07,0c.09-.39-.36-1-.28-1.25,0-.1-.12-.12-.16-.06-.36-1.29-.71-2.67-1.15-4,0-.07,0-.09.12-.08a12.14,12.14,0,0,1-.89-3.47c-.09,0-.06.14-.16,0,0,.39.33.65.27,1l-.08,0c0,.26.19,0,.15.29,0,.11-.09,0-.09,0a5.77,5.77,0,0,0,.49,1.54c-.13.15.12.56,0,.79.1.12.11.26.23.29.33,1.85.92,3.68,1.36,5.55.51.81.42,1.94.78,3h0a4.77,4.77,0,0,1,.39,1.21l.21.31c.37,2.49,1.22,4.91,1.8,7.39A42.23,42.23,0,0,0,76,93.9s0,0-.07,0c.3.76.42,1.5.71,2.21h0c.78,1.75,1.26,3.75,1.85,5.46a7.34,7.34,0,0,1,.1,1.77,5.53,5.53,0,0,1-1.37-1.63,17,17,0,0,1-1.11-2.27h.06c-.78-1.73-1-3.58-1.72-5.33-.49-1.86-1.56-3.69-1.88-5.62,0-1.23-1-2.63-1-3.8A19.65,19.65,0,0,0,69.78,78c-.42-2.11-1.43-4-1.76-6.12-.5-.88-.4-2-.81-3.07l-.06.06c.1-.44-.59-.73-.35-1.07l0,0c.09-.25-.55-.34-.4-.52h-.09c-.11-.23.08-.05,0-.25s-.16,0-.17-.13c.32-.14-.27-.57.09-.7,0,.13.07-.25.25,0,0-.1-.15-.49-.29-.41s-.38-.09-.43.2H66c-.09.12,0,.08-.12.14.1.32-.06.42-.06.67h0c.2.11.19.36.21.48l0,.08c-.11.11.41.27.13.25a20.07,20.07,0,0,1,.79,2.08c.13.08.18.56.31.35a1.46,1.46,0,0,0,.06,1s0,0,0,0c-.13.47.4.39.19.85.25,0,.14.68.48.81,0,.06-.08.09-.13.08.21.66.35,1.41.5,2,.35.42.26,1.17.66,1.51a3.63,3.63,0,0,0,.33,1.38l0,0a4.9,4.9,0,0,0,.64,1.53c-.23.22-.12.44-.14.69.21.33.37,1.07.62,1.59-.1.12.17.45,0,.52a15,15,0,0,1,1.23,5.13l0,0c.15.19.44.39.62.58,0,0,0,0,0,0,.11.29,0,.62.12.91,0,0,0,0-.07,0,.15.26,0,.61.24.91l0,0,.13.2c-.06,0-.16,0-.17-.09.63,2.61,1.91,5.15,2.72,7.76l-.09-.08.27.47a.08.08,0,0,1-.08,0,12.74,12.74,0,0,0,.72,1.93s-.12-.07-.12,0c.33.41.1.82.52.93a.09.09,0,0,1-.12,0,18.59,18.59,0,0,0,1.08,1.8,10.48,10.48,0,0,0,1.83,2l0-.28c-.1-1.06-.12-1.68-.25-2.48a5.88,5.88,0,0,0-.53-1.76h.06a43.78,43.78,0,0,1-1.47-4.54c-.17-.63-.38-1-.58-1.67l.07,0c-.61-1-.42-2.32-1.07-3.35l.13,0c-.22-.14-.15-.7-.4-.56l0-.22c-.58-.67-.24-1.43-.74-2.3l.08,0a1.72,1.72,0,0,1-.23-.72s0,0,.06.06a9,9,0,0,0-.7-2.46l.14.06a10.45,10.45,0,0,1-.52-1.63l.06,0L73,82.34l.11,0C73,81.62,72.7,81,72.52,80.34Z"/><path class="cls-3" d="M70.64,73.47h0S70.65,73.49,70.64,73.47Z"/><path class="cls-3" d="M65.81,66.93v-.09S65.81,66.9,65.81,66.93Z"/></g></g></g></svg>