<svg xmlns="http://www.w3.org/2000/svg" viewBox="0 0 209.43 165.32"><defs><style>.cls-1{font-size:12px;stroke:#000;stroke-miterlimit:10;stroke-width:0.1px;font-family:SpecialElite-Regular, Special Elite;letter-spacing:0.25em;}.cls-1,.cls-5{fill:#fff;}.cls-2{font-size:28.17px;fill:#053f3f;font-family:Yomogi-Regular, Yomogi;}.cls-3{fill:#231815;}.cls-4{fill:#dbdcdc;}</style></defs><g id="レイヤー_2" data-name="レイヤー 2"><g id="キャラクター"><text id="Special_Elite" data-name="Special Elite" class="cls-1" transform="translate(17.46 161.41)">Donguri-Seikotsuin</text><text id="Yomogi" class="cls-2" transform="translate(0 140.78) scale(1.06 1)">どんぐり整骨院</text><g id="どんぐり君"><polygon class="cls-3" points="66.96 75.79 66.97 75.86 67 75.67 66.96 75.79"/><path class="cls-3" d="M67.14,75.36v-.12l-.1.54C67.07,76.09,67.11,75.16,67.14,75.36Z"/><path class="cls-3" d="M67.17,75.42c0,.12,0-.13.06-.22C67.22,75.4,67.16,75.14,67.17,75.42Z"/><path class="cls-3" d="M70.6,75v0S70.6,75,70.6,75Z"/><path class="cls-3" d="M71.28,74l0-.2c-.08.39-.34.07-.47.26V74c-.43,0-.76.38-1.17.6v-.1c0,.07,0,.2,0,.19a.24.24,0,0,1,0-.12c-.14-.32-.24.24-.33,0a.54.54,0,0,0,0,.28,2.88,2.88,0,0,0-1,.5.77.77,0,0,1,0-.25c-.28.55-.62.34-.93.26,0,.14,0,.15,0,.3s.18-.36.28-.1v.14c.07.08,0-.35.08-.17a.62.62,0,0,1,0,.18c.14-.06.3.06.42-.28,0,.3.15,0,.22.3,0-.12.07-.09.07-.29.51.11,1-.21,1.49-.26.14-.6.52,0,.77-.2V75c.07-.15.18-.24.3-.19l0-.25c.74.36,1.31-.12,2-.11s1.55.11,1.94-.84c0,0,0,.08,0,.11.15-.19.41-.06.54-.25l0,0c.25-.6,1-.34,1.14-1a4.38,4.38,0,0,0,1.5-.93l.06.1c.28-.44,1-.13,1.31-.55.57,0,.45-1.06,1.06-1.06.6.28.16-.9.75-.6,1,.35,1.13-.44,1.2-1.2.63-.1.44-1,1.29-.9-.12-.45.75,0,.86-.25l-.12-.09c.4.23-.29-.58.23-.17l0,0c.28.19-.49-.62-.18-.37l-.12-.12c0-.07.15.13.23.14s-.22-.21-.12-.17c.51.45,0-.2.57.31,0,0,.26.16.32.32s.12-.06-.13-.27a3.33,3.33,0,0,0-.68-.6l.18.17-.25-.19c-.09,0-.36-.2-.51-.27l0,0c.19.23,0,.15,0,.14L84,65.93c-.23-.18.35.45,0,.1a.79.79,0,0,1-.29.45c.12.14-.12.08.18.31-.34-.26-.51-.24-.54-.2l0,0c-.45-.32.27.42-.26,0,.32.34-.23,0,.12.42a1,1,0,0,1-.21-.19c-.13.1-.38.1-.5.18.19.37-.34,0,0,.52-.14,0-.41-.12-.35.12l0,0c-.09.1-.19.23,0,.55-.39-.37-.36-.26-.52-.35.1.24-.09.3,0,.55-.18-.18,0,.15-.26-.12.14.75-.4.87-1.06.68v0l.41.79s-.06-.07,0-.07-.3-.15-.32,0l-.06-.1c0,.17-.29-.15-.19.12l-.06-.07,0,.13c-.07-.09-.17-.24-.13-.22-.59.26-.79,1.12-1.43,1.37l0-.1v.23a.88.88,0,0,1,0-.1c-.25-.09-.22.28-.39.31a.82.82,0,0,0-.12-.2c.06.33-.38-.26-.09.34a2,2,0,0,1-.12-.21,1.05,1.05,0,0,1-.84.54c0,.67-.5.3-.55.85l0-.11c-.16.54-.73.29-1.06.51-.17,0-.22.18-.37.25l-.06-.13c0,.63-.74-.29-.78.39l0-.2c.06.31-.21-.05,0,.45l-.11-.13c0,.73-.45-.19-.53.3l0-.12c0,.11-.08.2-.16.1a.78.78,0,0,1,0-.09c-.34-.42-.39.17-.61.21l0-.24c0,.29-.27.1-.37.25l0-.11,0,.16-.06-.21C71.56,73.71,71.45,73.93,71.28,74Z"/><path class="cls-3" d="M69.57,74.54h0Z"/><path class="cls-3" d="M84,65.85h0S84.05,65.85,84,65.85Z"/><ellipse class="cls-4" cx="106.1" cy="103.64" rx="41.96" ry="4.86"/><polygon class="cls-3" points="152.38 59.72 152.51 59.75 152.71 59.48 152.38 59.72"/><path class="cls-3" d="M154.07,58.69c-.1,0-.08-.07-.18-.07-.33.3-.57.58-.86.87C153.64,59.61,153.54,58.65,154.07,58.69Z"/><path class="cls-3" d="M154.6,58.56c.34-.09.71-.11.62-.33a1.73,1.73,0,0,0-.16-.44.56.56,0,0,1,.06.3s0,.14,0,.17l-.19.06C154.64,58.4,154.44,58.47,154.6,58.56Z"/><path class="cls-3" d="M128.28,35.25a.31.31,0,0,0,.13,0A.26.26,0,0,0,128.28,35.25Z"/><path class="cls-3" d="M118.58,33.37l-.15.17c1.87,0,3.76.94,5.65,1.31l-.14,0a122.57,122.57,0,0,1,13.4,4.78c-.08,0-.13,0-.21,0a2.48,2.48,0,0,1,.76.18c0,.07-.11,0-.2,0,.76.73,2.78,1.18,3.19,1.73.27.1.46,0,.38-.12a50.6,50.6,0,0,1,9.83,6.42c.09.16,0,.25-.08.29a11,11,0,0,1,3.31,3.91,9.5,9.5,0,0,1,.84,2.49,9.68,9.68,0,0,1,.14,1.32,8.63,8.63,0,0,1-.08,1.51c.13.25.21-.49.31.08a3.66,3.66,0,0,0-.05-1.89,5.39,5.39,0,0,1-.29-1.49l.17.09c-.11-.75-.39-.06-.43-.85,0-.32.2,0,.16-.12a9,9,0,0,0-2.61-3.92c0-.48-1.09-1.27-1.28-1.86-.38-.2-.65-.5-.91-.46a31.42,31.42,0,0,0-6.63-4.72c-2.35-1.37-4.82-2.58-7.3-3.77-2.59-.55-5.11-2.4-8.11-3.21a0,0,0,0,1,0-.06,25,25,0,0,1-3.52-1c-.34,0-.69,0-1-.06-6.75-2.46-14.16-3.36-21.47-3.78q-3.12-.18-6.09-.13a32,32,0,0,0-6,.47,8.87,8.87,0,0,0-5.36,3.12,12.19,12.19,0,0,0-2.23,5.44c-.06,0-.11,0-.07-.17-.49,2.18-1.11,4.08-1.4,6.15l-.06,0c-.51,5.12-1.66,10.63-1,15.6a45.07,45.07,0,0,0,4,18.68l-.12,0c2.24,4.58,4.58,9.22,8.92,12.47a18.58,18.58,0,0,0,7.49,3.82,45.62,45.62,0,0,0,8.39,1.26,14.26,14.26,0,0,0,5.67-.45c1.92-.46,3.72-1.1,5.34-1.34a23.87,23.87,0,0,0,9-3.94,39,39,0,0,0,7.08-6.55c4.51-4,7.41-9.14,10.79-13.73.94-2.51,3.13-4.78,4.13-7.62l-.18,0c.84-.84.23-2.42,1.1-2.85v.12c.5-.44-.37-1.48.13-1.69l-.13-.13c.14-.66.21,0,.42-.51,0-.2-.28-.15-.07-.52.72.09.31-1.64,1.08-1.51-.1.36.44-.5.39.35.13-.21.39-1.34,0-1.31-.32-.17-.52-.67-.95-.05l.21.19c-.3.17-.17.14-.37.18-.27.86-.65.9-1,1.48h0c.17.5-.18,1-.32,1.36l-.17.09c-.35.12.24,1.13-.17.73a35.54,35.54,0,0,1-2,5.61c.07.34-.66,1.43-.13,1.16A6.05,6.05,0,0,0,147,68.38a.11.11,0,0,1,0-.15c-1,.74-.13,1.38-1.24,2,.35.37-1.07,1.55-.89,2.31-.16.06-.26,0-.31,0-1,1.57-2.29,3.19-3.26,4.43-.46,1.32-2.16,2.46-2.46,3.68a18.55,18.55,0,0,0-2.74,2.78l0-.14a27.45,27.45,0,0,0-3,3.37c-.72-.08-1.15.41-1.78.7a31.59,31.59,0,0,1-3.49,3c-.35-.07-1,.78-1.31.53a20.25,20.25,0,0,1-6.23,3.48,23.21,23.21,0,0,1-7.3,1.29l.07,0c-.58.26-1.23.78-1.85,1-.07,0-.07-.09.07-.09-.88.13-1.71-.21-2.57-.14,0-.06,0-.06.15-.11-.83.13-1.66-.34-2.63-.16l0-.1a4.48,4.48,0,0,1-.62.06c0-.11.07-.28.39-.2a27.3,27.3,0,0,1-10.49-3.35,24.09,24.09,0,0,1-7.93-7.69l.25.16c-.32-.36-.65-.72-1-1.1.06,0,.12,0,.18.07-.78-1.64-2-3.18-2.59-4.84.06,0,.28.18.24-.07C83.9,78,84.42,77,83.51,76.62a.15.15,0,0,1,.25,0,32.79,32.79,0,0,1-2.51-10.7c-1-3-.46-6.44-.77-9.63l.12,0c-.2-4.16.91-8.48,1.72-12.68.46-1.72.53-2.94,1.06-4.66h.16a7.43,7.43,0,0,1,2-4.17,13.24,13.24,0,0,1,3.94-2.71l-.15.25c.37-.48,1.93-.35,1.63-.83l.61.06c2.18-1,4.13,0,6.88-.52l-.18.13a7.57,7.57,0,0,1,2.15-.07c-.09,0,0,.06-.22.09,2.29.53,4.87.12,7.31.35l-.3.21a31,31,0,0,1,4.87.46l-.11.09.8,0,0,.22C114.76,32.78,116.66,33,118.58,33.37Z"/><path class="cls-3" d="M137.69,39.88h0C137.62,39.86,137.64,39.87,137.69,39.88Z"/><path class="cls-3" d="M151.3,57.49l.11-.2S151.33,57.43,151.3,57.49Z"/><polygon class="cls-3" points="132.87 16.58 132.95 16.68 133.29 16.6 132.87 16.58"/><path class="cls-3" d="M134.8,16.81s0-.09,0-.15l-1.24.14C133.87,17.25,134.58,16.51,134.8,16.81Z"/><path class="cls-3" d="M135.09,17a.64.64,0,0,0,.74.06C135.61,17.17,135.11,16.69,135.09,17Z"/><path class="cls-3" d="M156.44,44.25a.42.42,0,0,0,0-.12A.17.17,0,0,0,156.44,44.25Z"/><path class="cls-3" d="M157.66,53.69l.21.11c-.26-1.8.18-3.81-.1-5.7l.08.13a37.26,37.26,0,0,0-3.27-13.55c0,.06.12.07.17.13a2,2,0,0,1-.45-.63c0-.07.12,0,.17.11,0-1.07-1.4-2.62-1.47-3.28-.17-.23-.36-.28-.39-.09A25.67,25.67,0,0,0,145,22.38c-.12-.15-.08-.24,0-.3-2.93-1.62-5.8-3.45-8.94-4.82-.19.08.26.26-.12.28.92.58,2,.46,2.76,1.14l-.18.06c.59.4.3-.24.88.25.2.23-.16.12,0,.19,1.36.67,2.65,1.54,4,2.11.11.42,1.29,1,1.53,1.53.38.15.64.43.9.38a31.26,31.26,0,0,1,8.66,13c1.41,2.17,1.45,5.24,2,8.09a0,0,0,0,1-.06,0,13.25,13.25,0,0,1,.49,3.46l.3.95A69.46,69.46,0,0,1,156.16,59c-.16.86-.34,1.71-.55,2.56a2.77,2.77,0,0,1-.36,1,1.51,1.51,0,0,1-.78.54,1.57,1.57,0,0,1-1,0,2.44,2.44,0,0,1-.89-.61c-.7-.6-1.37-1.23-2.09-1.82-6.44-5.33-12.94-9.35-21-11.71,0,0,0-.1.19,0-2.27-.77-4.26-1.67-6.45-2.24l0,0c-5.48-1.21-11.29-3-16.73-3.33a140.15,140.15,0,0,0-20.87-1.63l0-.12c-1.39,0-2.77,0-4.14,0s-2.93.2-3.66-.86a1.72,1.72,0,0,1-.28-1.6l.76-1.76c.54-1.18,1.1-2.34,1.67-3.53,2.76-4.58,5.62-9.77,10.24-13.14,1.52-.91,3-2.2,4.64-3.38a14.08,14.08,0,0,1,5-2.57C106.6,13,113,11.63,120,12.43c.77.2,1.54.39,2.3.62a2.53,2.53,0,0,0,2.15,0,2.22,2.22,0,0,0,1.11-1.7l.61-2.14c.41-1.43.82-2.85,1.29-4.25a17.77,17.77,0,0,1,.8-2.13,4.23,4.23,0,0,1,1.87-1.43,2.36,2.36,0,0,1,1.75-.5h0a3.33,3.33,0,0,1,1.79.62,3.06,3.06,0,0,1,1,1.51,10,10,0,0,1,.23,3.47l.17-.07c-.74,1,.09,2.51-.71,3.06V9.4c-.45.51.54,1.46.07,1.74l.14.13c-.1.7-.2,0-.39.56,0,.2.29.14.09.54-.68-.07-.34,1.72-1.12,1.52.13-.34-.49.46-.36-.37-.14.2-.54,1.24-.2,1.27.28.22.38.77.92.2l-.18-.23c.34-.13.2-.12.41-.14.38-.89.76-.91,1.12-1.55,0,0,0,0,0,0a2.44,2.44,0,0,1,.28-1.48l.18-.12c.34-.17-.37-1.16.08-.79.13-1,.27-2,.48-3L136,7l.11-.42a2,2,0,0,0,0-.57,12.47,12.47,0,0,0-.15-1.7c-.19-.29-.48-1.78-.67-1.16a2,2,0,0,0-.45-1.57A3.06,3.06,0,0,0,133.34.43a.19.19,0,0,1,.21,0A1.84,1.84,0,0,0,131.9.05l.18,0c-.72,0-1.12.18-2,.14,0,.26-.61.47-1.18.85s-1.12.94-1.1,1.44c-.19.09-.31.13-.35,0-.38.82-.4,1.1-.61,1.62l-.51,1.39c-.34.92-.67,1.81-.93,2.58a7.73,7.73,0,0,1-.58,2.28,9.21,9.21,0,0,0-.35,1.14,2.79,2.79,0,0,0,0,.62,1.24,1.24,0,0,1-.94.24.86.86,0,0,1-.23-.06l-.54-.15a11.64,11.64,0,0,0-1.15-.22l.16,0a14.3,14.3,0,0,0-5-.45c-.44-.59-1.2-.5-1.93-.72a47.92,47.92,0,0,0-5.17.58c-.3-.24-1.4.29-1.54,0a78.33,78.33,0,0,0-14.85,5.61l0-.07a17.88,17.88,0,0,0-1.16,1.88c-.07,0-.1,0,0-.11-.7.57-1.6.84-2.26,1.46,0,0,0,0,0-.18-.55.65-1.55.95-2.09,1.83l-.11,0-.37.54c-.07-.09-.19-.23.09-.44a37.31,37.31,0,0,0-7.2,9.28,47.63,47.63,0,0,0-2.57,5.28c-.2.45-.37.9-.54,1.36a7.72,7.72,0,0,0-.5,1.5,2.73,2.73,0,0,0,1.92,2.9,2.85,2.85,0,0,1-.41,0,3.82,3.82,0,0,0,1.87.1c0,.06-.08.09-.16.11,2,.22,4.07-.08,6,0,0,.06-.31.16,0,.23,1.45-.28,2.29.5,3-.13a.13.13,0,0,1,0,.23,81.75,81.75,0,0,1,12.1.83c3.42-.22,7.05.86,10.56,1.06l0,.12c4.53.44,9.07,2.05,13.5,3.45,1.82.67,3.09,1,4.91,1.69l0,.15c3.29.7,6,3.17,9.31,4.25l-.31.07c.62,0,1.72,1.08,1.84.53l.43.44c2.4.57,3.37,2.45,5.94,3.69h-.23a7.1,7.1,0,0,1,1.78,1.23c-.08,0-.07,0-.24-.06a16.29,16.29,0,0,0,2.73,2.4c.51.37,1,.74,1.54,1.11a2.66,2.66,0,0,0,1.93.23,3.23,3.23,0,0,1-.25.29,2.94,2.94,0,0,0,1.89-1.59,14.91,14.91,0,0,0,.58-2.48l.1.12,0-.79.24,0A37.46,37.46,0,0,0,157.66,53.69Z"/><path class="cls-3" d="M154.47,34.29v0S154.5,34.33,154.47,34.29Z"/><path class="cls-3" d="M134.94,12.83l-.11.24S134.91,12.91,134.94,12.83Z"/><path class="cls-5" d="M116.31,73.83A9.59,9.59,0,0,0,126.48,72a7.31,7.31,0,0,0,.71-8.88,10,10,0,0,0-4.46-3.92,9.57,9.57,0,0,0-6.25-.56A9.19,9.19,0,0,0,112.57,61c-1.77,1.71-1.91,5-1.4,7.34a6.44,6.44,0,0,0,2.49,4.27,6.85,6.85,0,0,0,4,1.48"/><polygon class="cls-3" points="117.73 72.85 117.72 72.78 117.64 72.96 117.73 72.85"/><path class="cls-3" d="M117.28,73.22v.13l.31-.51C117.52,72.53,117.32,73.44,117.28,73.22Z"/><path class="cls-3" d="M117.21,73.16c-.07-.14-.15.11-.18.19C117.09,73.16,117.19,73.43,117.21,73.16Z"/><path class="cls-3" d="M111.93,68.17l0,0S111.94,68.17,111.93,68.17Z"/><path class="cls-3" d="M110.77,66.11l-.21,0c.38.41,0,.9.25,1.34l-.08,0a6.4,6.4,0,0,0,1.31,3,.49.49,0,0,1-.12,0c.09,0,.24,0,.25.07a.13.13,0,0,1-.12,0c-.2.38.55.47.41.72.07,0,.21,0,.27-.12a4.72,4.72,0,0,0,2.2,1.37.49.49,0,0,1-.11.24,4.57,4.57,0,0,1,2.16.47c0-.13,0-.16,0-.29-.18-.21-.49.26-.63,0l.06-.13c-.11-.12-.12.33-.22.12s.07-.16,0-.18c-.32,0-.54-.25-1-.07.09-.3-.29-.16-.22-.46-.14.06-.18,0-.33.14-.77-.72-1.88-1.37-2.29-2.38-.79-.29-.27-1.15-.62-1.75h.07a.88.88,0,0,1-.29-.74l-.28-.19c.35-1.57.08-3.21.9-4.54A5.16,5.16,0,0,1,114,61a16.76,16.76,0,0,0,1.93-1.67c0,.05,0,.08,0,.12.43-.3.94-.23,1.39-.43v0c1.15-.69,2.5-.08,3.76-.28a13.28,13.28,0,0,1,4.24,2.08l-.08.08c1.13.69,1.35,2,2,2.95a8.23,8.23,0,0,0,.79,1.72,2.41,2.41,0,0,1,.29,1.88c-.31.38-.2.81-.13,1.29s.07,1-.37,1.2c-1.45,1-1.79,2.21-3,3.52-1.4.44-2.72,1.61-4.3,1.07-.69.45-1.43-.49-2.13-.49v.14c-.16-.46-.72.48-.73-.18l0,0c0-.35-.53.64-.51.25l-.07.14c-.19,0,0-.18-.07-.27s-.12.27-.19.15c.21-.63-.47,0-.18-.71.08,0,0-.31.23-.39,0-.09-.27-.14-.39.15s-.4.52-.35.82l.14-.21a1.21,1.21,0,0,1-.07.3c.22.12.11.45.23.66a0,0,0,0,1,0,0c.22-.22.32,0,.41,0v.14c0,.29.45-.45.23,0,.54,0,1.11.14,1.69.19.1-.16.43.06.34-.31a.73.73,0,0,0,.7.53s0,.08,0,.06c.33.52.36-.49.68.15,0-.46.55.1.66-.45a.6.6,0,0,1,.07.27c.53,0,1.14,0,1.59-.09.25-.48,1-.09,1.08-.73.3,0,.81,0,1-.32v.07c.37-.23.83-.53.85-1,.43.36.52.17.78.17.07-.36.57-.7.69-1.17.24.11.15-.33.46-.13a9.64,9.64,0,0,1,1.77-3.59l0,0a5.75,5.75,0,0,0-.84-.63s.1,0,.09,0c-.05-.21.36-.39.29-.62a.21.21,0,0,1,.12,0c-.17-.21.32-.43,0-.68l.1,0-.15-.15c.13,0,.31,0,.28.08,0-2-1.36-3.74-2.5-5.23h.14l-.41-.17a.24.24,0,0,1,.12,0c-.15-.5-.77-.64-1.08-1,0,0,.18-.07.18-.16-.49,0-.16-.68-.75-.29a.39.39,0,0,1,.17-.17c-.94-.43-1.78-.93-2.68-1.4-1,.25-1.71-.49-2.65-.14l0-.11c-1.1.27-2.23-.14-3.35.21a4.27,4.27,0,0,0-1.14.49l-.07-.14c-.43.79-1.78.33-2,1.34l-.09-.19c.11.31-.46.22-.05.59l-.22,0c.14.85-1,.43-1,1.26l-.09-.1c0,.2,0,.4-.2.46,0,0,0,0-.06-.09-.75.27-.43,1.08-.58,1.59l-.22-.11c.21.32-.16.76-.06,1.14l-.11,0,.14.2-.24,0A6.26,6.26,0,0,0,110.77,66.11Z"/><path class="cls-3" d="M112.05,70.54h0S112,70.54,112.05,70.54Z"/><path class="cls-3" d="M116.53,75l0-.06S116.51,75,116.53,75Z"/><ellipse class="cls-3" cx="115.56" cy="64.32" rx="3.24" ry="3.05"/><path class="cls-5" d="M94.85,69.91A9.57,9.57,0,0,0,105,68.08a7.31,7.31,0,0,0,.71-8.88,9.86,9.86,0,0,0-4.46-3.92A9.51,9.51,0,0,0,95,54.72a9.25,9.25,0,0,0-3.91,2.33c-1.77,1.71-1.91,5-1.4,7.34a6.45,6.45,0,0,0,2.5,4.27,6.82,6.82,0,0,0,3.94,1.48"/><polygon class="cls-3" points="96.27 68.93 96.25 68.86 96.17 69.04 96.27 68.93"/><path class="cls-3" d="M95.81,69.3v.13l.31-.51C96.06,68.61,95.86,69.51,95.81,69.3Z"/><path class="cls-3" d="M95.75,69.24c-.07-.14-.15.11-.19.19C95.63,69.24,95.72,69.51,95.75,69.24Z"/><path class="cls-3" d="M90.46,64.25l0,0S90.48,64.25,90.46,64.25Z"/><path class="cls-3" d="M89.3,62.19l-.21,0c.38.41,0,.9.26,1.34l-.08,0a6.28,6.28,0,0,0,1.3,3,.49.49,0,0,1-.12,0c.1,0,.25,0,.26.07a.16.16,0,0,1-.13,0c-.2.38.55.47.41.72.07,0,.21,0,.28-.12a4.64,4.64,0,0,0,2.19,1.37c0,.06,0,.14-.11.24a4.51,4.51,0,0,1,2.16.47c.06-.13,0-.16.06-.29-.19-.21-.5.26-.63,0l.06-.13c-.12-.12-.13.33-.23.12s.07-.16,0-.18c-.32,0-.55-.25-1-.07.08-.3-.3-.16-.23-.46-.13.06-.18,0-.32.14C92.54,67.67,91.42,67,91,66c-.8-.29-.28-1.15-.62-1.75h.06a.9.9,0,0,1-.28-.74l-.29-.19c.35-1.57.09-3.21.9-4.54a5.26,5.26,0,0,1,1.69-1.66,16,16,0,0,0,1.93-1.67s0,.08,0,.11c.44-.29,1-.22,1.39-.42v0c1.15-.69,2.5-.08,3.76-.28A13.23,13.23,0,0,1,103.83,57l-.09.08c1.13.69,1.36,2,2,3a8.23,8.23,0,0,0,.79,1.72,2.41,2.41,0,0,1,.29,1.88c-.31.38-.2.81-.12,1.28s.06,1-.37,1.21c-1.46,1-1.79,2.21-3,3.52-1.39.44-2.72,1.6-4.29,1.07-.7.45-1.44-.49-2.13-.49v.14c-.17-.46-.73.48-.74-.18l0,0c0-.35-.54.64-.51.25l-.08.14c-.19,0,0-.18-.07-.27s-.12.27-.19.15c.22-.63-.46,0-.18-.71.08,0,0-.31.23-.39,0-.09-.27-.14-.39.15s-.4.51-.35.82l.14-.21a1.29,1.29,0,0,1-.06.3c.21.12.1.45.22.66v0c.23-.22.33,0,.41,0v.14c0,.29.45-.45.23,0,.54,0,1.12.14,1.69.19.1-.16.44,0,.35-.31a.72.72,0,0,0,.7.53s0,.08,0,.06c.32.52.36-.49.67.15,0-.46.56.1.67-.45a.58.58,0,0,1,.06.27c.53,0,1.14,0,1.6-.09.25-.48,1-.09,1.08-.73.29,0,.81,0,1-.32v.07c.37-.23.82-.53.84-1,.43.36.53.17.79.17.07-.36.56-.7.68-1.17.24.11.15-.33.46-.13A9.52,9.52,0,0,1,108,64.87l0,0a5.63,5.63,0,0,0-.83-.63s.09,0,.09,0c0-.22.35-.39.28-.62a.21.21,0,0,1,.12,0c-.16-.21.32-.44,0-.68l.09,0-.14-.15c.12,0,.31,0,.27.08,0-2-1.36-3.74-2.49-5.23h.14l-.41-.17a.21.21,0,0,1,.12,0c-.16-.5-.77-.64-1.08-1,0,0,.18-.07.17-.16-.49,0-.15-.68-.74-.29a.42.42,0,0,1,.16-.17c-.93-.43-1.78-.93-2.68-1.41-1,.26-1.71-.49-2.64-.13l0-.11c-1.1.27-2.24-.14-3.35.21a4.31,4.31,0,0,0-1.15.48L94,54.81c-.42.79-1.77.33-2,1.34l-.1-.19c.12.31-.45.22,0,.59l-.22,0c.13.85-1,.43-1,1.26l-.09-.1c0,.2,0,.4-.2.45,0,0,0,0-.06-.08-.75.27-.43,1.08-.57,1.59l-.23-.11c.22.32-.15.76-.06,1.14l-.11,0,.14.2-.23,0A6.25,6.25,0,0,0,89.3,62.19Z"/><path class="cls-3" d="M90.58,66.62h0S90.57,66.62,90.58,66.62Z"/><path class="cls-3" d="M95.06,71.1,95,71S95,71.09,95.06,71.1Z"/><ellipse class="cls-3" cx="94.37" cy="60.61" rx="3.24" ry="3.05"/><polygon class="cls-3" points="100.41 104.99 100.41 105.06 100.45 104.87 100.41 104.99"/><path class="cls-3" d="M100.57,104.58v-.13l-.13.53C100.44,105.29,100.58,104.37,100.57,104.58Z"/><path class="cls-3" d="M100.58,104.63c0,.13,0-.12.07-.2C100.62,104.62,100.61,104.36,100.58,104.63Z"/><path class="cls-3" d="M102.77,104.68v0S102.77,104.7,102.77,104.68Z"/><path class="cls-3" d="M103.41,103.87l0-.21c-.13.36-.22,0-.35.13l0-.07c-.27-.1-.56.21-.86.35l0-.11c0,.07-.05.2-.06.18a.31.31,0,0,1,0-.11c0-.34-.19.2-.21-.06a.81.81,0,0,0,0,.27,1.53,1.53,0,0,0-.72.36.81.81,0,0,1,0-.25c-.25.52-.43.29-.62.19,0,.14,0,.15,0,.3s.15-.34.18-.08l0,.14c0,.09,0-.35.07-.17a.86.86,0,0,1,0,.19c.1,0,.18.08.3-.25,0,.3.09,0,.09.31a.91.91,0,0,0,.09-.28c.29.18.64-.08,1,0,.21-.56.32.14.51,0v.06c.07-.14.16-.2.22-.12l.08-.24c.37.53.82.21,1.22.46a5.43,5.43,0,0,0,.67.29.83.83,0,0,0,.88-.41c0,.06,0,.09,0,.11s.39,0,.5-.14l0,.05c.1-.51.75-.55.35-1.16a2,2,0,0,0,0-1.17h.12c-.23-.31.44-.54.27-.85.3-.28-.65-.66-.26-.93.6-.17-.67-.46,0-.61.94-.34.35-.72-.21-1.07.33-.33-.53-.65.14-1-.44-.14.53-.34.39-.51l-.15,0c.46-.08-.64-.11,0-.18h0c.34-.05-.82,0-.41-.08h-.17s.19,0,.26,0-.31,0-.22,0c.7,0-.15-.09.63-.13a2.9,2.9,0,0,1,.47,0c.08,0,0-.08-.3-.06a5.25,5.25,0,0,0-.93.06h.26l-.32,0c0,.06-.41.08-.56.13h0c.31,0,.13.05.08.07h-.14c-.3,0,.59,0,.08,0a.39.39,0,0,1,.14.33c.19,0,0,.09.36,0-.43.05-.53.14-.52.17s-.08,0-.07,0c-.55.08.52.06-.16.14.48,0-.15.1.42.12l-.29,0c0,.1-.18.22-.2.3.42.07-.19.18.4.24-.13.06-.37.14-.14.22h-.07c0,.08.07.19.43.25a1.7,1.7,0,0,0-.62.09c.26.06.18.17.41.26-.26,0,.11.07-.26.07.71.25.45.56-.11.79h0l.92.15h-.1c.07,0-.3.08-.23.13l-.12,0c.16,0-.31.08,0,.14h-.1l.14,0c-.13,0-.31,0-.27,0-.14.39.47.85.33,1.26l-.11,0,.2.1-.12,0c-.22.09.12.22,0,.32l-.24,0c.33.11-.45.08.24.19l-.24,0c.21.2.16.51,0,.56.6.29,0,.21.46.61l-.12-.08c.32.5-.27.35-.41.42s-.11.11-.21.12l-.05-.15c0,.29-.14.15-.22,0s-.14-.24-.27.06l0-.2c0,.31-.11-.12-.13.42l0-.17c-.18.7-.22-.34-.41.1l0-.12c0,.09-.1.17-.13,0l0-.09c-.09-.51-.28,0-.42,0l0-.23c-.09.27-.2,0-.29.12v-.11l-.06.15,0-.22C103.65,103.66,103.52,103.85,103.41,103.87Z"/><path class="cls-3" d="M102.22,104h0S102.22,104,102.22,104Z"/><path class="cls-3" d="M105.74,97.14h.05C105.74,97.13,105.75,97.14,105.74,97.14Z"/><polygon class="cls-3" points="140.43 86.94 140.49 86.9 140.28 86.94 140.43 86.94"/><path class="cls-3" d="M139.91,86.88l-.12.06.59-.08C140.65,86.68,139.73,87,139.91,86.88Z"/><path class="cls-3" d="M139.94,86.81c.1-.1-.16,0-.25,0C139.89,86.75,139.68,86.94,139.94,86.81Z"/><path class="cls-3" d="M138,84.2l0,0Z"/><path class="cls-3" d="M135.71,83.79l-.23-.08c.1.1,0,.11-.19.12h-.06l.21,0v0a.41.41,0,0,1,.05-.09.86.86,0,0,1,.13-.14v0c.47-.3.79-.27,1.39.19a5.88,5.88,0,0,1,.5.38l-.18-.07a2.09,2.09,0,0,1,.35.16l-.2-.07c-.23,0-.06.09.08.18s.27.15.12.16a1.37,1.37,0,0,0,.4.07,7.75,7.75,0,0,0,1.06.86.63.63,0,0,1-.22.14c.73.12.76.66.87,1.1.14,0,.12-.1.29-.12.1-.21-.46-.1-.27-.33l.14,0c0-.12-.34.14-.22,0s.17-.07.17-.09c-.15-.16-.13-.42-.55-.43.26-.19-.1-.2.13-.41-.14,0-.14,0-.33,0,0-.11-.14-.3-.15-.34l-.09-.09-.31-.25a1.35,1.35,0,0,1-.17-.17,3.33,3.33,0,0,1-.49-.25c-.3-.19.34.08-.13-.06l.15.06c-.41-.15-.73-.19-.6-.07l-.78-.17.27.24a3.21,3.21,0,0,0,.39,0l.51,0c.24,0,.37,0,.57,0a1.85,1.85,0,0,1,.46,0,2,2,0,0,1,.42.1,1.41,1.41,0,0,0,.59,0,2.37,2.37,0,0,0,1.53-.59s0,.08,0,.11c.3-.15.61,0,.89-.12v.06c.67-.55,1.52-.09,2.17-.67a13.17,13.17,0,0,0,1.35-.14,3,3,0,0,0,1.36-.41l.09.08a2.2,2.2,0,0,0,.46-1,1.46,1.46,0,0,0-.21-1.11c0-.75-1.19-1.16-1.09-1.94.4-.6-1-.74-.58-1.32.57-1.1-.3-1.69-1.13-2.3,0-.85-1.06-1.3-.7-2.24-.54-.19.23-.89,0-1.22l-.14.06c.38-.29-.71-.08-.11-.4h0c.3-.2-.82.11-.45-.08l-.17,0c-.07-.07.18-.08.22-.17s-.29.1-.22,0c.64-.26-.23-.16.5-.44,0,0,.25-.18.45-.13s0-.19-.34-.06a2.71,2.71,0,0,0-.86.34l.25-.07a1.45,1.45,0,0,1-.29.14c0,.13-.33.28-.44.41h0c.31-.05.17.09.14.15l-.12.07c-.27.13.59-.07.1.07a1.78,1.78,0,0,1,.41.72c.2,0,.06.2.39,0-.37.21-.4.44-.36.51s-.08,0-.07,0c-.47.33.55,0,0,.35.46-.14-.05.29.51.18a1.4,1.4,0,0,1-.27.11c.08.24,0,.56.08.76.46,0,0,.48.58.43-.07.16-.22.44.06.53h-.07a.67.67,0,0,0,.62.42c-.5.24-.36.28-.5.42.29,0,.32.33.62.45-.24.11.16.12-.19.25.89.32.92,1.07.63,1.83h0c.22,0,.68-.05,1-.05,0,0-.08,0-.09,0s-.2.3-.1.38a.22.22,0,0,1-.12,0c.2,0-.2.3.12.33l-.09,0,.16,0c-.12,0-.3.09-.27,0a4.06,4.06,0,0,0,.73,1.33c.15.21.3.43.44.65a.52.52,0,0,1,.13.38l-.13,0a1.5,1.5,0,0,1,.23.15l-.13,0c-.22,0,.07.33-.12.39a1.89,1.89,0,0,0-.2-.2c.16.32-.36-.34,0,.28a1.28,1.28,0,0,1-.13-.21c0,.23-.73.28-1.23.23-.37.63-.93.14-1.33.66v-.12c-.55.48-1.23.1-1.83.24-.26,0-.42.14-.67.17l0-.15c-.37.61-1-.41-1.35.25v-.2c0,.32-.28-.08-.2.45l-.09-.16c-.12.37-.27.3-.42.2s-.42-.21-.47,0l0-.13c-.06.11-.1.19-.26.09,0,0,0,0,0-.09-.37-.21-.61-.18-.72-.09s-.11.22-.3.23l-.31-.21a.16.16,0,0,1,0,.09c0,.12-.46,0-.47.14l-.14-.08.12.12-.31-.14C135.93,83.6,135.94,83.75,135.71,83.79Z"/><path class="cls-3" d="M137.48,84.22h0S137.46,84.21,137.48,84.22Z"/><path class="cls-3" d="M142.3,71.32l0,0S142.3,71.3,142.3,71.32Z"/><polygon class="cls-3" points="116.97 103.84 117 103.78 116.88 103.93 116.97 103.84"/><path class="cls-3" d="M116.62,104.13l-.07.11.37-.42C117.06,103.54,116.52,104.31,116.62,104.13Z"/><path class="cls-3" d="M116.63,104.07c0-.12-.11.09-.16.16C116.59,104.07,116.48,104.31,116.63,104.07Z"/><path class="cls-3" d="M114.18,103.56h0A0,0,0,0,0,114.18,103.56Z"/><path class="cls-3" d="M113.64,104.46v.21c.12-.39.24,0,.33-.19v.07c.25.07.49-.26.8-.38l0,.1c0-.06.06-.19.07-.17a.75.75,0,0,1,0,.11c0,.34.21-.18.19.08a.88.88,0,0,0,.08-.27,2.58,2.58,0,0,0,.84-.2.73.73,0,0,1-.09.24c.42-.42.57-.12.72.06.08-.11.06-.14.16-.25s-.31.23-.24,0l.08-.12c0-.1-.18.3-.14.12s.09-.15.08-.17-.18-.15-.41.12c.1-.29-.1-.06,0-.33-.07.1-.09.06-.17.24-.3-.27-.75-.08-1.1-.14-.22.56-.35-.14-.57.05v-.06c-.07.15-.16.22-.24.15l0,.24a1.06,1.06,0,0,0-.23-.16.18.18,0,0,0-.09-.07.35.35,0,0,0-.2,0c-.07,0-.14,0-.16,0s0-.27,0-.34-.07,0-.47.07l.12-.06c-.13,0,.08-.15,0-.17h.06c-.51,0,0-.49-.52-.7a1.94,1.94,0,0,0-.22-1.05h.13c-.28-.27.35-.57.14-.84.27-.3-.73-.56-.37-.87.59-.2-.71-.38-.1-.58.92-.39.3-.69-.28-1,.32-.34-.56-.61.11-1-.45-.12.52-.33.38-.49l-.15,0c.46-.08-.64-.1,0-.17h0c.35,0-.81,0-.4-.07h-.17s.19,0,.26,0-.31,0-.22,0c.7,0-.15-.08.63-.12a2.9,2.9,0,0,1,.47,0c.08,0,0-.08-.3-.06a6.52,6.52,0,0,0-.93.05h.26l-.32,0a3.27,3.27,0,0,1-.56.12h0c.31,0,.13,0,.08.07l-.14,0c-.3,0,.59,0,.07,0a.38.38,0,0,1,.15.33c.19,0,0,.09.36,0-.43,0-.53.14-.51.17h-.07c-.56.09.52.05-.16.14.48,0-.15.11.42.11l-.29,0c0,.11-.17.23-.19.31.43.06-.18.19.4.23-.12.06-.35.16-.12.22h-.07c0,.09.08.19.45.23a1.65,1.65,0,0,0-.62.12c.26,0,.19.16.43.24-.26,0,.11.06-.26.08.73.21.49.51,0,.79h0l.92.06h-.09c.07,0-.29.1-.22.15h-.12c.17,0-.29.11,0,.14h-.1l.14,0c-.12,0-.31,0-.27,0-.1.41.56.78.49,1.2h-.11l.21.07h-.12c-.21.12.15.2.1.3h-.25c.34.06-.43.14.27.14a.92.92,0,0,1-.24,0,.45.45,0,0,1,.14.61c.64.14.08.36.59.51H112c.46.19,0,.48.1.76s.11.16.12.25l-.15.09c.56-.18-.41.76.18.49l-.17.14c.27-.22-.07.22.38-.25l-.14.17c.65-.61-.19.58.34.12l-.1.13c.09-.09.21-.22.15-.09l-.07.08c-.17.46.3-.11.41-.15l-.13.28c.12-.19.16-.18.22-.17s.08,0,.14-.06l0,.13.1-.2-.06.26C113.38,104.74,113.53,104.5,113.64,104.46Z"/><path class="cls-3" d="M114.78,104.21Z"/><path class="cls-3" d="M110.79,96.45h0S110.8,96.45,110.79,96.45Z"/><polygon class="cls-3" points="53.35 29.96 53.42 30.01 53.44 29.79 53.35 29.96"/><path class="cls-3" d="M53.84,29.3s-.05-.08-.09-.11l-.16.66C53.9,30.06,53.63,29.16,53.84,29.3Z"/><path class="cls-3" d="M54,29.3c.2.05.16-.21.16-.3C54.17,29.2,53.82,29.06,54,29.3Z"/><path class="cls-3" d="M60.47,36.22s0,0,0,0A0,0,0,0,0,60.47,36.22Z"/><path class="cls-3" d="M62.06,39.64h.22c-.51-.61-.27-1.42-.57-2.1l.09,0a40.42,40.42,0,0,0-1.43-5.14s.09,0,.12,0-.24-.15-.24-.25.11,0,.13,0c.29-.42-.4-1.06-.17-1.34a.22.22,0,0,0-.31-.05,4.09,4.09,0,0,0-.69-1.85,2.23,2.23,0,0,0-1.61-.8c0-.05,0-.14,0-.25a11.73,11.73,0,0,0-1.48.42c-.54.21-1.24.43-1.85.64,0,.15.19.08.14.27.46,0,.56-.62,1-.53V29c.29,0-.1-.34.25-.29.15.06,0,.17.1.16.58-.31.77-.23,1.22-.57.07.29.45.06.51.38.13-.08.22,0,.34-.18a2.57,2.57,0,0,1,1.33,1.63c.22,1,.45,2,.62,3,.78.84.27,2.07.69,3.15h-.06a2.69,2.69,0,0,1,.4,1.3l.33.32c0,2.68.85,5.28,1.14,7.95.42,3,.49,5.74,1.85,8.51-.06,0-.09,0-.13,0,.29.82.22,1.63.49,2.4h-.06a12.25,12.25,0,0,1,.81,3,7,7,0,0,1,.25,2.79,9.37,9.37,0,0,1-1.68,1.83L62.13,66a.28.28,0,0,1-.47,0,1.68,1.68,0,0,1-.22-.47l-.32-1,.11,0c-.72-1.86-.55-3.88-1.2-5.77-.19-2.05-1.64-4-1.73-6,.31-1.36-1.31-2.75-1-4,.4-2.58-.68-4.8-1.72-7.11-.13-2.28-1.41-4.36-1.16-6.64-.62-1,.12-2.24-.21-3.36l-.14.07c.37-.48-.8-.81-.18-1.17l0,0c.3-.27-.89-.37-.51-.57h-.18c-.09-.26.19-.07.22-.28s-.31,0-.25-.15c.69-.15-.26-.62.51-.76,0,.14.26-.28.48,0,.06-.1-.06-.54-.38-.44s-.69-.11-.91.2h.26c-.23.13-.11.09-.3.15,0,.36-.33.46-.43.74h0c.34.13.2.39.18.54l-.13.07c-.28.13.65.31.13.28a15.48,15.48,0,0,1,.55,2.3c.21.08.1.61.43.38A1.11,1.11,0,0,0,53.34,34s-.09,0-.08,0c-.46.52.61.42,0,.93.49,0,0,.75.59.88a.41.41,0,0,1-.28.09c.13.72.12,1.54.21,2.15.52.45.07,1.29.73,1.64a2.07,2.07,0,0,0,.17,1.5l-.08,0a2.93,2.93,0,0,0,.77,1.63c-.52.27-.35.5-.48.79.34.34.42,1.13.78,1.68-.23.14.21.47-.15.57a8.6,8.6,0,0,1,1.11,5.48l0,0c.25.19.75.37,1.06.55,0,0-.09,0-.09,0,.13.31-.16.68,0,1-.06,0-.06,0-.13,0,.23.27-.15.68.21,1l-.09,0,.19.2c-.12,0-.31.05-.29-.08.5,2.78,1.8,5.5,2.4,8.35l-.14-.08.33.5a.18.18,0,0,1-.13,0c0,.77.47,1.34.62,2.14-.06,0-.21-.11-.24.06a1.64,1.64,0,0,1,.25,1c0,.32.12.55.42.35,0,.06-.1.23-.17.22a2.12,2.12,0,0,0,.49.5A.7.7,0,0,0,62,67a5.85,5.85,0,0,0,1.65-1.34c.51-.47.83-.75,1.26-1.12.19-.63.75-1.06,1.11-1.74a2.06,2.06,0,0,0,.1-2l.13,0c-.75-1.52-.61-3.29-1-4.93-.08-.7-.32-1.13-.46-1.82l.15,0c-.81-1.05.06-2.53-.82-3.62l.23,0c-.36-.13,0-.75-.57-.58l.13-.24C63,48.82,64,48,63.28,47l.14,0a1,1,0,0,1-.21-.77s.06,0,.11.07c.36-.93-.4-1.77-.55-2.66l.27.06c-.37-.38-.25-1.21-.49-1.75l.12,0-.22-.26.23,0C62.56,41,62.22,40.35,62.06,39.64Z"/><path class="cls-3" d="M60.38,32.29h0S60.4,32.31,60.38,32.29Z"/><path class="cls-3" d="M52.45,29.47a.17.17,0,0,1,0-.1S52.45,29.44,52.45,29.47Z"/><polygon class="cls-3" points="65 63.59 64.97 63.64 65.09 63.72 65 63.59"/><path class="cls-3" d="M65.36,64.2s0,0,0,0l-.36-.32C64.93,64,65.44,64.06,65.36,64.2Z"/><path class="cls-3" d="M65.35,64.31c0,.16.11.2.16.22C65.4,64.5,65.49,64.25,65.35,64.31Z"/><path class="cls-3" d="M68.41,77.12l0-.05A.06.06,0,0,0,68.41,77.12Z"/><path class="cls-3" d="M69.71,80.34h.12a12.39,12.39,0,0,1-.6-2l0,0c-.38-1.67-1-3.17-1.43-4.81,0,0,.05,0,.07,0s-.14-.15-.15-.24,0,0,.07,0c.09-.39-.36-1-.28-1.25,0-.1-.12-.12-.17-.06-.35-1.29-.71-2.67-1.14-4,0-.07,0-.09.12-.08a12.14,12.14,0,0,1-.89-3.47c-.09,0-.06.14-.16,0,0,.39.33.65.27,1l-.08,0c0,.26.19,0,.15.29,0,.11-.09,0-.09,0a5.77,5.77,0,0,0,.49,1.54c-.13.15.11.56,0,.79.09.12.11.26.22.29.34,1.85.93,3.68,1.37,5.55.51.81.42,1.94.78,3h0a4.77,4.77,0,0,1,.39,1.21l.21.31c.37,2.49,1.22,4.91,1.8,7.39a41.5,41.5,0,0,0,2.43,7.87s0,0-.07,0c.3.76.42,1.5.71,2.21h0c.78,1.75,1.26,3.75,1.85,5.46a7.34,7.34,0,0,1,.1,1.77,5.38,5.38,0,0,1-1.37-1.63,18.38,18.38,0,0,1-1.12-2.27h.06c-.77-1.73-1-3.58-1.71-5.33-.5-1.86-1.56-3.69-1.88-5.62,0-1.23-1-2.63-1-3.8A19.65,19.65,0,0,0,67,78c-.42-2.11-1.43-4-1.76-6.12-.5-.88-.4-2-.81-3.07l-.06.06c.09-.44-.6-.73-.35-1.07l0,0c.1-.25-.54-.34-.39-.52h-.09c-.11-.23.08-.05,0-.25s-.15,0-.16-.13c.32-.14-.28-.57.09-.7.05.13.07-.25.25,0,0-.1-.15-.49-.3-.41s-.38-.09-.42.2h.14c-.09.12,0,.08-.12.14.1.32-.06.42-.06.67h0c.2.11.19.36.21.48l0,.08c-.12.11.41.27.13.25a20.07,20.07,0,0,1,.79,2.08c.13.08.18.56.3.35a1.52,1.52,0,0,0,.07,1s0,0,0,0c-.14.47.39.39.19.85.25,0,.14.68.47.81,0,.06-.07.09-.12.08.21.66.34,1.41.5,2,.35.42.26,1.17.66,1.51a3.61,3.61,0,0,0,.32,1.38l0,0A5.14,5.14,0,0,0,67,79.12c-.22.22-.11.44-.13.69.21.33.37,1.07.62,1.59-.11.12.17.45,0,.52a14.78,14.78,0,0,1,1.22,5.13v0c.15.19.43.39.62.58,0,0,0,0,0,0,.11.29,0,.62.12.91,0,0,0,0-.07,0,.15.26,0,.61.24.91l0,0,.12.2c-.06,0-.15,0-.16-.09.63,2.61,1.91,5.15,2.71,7.76l-.08-.08.26.47s0,0-.07,0A12.74,12.74,0,0,0,73,99.57s-.12-.07-.12,0c.33.41.1.82.52.93a.09.09,0,0,1-.12,0,18.59,18.59,0,0,0,1.08,1.8,10.16,10.16,0,0,0,1.83,2l0-.28c-.09-1.06-.11-1.68-.24-2.48a5.63,5.63,0,0,0-.54-1.76h.07a43.78,43.78,0,0,1-1.47-4.54c-.17-.63-.38-1-.58-1.67l.07,0c-.62-1-.42-2.32-1.07-3.35l.12,0c-.21-.14-.14-.7-.4-.56l0-.22c-.58-.67-.24-1.43-.74-2.3l.08,0a1.72,1.72,0,0,1-.23-.72s0,0,.06.06a8.7,8.7,0,0,0-.71-2.46l.15.06a11.58,11.58,0,0,1-.53-1.63l.07,0-.15-.24.11,0C70.17,81.62,69.9,81,69.71,80.34Z"/><path class="cls-3" d="M67.84,73.47h0S67.85,73.49,67.84,73.47Z"/><path class="cls-3" d="M63,66.93v-.09S63,66.9,63,66.93Z"/></g></g></g></svg>