<?xml version="1.0" encoding="utf-8"?>
<!-- Generator: Adobe Illustrator 25.4.1, SVG Export Plug-In . SVG Version: 6.00 Build 0)  -->
<svg version="1.1" id="レイヤー_1" xmlns="http://www.w3.org/2000/svg" xmlns:xlink="http://www.w3.org/1999/xlink" x="0px"
	 y="0px" viewBox="0 0 431.7 391.7" style="enable-background:new 0 0 431.7 391.7;" xml:space="preserve">
<style type="text/css">
	.st0{fill:#374149;stroke:#374149;stroke-width:3;stroke-miterlimit:10;}
</style>
<g id="Layer_2">
	<g id="car_accident_collision_crash_damage_traffic_vehicle_broken_injury_repair">
		<path class="st0" d="M349.9,328.5l-14.9,8.6c-2.6,1.5-3.4,4.8-2,7.3c1.5,2.6,4.8,3.4,7.3,2l0,0l14.9-8.6c2.6-1.5,3.4-4.8,2-7.3
			C355.7,327.8,352.4,327,349.9,328.5z"/>
		<path class="st0" d="M301.5,333.5c-16.1,0-29.1,13-29.1,29.1c0,16.1,13,29.1,29.1,29.1c16.1,0,29.1-13,29.1-29.1c0,0,0,0,0,0
			C330.5,346.6,317.5,333.6,301.5,333.5z M301.5,381c-10.1,0-18.4-8.2-18.4-18.4s8.2-18.4,18.4-18.4c10.1,0,18.4,8.2,18.4,18.4l0,0
			C319.8,372.8,311.6,381,301.5,381L301.5,381z"/>
		<path class="st0" d="M96.8,337.1l-14.9-8.6c-2.6-1.5-5.8-0.6-7.3,2c-1.5,2.6-0.6,5.8,2,7.3l0,0l14.9,8.6c2.6,1.5,5.8,0.6,7.3-2
			C100.2,341.9,99.3,338.6,96.8,337.1z"/>
		<path class="st0" d="M130.2,333.5c-16.1,0-29.1,13-29.1,29.1c0,16.1,13,29.1,29.1,29.1c16.1,0,29.1-13,29.1-29.1c0,0,0,0,0,0
			C159.3,346.6,146.3,333.6,130.2,333.5z M130.2,381c-10.1,0-18.4-8.2-18.4-18.4s8.2-18.4,18.4-18.4c10.1,0,18.4,8.2,18.4,18.4
			C148.6,372.8,140.4,381,130.2,381L130.2,381z"/>
		<path class="st0" d="M242.1,238.3c0.7,2.9,3.5,4.7,6.4,4c0.8-0.2,1.6-0.6,2.2-1.1l44.1-36.6l-2.5,17.9c-0.4,2.9,1.6,5.6,4.6,6.1
			c2.9,0.4,5.6-1.6,6.1-4.6l4.3-31.5c0.4-2.9-1.6-5.6-4.6-6c-1.5-0.2-3,0.2-4.2,1.2l-48.1,39.9l-8.4-36.5c-0.7-2.9-3.6-4.6-6.5-3.9
			c-1.5,0.4-2.8,1.4-3.5,2.8l-17.4,35.9l-56.2-68c-1.9-2.3-5.3-2.6-7.5-0.7c-1.4,1.2-2.1,3-1.9,4.8l9.1,73.2l-4.8,0.5
			c-2.9,0.3-5.1,3-4.8,5.9c0.3,2.7,2.6,4.8,5.3,4.8c0.2,0,0.4,0,0.6,0l10.2-1.1c2.9-0.3,5.1-3,4.7-5.9c0,0,0-0.1,0-0.1l-7.5-60.3
			l49.8,60.2c1.9,2.3,5.3,2.6,7.5,0.7c0.6-0.5,1.1-1.1,1.4-1.8l14.4-29.7L242.1,238.3z"/>
		<path class="st0" d="M342.1,224.1c-6.5,0.6-12.8,2.6-18.4,5.9l-31.7,18.6c-9.1,5.3-15.3,14.4-17,24.7l-2.4,14.7
			c-1,6.3-4.5,12-9.7,15.8l-21.3,15.7c-9.7,7.1-15.2,18.6-14.6,30.6c0.5,11.4,3.4,21.5,8.4,30c4.3,7.2,12.1,11.6,20.5,11.5
			c4.2,0,8.2-1.1,11.8-3.2c2.6-1.5,3.4-4.8,2-7.3c-1.5-2.6-4.8-3.4-7.3-2c-6.2,3.5-14.1,1.5-17.8-4.6c-4.2-6.9-6.5-15.3-6.9-24.9
			c-0.4-8.4,3.5-16.5,10.3-21.5l21.3-15.7c7.4-5.4,12.4-13.6,13.9-22.7l2.4-14.6c1.2-7.2,5.5-13.5,11.9-17.2l31.7-18.6
			c4.3-2.5,9.1-4,14-4.5c36.6-3.4,61.2,18.4,75.3,37.2c3.2,4.2,3.5,9.9,0.8,14.5c-1.4,2.6-0.5,5.9,2.1,7.3c2.5,1.4,5.6,0.6,7.1-1.8
			c4.9-8.3,4.4-18.7-1.4-26.4C414,248.3,385.8,220,342.1,224.1z"/>
		<path class="st0" d="M388,283.8c-16.1,0-29.1,13-29.1,29.1c0,16.1,13,29.1,29.1,29.1c16.1,0,29.1-13,29.1-29.1
			C417.1,296.8,404.1,283.8,388,283.8z M388,331.3c-10.1,0-18.4-8.2-18.4-18.4s8.2-18.4,18.4-18.4c10.1,0,18.4,8.2,18.4,18.4
			C406.4,323.1,398.1,331.3,388,331.3z"/>
		<path class="st0" d="M190.2,318.5l-21.3-15.7c-5.2-3.8-8.7-9.5-9.7-15.8l-2.4-14.6c-1.7-10.4-7.9-19.4-17-24.7L108.1,229
			c-5.6-3.3-11.9-5.3-18.4-5.9c-43.8-4.1-72,24.2-84.9,41.5c-5.8,7.7-6.3,18.1-1.4,26.4c1.4,2.6,4.7,3.5,7.3,2.1
			c2.6-1.4,3.5-4.7,2.1-7.3c-0.1-0.1-0.1-0.2-0.2-0.3c-2.7-4.5-2.4-10.2,0.8-14.4c14.1-18.9,38.7-40.6,75.3-37.2
			c4.9,0.5,9.7,2,14,4.5l31.7,18.6c6.3,3.7,10.7,10,11.9,17.2l2.4,14.6c1.5,9.1,6.5,17.2,13.9,22.7l21.3,15.7
			c6.8,5,10.7,13,10.3,21.5c-0.4,9.6-2.8,18-6.9,24.9c-3.7,6.1-11.6,8.1-17.8,4.6c-2.6-1.5-5.8-0.6-7.3,2c-1.5,2.6-0.6,5.8,2,7.3
			c3.6,2.1,7.7,3.2,11.8,3.2c8.4,0,16.2-4.4,20.5-11.5c5.1-8.5,7.9-18.6,8.4-30C205.4,337.1,199.9,325.6,190.2,318.5z"/>
		<path class="st0" d="M43.7,283.8c-16.1,0-29.1,13-29.1,29.1c0,16.1,13,29.1,29.1,29.1s29.1-13,29.1-29.1
			C72.8,296.9,59.8,283.8,43.7,283.8z M43.7,331.3c-10.1,0-18.4-8.2-18.4-18.4c0-10.1,8.2-18.4,18.4-18.4s18.4,8.2,18.4,18.4l0,0
			C62.1,323,53.8,331.3,43.7,331.3z"/>
		<path class="st0" d="M107.9,189.2c-2.6,1.3-3.7,4.5-2.4,7.2c0,0,0,0,0,0l3,6c1.3,2.6,4.5,3.7,7.2,2.4c2.6-1.3,3.7-4.5,2.4-7.2l0,0
			l-3-6C113.8,189,110.6,187.9,107.9,189.2C107.9,189.2,107.9,189.2,107.9,189.2z"/>
		<path class="st0" d="M351.7,197.5l5-6c1.9-2.3,1.6-5.7-0.7-7.6c-2.3-1.9-5.7-1.6-7.6,0.7l0,0l-5,6c-1.9,2.3-1.6,5.7,0.7,7.6
			C346.4,200.1,349.8,199.8,351.7,197.5L351.7,197.5z"/>
		<path class="st0" d="M244.4,7.4c-8-9.1-21.8-10-30.8-2c-5.5,4.8-8.2,12.1-7.3,19.3l10.1,75.7c0.9,6.4,6.7,10.8,13.1,10
			c5.2-0.7,9.3-4.8,10-10l10.1-75.7C250.5,18.5,248.6,12.2,244.4,7.4z M239,23.3L228.9,99c-0.1,0.3-0.1,0.8-0.9,0.8
			s-0.9-0.5-0.9-0.8L217,23.3c-0.9-6.1,3.3-11.7,9.4-12.6c6.1-0.9,11.7,3.3,12.6,9.4C239.2,21.1,239.2,22.2,239,23.3z"/>
		<path class="st0" d="M209.2,137.3c0,10.4,8.4,18.8,18.8,18.8s18.8-8.4,18.8-18.8c0-10.4-8.4-18.8-18.8-18.8c0,0,0,0,0,0
			C217.6,118.5,209.2,126.9,209.2,137.3z M236.1,137.3c0,4.5-3.6,8.1-8.1,8.1c-4.5,0-8.1-3.6-8.1-8.1c0-4.5,3.6-8.1,8.1-8.1
			c0,0,0,0,0,0C232.5,129.2,236.1,132.8,236.1,137.3z"/>
	</g>
</g>
</svg>
