<?xml version="1.0" encoding="utf-8"?>
<!-- Generator: Adobe Illustrator 25.4.1, SVG Export Plug-In . SVG Version: 6.00 Build 0)  -->
<svg version="1.1" id="_x31_0" xmlns="http://www.w3.org/2000/svg" xmlns:xlink="http://www.w3.org/1999/xlink" x="0px" y="0px"
	 viewBox="0 0 512 512" style="enable-background:new 0 0 512 512;" xml:space="preserve">
<style type="text/css">
	.st0{fill:none;stroke:#374149;stroke-width:13;stroke-miterlimit:10;}
	.st1{fill:#374149;}
</style>
<g>
	<path class="st0" d="M223.8,338c19.2-9.3,36.5-22.3,50.1-39c25.9-32,34.4-75.5,20.4-114.5c-12.8-36-40-61.5-72.8-76.3
		c-0.9-0.4-1.8-0.8-2.7-1.2c-2.6-1.1-5.3-2.2-8-3.2c-0.5-0.2-1.1-0.4-1.6-0.6c-3.3-1.2-6.6-2.2-10-3.2c-0.6-0.2-1.3-0.3-1.9-0.5
		C156.6,88.3,111,91.8,74,110.8C31.5,132.6,0,174.7,0,223.6c0,45.7,27.4,87.7,71.2,111.3l3.4,24.5c3.4,23.9,32.3,35.7,51.4,20.8
		l33.2-25.9C181.5,353.2,203.7,347.7,223.8,338C223.8,338,223.8,338,223.8,338z M232.2,295.3c-3.6,2.8-7.3,5.5-11.2,7.9
		c-0.6,0.4-1.3,0.7-2,1.1c-3.7,2.2-7.6,4.3-11.5,6.1c-0.5,0.2-1,0.4-1.5,0.6c-4.2,1.9-8.6,3.6-13,5c-0.1,0-0.3,0.1-0.4,0.1
		c-14.5,4.6-29.7,6.7-44.7,6.5l-27.9,21.8l-13.8,10.7c-2-13.9-3.9-27.7-5.9-41.6c-28.1-10.9-53-32.3-63.4-61.1
		c-0.8-2.2-1.2-3.4-1.4-3.8c0.3,0.7,1.4,3.9,1.4,3.8c-12.7-35.3,0.4-73,28.1-97c28.3-24.6,67.8-34,104.6-29
		c34.7,4.7,68.9,23.1,87.1,53.8c17.1,28.9,15.7,64.8-3.2,92.5c-5.8,8.5-12.7,15.8-20.5,22.1C232.9,294.8,232.5,295,232.2,295.3z"/>
	<path class="st0" d="M467.6,171.3c-27-22.5-62.6-35-100.2-35c-23,0-45.3,4.7-65.3,13.6c-1,0.4-2,0.8-3,1.3c0,0,0,0,0,0
		c0,0-0.1,0-0.1,0.1c5.5,8.7,9.9,18,13.2,27.5c0,0.1,0,0.1,0.1,0.2l0,0c0,0.1,0,0.1,0.1,0.1c16.3-7.7,35.1-11.9,55-11.9
		c62.9,0,113.8,42.5,113.8,94.9c0,9.5-1.7,18.7-4.8,27.3c0,0.2-0.1,0.4-0.2,0.5c-0.7,1.9-1.5,3.8-2.4,5.7c-0.4,0.8-0.8,1.6-1.2,2.5
		c-0.6,1.2-1.2,2.4-1.8,3.6c-0.6,1-1.2,2-1.7,3c-0.6,1-1.2,2-1.8,3c-0.6,0.9-1.2,1.7-1.9,2.6c-0.8,1-1.5,2.1-2.3,3.2
		c-0.5,0.6-1,1.2-1.5,1.8c-1,1.3-2.1,2.6-3.2,3.8c-0.2,0.2-0.5,0.4-0.7,0.7c-11.1,12.1-25.6,21.9-42.3,28.4l-3.7,26.7l-1.3,9
		l-0.7,4.3L370,356.9c-0.8,0-1.6,0.1-2.5,0.1c-35.8,0-67.8-13.9-88.5-35.5c-3.8,3.9-7.8,7.6-12,11.1c-3.6,3-7.4,5.8-11.2,8.5
		c-0.1,0.1-0.2,0.1-0.3,0.2c0,0,0,0,0,0c0,0-0.1,0.1-0.1,0.1c3.7,4,7.7,7.8,12,11.3c25,20.8,57.3,33,91.8,34.7l31.9,24.9
		c5.5,4.3,12.2,6.5,19,6.5c3.9,0,7.8-0.8,11.5-2.3c10.2-4.1,17.4-13.4,18.9-24.2l3.3-23.5c42.1-22.7,68.3-63,68.3-106.8
		C512,227.4,496.2,195.2,467.6,171.3z"/>
	<path class="st1" d="M342.5,305.9l7.5-20h34.9l7.5,20h20l-37.4-92.7h-15.2l-27.2,67.3l-10.2,25.2h0.1l-0.1,0.2L342.5,305.9
		L342.5,305.9z M379.5,271.4h-17.7l-6.2-0.1l12-31l8.9,22.8L379.5,271.4z"/>
	<path class="st1" d="M181.3,257.4c1.6-2.2,2.8-4.5,3.6-7c0.9-2.4,1.5-5,1.9-7.9c0.4-2.8,0.6-5.9,0.7-9.2c0.1-3.3,0.1-7,0.1-11
		c0-4.7-0.1-9-0.2-12.8c-0.1-1.4-0.3-2.6-0.5-3.9c-0.1-1-0.2-2.1-0.4-3c-0.2-1.2-0.2-2.5-0.4-3.6c-0.7-3.2-1.7-6.1-3.1-8.8
		c-1.4-2.7-3.4-5.3-6.1-7.8c-3.5-3.3-7.5-5.9-12-7.7c-4.5-1.8-9.7-2.7-15.8-2.7c-6,0-11.3,0.9-15.8,2.7c-4.5,1.8-8.5,4.4-12.1,7.7
		c-2.6,2.5-4.6,5.1-6.1,7.8c-1.4,2.7-2.4,5.6-3.1,8.8c-0.2,1.2-0.3,2.6-0.4,3.9c-0.1,0.8-0.2,1.5-0.3,2.4c-0.1,1.4-0.4,2.7-0.5,4.2
		c-0.1,3.8-0.2,8.1-0.2,12.8c0,4.7,0.1,9,0.2,12.8c0.1,3.8,0.5,7.3,1.2,10.5c0.6,3.2,1.7,6.1,3.1,8.8c1.4,2.7,3.4,5.3,6.1,7.8
		c3.6,3.3,7.6,5.9,12.1,7.7c4.5,1.8,9.7,2.7,15.8,2.7c4.2,0,8-0.5,11.5-1.4c3.5-0.9,6.6-2.2,9.4-3.9l9.3,8.6l10-9.6l0.5-0.5l0,0
		l0.1-0.1L181.3,257.4z M167,234.5c-0.2,2.6-0.6,4.7-1.2,6.6c-0.1,0.4-0.2,0.8-0.4,1.2l-7.8-7.5l-10.1,9.7l-0.5,0.5l0,0l-0.1,0.1
		l7.2,6.8l1.8,1.7c-1.9,1.2-4.2,1.8-6.7,1.8c-2.8,0-5.3-0.5-7.5-1.5c-2.2-1-4.1-2.3-5.6-3.9c-1-1-1.8-2.2-2.4-3.4
		c-0.6-1.3-1.1-2.9-1.5-4.9c-0.4-2-0.7-4.5-0.8-7.7c-0.1-3.1-0.2-7-0.2-11.8c0-4.7,0.1-8.6,0.2-11.8c0.1-3.1,0.4-5.7,0.8-7.7
		s0.9-3.7,1.5-4.9c0.6-1.3,1.4-2.4,2.4-3.4c1.6-1.6,3.4-2.8,5.6-3.8c2.2-1,4.7-1.5,7.5-1.5c2.8,0,5.3,0.5,7.5,1.5
		c2.2,1,4,2.2,5.5,3.8c1,1,1.8,2.2,2.4,3.4c0.6,1.2,1.1,2.9,1.5,4.9c0.4,2,0.7,4.6,0.9,7.7c0.2,3.1,0.3,7,0.3,11.8
		C167.4,227.4,167.3,231.4,167,234.5z"/>
</g>
</svg>
