<?xml version="1.0" encoding="utf-8"?>
<!-- Generator: Adobe Illustrator 25.4.1, SVG Export Plug-In . SVG Version: 6.00 Build 0)  -->
<svg version="1.1" id="Layer_1" xmlns="http://www.w3.org/2000/svg" xmlns:xlink="http://www.w3.org/1999/xlink" x="0px" y="0px"
	 viewBox="0 0 512 512" style="enable-background:new 0 0 512 512;" xml:space="preserve">
<style type="text/css">
	.st0{fill:#374149;stroke:#374149;stroke-width:3;stroke-miterlimit:10;}
	.st1{fill:#374149;}
</style>
<path class="st0" d="M387,45.5H125c-2.8,0-5.1,2.3-5.1,5.1v404.7c0,2.8,2.3,5.1,5.1,5.1H387c2.8,0,5.1-2.3,5.1-5.1V50.6
	C392.1,47.8,389.8,45.5,387,45.5z M150.7,450.2V76.3h210.6v373.9H150.7z M381.8,450.2h-10.3v-379c0-2.8-2.3-5.1-5.1-5.1H145.6
	c-2.8,0-5.1,2.3-5.1,5.1v379h-10.3V55.8h251.7V450.2z"/>
<path class="st1" d="M333.9,221.3c-7.9,0-14.2,6.4-14.2,14.3v34.8c-0.2,7.9,6,14.5,13.9,14.7c7.9,0.2,14.5-6,14.7-13.9
	c0-0.3,0-0.5,0-0.8v-34.8C348.2,227.7,341.8,221.3,333.9,221.3C333.9,221.3,333.9,221.3,333.9,221.3z M339.8,270.4
	c0,3.3-2.6,5.9-5.9,5.9c-3.3,0-5.9-2.6-5.9-5.9c0,0,0,0,0,0v-34.8c0-3.3,2.6-5.9,5.9-5.9c3.3,0,5.9,2.6,5.9,5.9c0,0,0,0,0,0V270.4z"
	/>
</svg>
