<?xml version="1.0" encoding="utf-8"?>
<!-- Generator: Adobe Illustrator 25.4.1, SVG Export Plug-In . SVG Version: 6.00 Build 0)  -->
<svg version="1.1" id="_x31_0" xmlns="http://www.w3.org/2000/svg" xmlns:xlink="http://www.w3.org/1999/xlink" x="0px" y="0px"
	 viewBox="0 0 512 512" style="enable-background:new 0 0 512 512;" xml:space="preserve">
<style type="text/css">
	.st0{fill:none;stroke:#374149;stroke-width:13;stroke-miterlimit:10;}
</style>
<g>
	<path class="st0" d="M256,318.4c0,0,115.4-77.7,115.4-178.2c0-63.6-51.8-115.4-115.4-115.4c-63.6,0-115.4,51.8-115.4,115.4
		C140.5,240.7,256,318.4,256,318.4z M256,93.7c25.7,0,46.6,20.8,46.6,46.6c0,25.7-20.9,46.6-46.6,46.6c-25.7,0-46.6-20.8-46.6-46.6
		C209.4,114.5,230.3,93.7,256,93.7z"/>
	<path class="st0" d="M470,130L470,130l-0.1-0.1l-76.3,39.3c-1.7,9.4-4.2,18.6-7.3,27.4c-0.8,2.2-1.6,4.4-2.5,6.6l0.1-0.1
		c0,0.1,0,0.1-0.1,0.2l39.5-20.4l17.8-9.1V397L370,433.7l-33.1,17v-98.3l0.1-73.9c0,0-0.1,0.1-0.1,0.1v-0.2
		c-9.8,11.3-19.7,21.2-28.8,29.7v98l-0.1,44.7L203.8,397v-89c-7.7-7.1-16-15.4-24.3-24.6c-1.5-1.7-3-3.4-4.4-5.1v0.2
		c0-0.1-0.1-0.1-0.1-0.2V397l-71.2,36.7l-33,16.9V227.4l55.6-28.7c-2.7-7.3-4.9-14.9-6.6-22.6c-0.2-0.8-0.4-1.7-0.6-2.5l0,0
		c0,0,0-0.1,0-0.1l-62.7,32.3L42,213.2v266.5l14.4,7.4l14.4-7.4l118.6-61.1l118.7,61.1l14.4,7.4l14.4-7.4l133-68.5V217.7L470,130z"
		/>
</g>
</svg>
