<svg xmlns="http://www.w3.org/2000/svg" viewBox="0 0 116 43"><defs><style>.cls-1{fill:#e6e6e6;stroke:#4d4d4d;stroke-miterlimit:10;}.cls-2{fill:#4d4d4d;}</style></defs><g id="レイヤー_2" data-name="レイヤー 2"><g id="レイヤー_1-2" data-name="レイヤー 1"><path class="cls-1" d="M105.5,32.5H93.44A3.31,3.31,0,0,0,93.5,32v-6.9A3.55,3.55,0,0,0,90,21.5H86.5l-.08-.08c-7.2-.7-12.81-6.12-12.91-12.74L66.05,1.32A45,45,0,0,0,50.17,1.1L42.49,8.68c-.1,6.62-5.71,12-12.91,12.74l-.08.08H27.05a3.55,3.55,0,0,0-3.55,3.55V32a3.31,3.31,0,0,0,.06.55H10.5a10,10,0,0,0-10,10h115A10,10,0,0,0,105.5,32.5Zm-47-27c2.21,0,4,1.34,4,3s-1.79,3-4,3-4-1.34-4-3S56.29,5.5,58.5,5.5Z"/><path class="cls-2" d="M105.68,40.5H10.52c-5.54,0-10,1-10,2.35H115.69C115.69,41.55,111.21,40.5,105.68,40.5Z"/><path class="cls-2" d="M29.35,25.14a1.66,1.66,0,1,0-1.65,1.48h.18l1.47-1.45Z"/><path class="cls-2" d="M89.18,23.88a1.58,1.58,0,0,0-1.65,1.49v0L89,26.84h.18a1.49,1.49,0,1,0,0-3Z"/></g></g></svg>