<?xml version="1.0" encoding="utf-8"?>
<!-- Generator: Adobe Illustrator 25.4.1, SVG Export Plug-In . SVG Version: 6.00 Build 0)  -->
<svg version="1.1" id="_x31_0" xmlns="http://www.w3.org/2000/svg" xmlns:xlink="http://www.w3.org/1999/xlink" x="0px" y="0px"
	 viewBox="0 0 512 512" style="enable-background:new 0 0 512 512;" xml:space="preserve">
<style type="text/css">
	.st0{fill:#4B4B4B;stroke:#374149;stroke-width:3;stroke-miterlimit:10;}
</style>
<g>
	<path class="st0" d="M431.7,55.2L431.7,55.2c-5.8-5.9-14-9.3-22.3-9.3c-8.5,0-16.4,3.4-22.3,9.3L86.2,356l-4.1,4.1l-2.2,2.2l-1,1
		l-1,2.5l-0.5,1.2v0.1l-21,53.1l-9.6,24.3c-0.7,1.9-1.1,3.9-1.1,5.8c0,4.1,1.7,8.2,4.7,11.3c3.1,3,7.2,4.7,11.3,4.6
		c2,0.1,3.9-0.3,5.8-1h0.1l24.3-9.6l55.1-21.7l0.4-0.2l1.5-0.5l3-3l2-2.1l303-303c6.1-6.2,9.2-14.3,9.2-22.3c0-8-3.1-16.2-9.2-22.4
		L431.7,55.2z M447.2,115.3l-17.5,17.5l-50.4-50.4l17.5-17.5c0.6-0.6,1.2-1.1,1.9-1.6c0.3-0.2,0.6-0.5,0.8-0.7
		c0.2-0.1,0.4-0.1,0.6-0.3c1.9-1.1,3.8-1.9,5.9-2.3c0.2-0.1,0.4-0.1,0.6-0.1c1-0.1,1.9-0.3,2.7-0.3c0.6,0,1.1,0.1,1.7,0.1
		c0.6,0.1,1.2,0.1,1.8,0.2c0.8,0.1,1.6,0.4,2.3,0.7c0.3,0.1,0.7,0.2,1,0.3c0.4,0.2,0.8,0.5,1.2,0.6c1.7,0.9,3.3,1.9,4.7,3.3v0.1
		L447.2,90c3.5,3.6,5.2,8.1,5.2,12.7C452.4,107.3,450.7,111.9,447.2,115.3z M65.6,436.1c2.5,0,4.6,1.4,5.7,3.4l-8.9,8.9
		c-2-1.1-3.4-3.2-3.4-5.7C59,439.1,61.9,436.1,65.6,436.1z M115.9,396.2l2.6,1l15.1,6.5l6.4,15.1l1,2.4l0,0.1l-1.1,0.3l-0.1,0.2
		l-44.3,17.5l-8.7,3.4l-17.5-17.5l2.7-6.9L90.7,371v-0.1l2.5,1.1l15.1,6.5l6.5,15.1L115.9,396.2z M146.4,416.1l-1.6-3.9l-5.9-13.8
		l-17.7-7.5l-7.5-17.7l-14-6l-2.8-1.2l-0.9-0.4L374.4,87.2l50.5,50.5L221.7,340.9L146.4,416.1z"/>
</g>
</svg>
