<?xml version="1.0" encoding="utf-8"?>
<!-- Generator: Adobe Illustrator 25.4.1, SVG Export Plug-In . SVG Version: 6.00 Build 0)  -->
<svg version="1.1" id="_x32_" xmlns="http://www.w3.org/2000/svg" xmlns:xlink="http://www.w3.org/1999/xlink" x="0px" y="0px"
	 viewBox="0 0 512 512" style="enable-background:new 0 0 512 512;" xml:space="preserve">
<style type="text/css">
	.st0{fill:none;stroke:#374149;stroke-width:13;stroke-miterlimit:10;}
</style>
<g>
	<path class="st0" d="M65.1,105c25.3,0,45.9-20.6,45.9-45.9c0-25.3-20.6-45.9-45.9-45.9c-25.3,0-45.9,20.6-45.9,45.9
		C19.2,84.4,39.7,105,65.1,105z"/>
	<path class="st0" d="M299,88.5l-105-7.9c-56.4-0.4-108.1,26.4-121.1,65v0L26.7,285.9c-3,9.4,2.3,19.4,11.7,22.4
		c9.4,3,19.4-2.3,22.4-11.7l56-116.8c4.4-5.2,8.3-3.2,9.7-1.9c8.4,7.7,25.5,35.7,28.7,50.3c2.5,11.5-3.1,28.2-9.7,40.8l-41.3,70.1
		c-3.5,5.9-6.4,12.1-6.2,17.7l7.6,121.2c0,11.6,9.4,21,21,21c11.6,0,21-9.4,21-21l7.2-111l52.7-71.4c0.4-0.7,2.8-2.1,1.6,1.7
		c0,0.1-9.5,39.7-9.5,39.7c-1.6,5.2-1.5,8.8-1.4,13l8.9,121.1c0.1,11.6,9.6,20.9,21.2,20.7c11.6-0.1,20.9-9.6,20.7-21.2l6.1-115
		l26.5-74.5c15.3-40.3-25.7-125.7-49-147.4h43.5l2.4,73.8c-0.7,8.9,6,16.6,14.9,17.2c8.9,0.7,16.6-6,17.2-14.9
		c0,0,8.8-97.3,8.9-97.8C320.1,99.9,311.1,89.4,299,88.5z"/>
	<polygon class="st0" points="389.3,146.8 432.5,94.5 416.5,84.9 366.2,150.5 381.3,158.5 338.1,209.2 350.2,215.5 405.2,156.2 	"/>
	<polygon class="st0" points="492.8,201.1 484.2,184.5 407.1,214.4 415.8,229.1 352.6,250 359.7,261.6 437.5,239.5 428.7,223.2 	"/>
</g>
</svg>
