<?xml version="1.0" encoding="utf-8"?>
<!-- Generator: Adobe Illustrator 25.4.1, SVG Export Plug-In . SVG Version: 6.00 Build 0)  -->
<svg version="1.1" id="Layer_1" xmlns="http://www.w3.org/2000/svg" xmlns:xlink="http://www.w3.org/1999/xlink" x="0px" y="0px"
	 viewBox="0 0 41.2 38.7" style="enable-background:new 0 0 41.2 38.7;" xml:space="preserve">
<style type="text/css">
	.st0{fill:#374149;}
</style>
<g>
	<g>
		<path class="st0" d="M34.5,36.1c-1.6,0-3.9-0.3-7.6-0.8c-0.6-0.1-1.1-0.6-1.3-1.1l-1-3.9c0,0-0.1-0.1-0.1-0.1L5,31
			c-0.6,0-1.2-0.4-1.3-1.1l-0.7-3.8c-0.1-0.3,0-0.7,0.2-0.9c0.2-0.3,0.5-0.4,0.9-0.4l22.3-1c0.6,0,1.2,0.4,1.4,1l1,3l0.6-2.7
			c0.1-0.5,0.5-1,1-1.2c0.5-0.3,1.2-0.6,1.9-0.7l0.1,0c1.3-0.1,3-0.3,3.8,0.6c0.9,0.9,1.5,3,1,4.3c-0.5,1.3-2.2,2.4-3.5,2.6
			c-0.9,0.2-1.9-0.2-2.8-0.6c-0.3-0.2-0.7-0.3-1-0.4c0,0-0.1,0-0.1-0.1l-0.3,1.1c-0.1,0.2,0,0.5,0,0.6c0.2,0.3,0.9,0.3,1.6,0.3
			c0.3,0,0.5,0,0.8,0c0.5,0,1,0,1.6,0c1.6-0.1,3.3-0.2,4.8,1.2c0.4,0.4,0.5,1.2,0.1,1.7C37.3,35.6,36.5,36.1,34.5,36.1z M24.6,28.9
			c0.6,0,1.2,0.4,1.3,1l1,3.9c0,0.1,0.1,0.2,0.2,0.2c8.5,1.2,8.9,1.1,10.1-0.5c0,0,0-0.1,0-0.1c-1-1-2.3-0.9-3.8-0.8
			c-0.6,0-1.2,0.1-1.8,0c-0.2,0-0.5,0-0.7,0c-1,0-2,0-2.6-0.8c-0.4-0.6-0.2-1.5-0.2-1.6l0.1-0.5c-0.1-0.1-0.3-0.2-0.3-0.4l-1.5-4.2
			c0,0-0.1-0.1-0.1-0.1L4.2,26l0.7,3.6L24.6,28.9C24.5,28.9,24.6,28.9,24.6,28.9z M30,28.2c0.1,0,0.1,0,0.2,0
			c0.4,0.1,0.8,0.3,1.1,0.5c0.7,0.3,1.5,0.6,2,0.5c1-0.2,2.3-1.1,2.6-1.8c0.3-0.7-0.1-2.2-0.7-2.9c-0.3-0.4-1.9-0.2-2.7-0.1l-0.1,0
			c-0.5,0-0.9,0.3-1.4,0.5c-0.2,0.1-0.3,0.3-0.4,0.4L30,28.2C29.9,28.2,30,28.2,30,28.2z"/>
	</g>
	<g>
		<path class="st0" d="M8,25.2c0,0-0.1,0-0.1,0c-0.3-0.1-0.6-0.4-0.5-0.8c0.2-1,0.4-1.9,0.6-2.9c0.5-2.3,1-4.6,1.3-6.9
			c0.3-2.5,1.9-2.9,3.3-2.9c1.8,0,3.6,0,5.5,0l2.1,0c0.6,0,1.2,0.4,1.4,1l3.1,8.8c0.2,0.5,0,1.2-0.4,1.6c-0.5,0.4-1.2,0.5-1.7,0.3
			l-0.4-0.2c-0.8-0.3-1.5-0.7-2.2-1.2c-0.6-0.5-0.8-1.3-1.1-2c-0.1-0.3-0.2-0.5-0.3-0.8c-0.1-0.3,0-0.7,0.3-0.9
			c0.3-0.1,0.7,0,0.9,0.3c0.1,0.3,0.2,0.6,0.3,0.9c0.2,0.6,0.4,1.1,0.7,1.4c0.4,0.4,1.1,0.7,1.8,1l0.4,0.2c0.1,0,0.2,0,0.3,0
			c0.1-0.1,0.1-0.2,0.1-0.3l-3.1-8.8c0,0-0.1-0.1-0.2-0.1l-2.1,0c-1.8,0-3.7,0-5.5,0c-1.2,0-1.8,0.3-2,1.7c-0.3,2.4-0.8,4.7-1.3,7
			c-0.2,1-0.4,1.9-0.6,2.9C8.6,24.9,8.3,25.2,8,25.2z"/>
	</g>
	<g>
		<path class="st0" d="M15.1,34.4c0,0-0.1,0-0.2,0c-2.7,0-5.4-0.2-8.1-0.3c-1.2-0.1-2.3-0.1-3.5-0.2c-0.4,0-0.6-0.3-0.6-0.7
			c0-0.4,0.3-0.6,0.7-0.6c1.2,0.1,2.3,0.1,3.5,0.2c2.6,0.2,5.3,0.3,8,0.3c2,0,3.3-0.1,4.8-0.3c0.9-0.1,1.9-0.2,3.2-0.3
			c0.3,0,0.7,0.3,0.7,0.6c0,0.4-0.3,0.7-0.6,0.7c-1.2,0.1-2.2,0.2-3.1,0.3C18.4,34.2,17.1,34.4,15.1,34.4z"/>
	</g>
	<g>
		<path class="st0" d="M17.5,11.9c-0.2,0-0.4-0.1-0.5-0.2c-0.2-0.3-0.2-0.7,0.1-0.9c1.6-1.3,2.3-2.5,2.3-3.6c-0.1-1-1-2.1-2.7-3.2
			c-0.1,0-0.3-0.1-0.4,0C16.1,4,16,4,15.8,4.1C14.3,4.7,13.2,5.2,13,7c-0.2,1.9,0.8,2.6,2.6,3.7l-0.3,0.6l-0.3,0.6
			c-1.7-1-3.6-2.2-3.2-5c0.3-2.5,2.1-3.2,3.6-3.9c0.2-0.1,0.3-0.1,0.5-0.2c0.5-0.2,1.2-0.2,1.6,0.1c2.1,1.4,3.2,2.7,3.2,4.2
			c0.1,1.5-0.8,3-2.7,4.6C17.8,11.8,17.7,11.9,17.5,11.9z"/>
	</g>
	<g>
		<path class="st0" d="M16.4,25.2c-0.1,0-0.1,0-0.2,0c-0.3-0.1-0.5-0.5-0.4-0.8l2-6.1c0.1-0.3,0.5-0.5,0.8-0.4
			c0.3,0.1,0.5,0.5,0.4,0.8l-2,6.1C16.9,25,16.7,25.2,16.4,25.2z"/>
	</g>
</g>
</svg>
