<svg xmlns="http://www.w3.org/2000/svg" viewBox="0 0 115.99 125.18"><defs><style>.cls-1{fill:#231815;}.cls-2{fill:#dbdcdc;}.cls-3{fill:#c3975b;}.cls-4{fill:#816c2d;}.cls-5{fill:#fff;}.cls-6{fill:#a7a8a8;}.cls-7{isolation:isolate;}.cls-8{fill:#20526a;}</style></defs><g id="レイヤー_2" data-name="レイヤー 2"><g id="donguri-seikotsuin-color"><g id="icon"><g id="hand-left"><polygon class="cls-1" points="29.5 55.23 29.51 55.28 29.53 55.15 29.5 55.23"/><path class="cls-1" d="M29.62,54.93v-.1l-.07.4C29.58,55.45,29.6,54.78,29.62,54.93Z"/><path class="cls-1" d="M29.64,55c0,.1,0-.09.05-.15C29.68,55,29.64,54.77,29.64,55Z"/><path class="cls-1" d="M32,54.66h0S32,54.67,32,54.66Z"/><path class="cls-1" d="M32.47,53.93l0-.15c0,.28-.23,0-.32.18v-.05c-.3,0-.52.28-.8.44v-.08s0,.15,0,.14a.21.21,0,0,1,0-.08c-.09-.24-.17.17-.23,0a.47.47,0,0,0,0,.2,2.07,2.07,0,0,0-.71.36.62.62,0,0,1,0-.18c-.19.4-.42.25-.63.19,0,.11,0,.11,0,.22s.12-.26.19-.07v.1c.05.06,0-.25.06-.13a.27.27,0,0,1,0,.14c.1,0,.21,0,.29-.2,0,.21.11,0,.15.21,0-.09.05-.07.05-.21.35.08.68-.15,1-.19.1-.44.36,0,.53-.14v0c0-.11.12-.17.21-.14l0-.18c.51.26.9-.09,1.37-.08s1.07.08,1.34-.61a.25.25,0,0,1,0,.07c.1-.13.28,0,.37-.17v0c.18-.43.66-.25.79-.72a3.08,3.08,0,0,0,1-.68l0,.07c.19-.32.7-.09.9-.4.39,0,.31-.77.72-.77.42.21.11-.65.52-.44.71.26.78-.32.82-.87.44-.07.31-.76.89-.66-.08-.33.51,0,.59-.18l-.08-.07c.27.18-.2-.41.16-.12v0c.19.15-.34-.45-.12-.26l-.08-.09s.09.09.15.1-.15-.15-.08-.13c.35.33,0-.14.39.23,0,0,.17.12.22.23s.08,0-.09-.19a2.37,2.37,0,0,0-.47-.44l.12.13-.17-.14c-.05,0-.24-.15-.35-.2h0c.13.17,0,.11,0,.11l-.07-.07c-.16-.13.24.33,0,.07a.7.7,0,0,1-.2.33c.08.11-.08.06.12.22-.23-.18-.35-.17-.37-.14s0,0,0,0c-.32-.23.18.31-.19,0,.22.24-.16,0,.08.31l-.14-.14c-.09.07-.26.07-.34.13.13.27-.24,0,0,.38-.1,0-.28-.09-.24.09l0-.05c-.06.08-.13.17,0,.41a.81.81,0,0,0-.36-.26c.07.18-.06.22,0,.4-.13-.12,0,.11-.18-.08.1.54-.27.63-.73.49h0l.28.57a.14.14,0,0,1,0,0c0,.07-.2-.1-.21,0a.18.18,0,0,1-.05-.07c0,.12-.2-.1-.13.09l0,0,0,.1c-.05-.07-.13-.18-.09-.17-.41.19-.55.82-1,1l0-.08v.17a.2.2,0,0,1,0-.08c-.17-.06-.15.21-.27.23a.74.74,0,0,0-.08-.15c0,.25-.26-.19-.06.25a.53.53,0,0,1-.08-.15.75.75,0,0,1-.58.4c0,.48-.35.21-.38.61l0-.08c-.11.4-.5.22-.73.37s-.15.14-.25.19l0-.1c0,.46-.51-.21-.54.28l0-.14c.05.23-.14,0,0,.33l-.07-.1c0,.53-.31-.14-.37.22v-.09c0,.08-.06.15-.11.08a.56.56,0,0,1,0-.07c-.24-.31-.27.12-.42.15l0-.17c0,.21-.18.07-.25.18l0-.08v.12l0-.16C32.66,53.72,32.58,53.88,32.47,53.93Z"/><path class="cls-1" d="M31.29,54.33Z"/><path class="cls-1" d="M41.22,48h0S41.23,48,41.22,48Z"/></g><ellipse id="shadow" class="cls-2" cx="56.36" cy="75.53" rx="28.79" ry="3.54"/><g id="face"><path class="cls-3" d="M88.54,40.36a46.4,46.4,0,0,1-10,19.81,31,31,0,0,1-13,9.42c-5.17,1.8-11.25,1.65-16-1.18A20.76,20.76,0,0,1,41.66,59c-4.11-9.08-3.57-19.48-1.37-29.09.51-2.26,1.26-4.71,3.24-6a9.49,9.49,0,0,1,4.55-1.16,56.4,56.4,0,0,1,35,9.44c3.47,2.35,7,5.85,6.39,9.88l-1.69.62"/><polygon class="cls-1" points="88.12 43.52 88.21 43.55 88.34 43.35 88.12 43.52"/><path class="cls-1" d="M89.28,42.77c-.07,0-.06-.05-.13-.05-.22.22-.39.42-.59.64C89,43.44,88.91,42.75,89.28,42.77Z"/><path class="cls-1" d="M89.64,42.68c.24-.07.48-.08.43-.25a2,2,0,0,0-.11-.31.46.46,0,0,1,0,.22s0,.09,0,.12l-.13,0C89.67,42.56,89.53,42.62,89.64,42.68Z"/><path class="cls-1" d="M71.58,25.69l.09,0A.18.18,0,0,0,71.58,25.69Z"/><path class="cls-1" d="M64.92,24.32l-.1.12a23.38,23.38,0,0,1,3.88,1l-.1,0a80.07,80.07,0,0,1,9.19,3.49c-.05,0-.08,0-.14,0a1.8,1.8,0,0,1,.52.13c0,.05-.07,0-.13,0,.52.53,1.91.85,2.19,1.25.18.08.31,0,.25-.08a34.69,34.69,0,0,1,6.75,4.67c.06.13,0,.19-.06.22A7.88,7.88,0,0,1,89.45,38,8.05,8.05,0,0,1,90,39.79a7.79,7.79,0,0,1,.09,1,7.64,7.64,0,0,1-.05,1.1c.08.19.14-.35.21.06a2.83,2.83,0,0,0,0-1.37A4,4,0,0,1,90,39.45l.12.07c-.08-.55-.26-.05-.29-.62,0-.24.14,0,.11-.09A6.74,6.74,0,0,0,88.18,36c0-.35-.74-.92-.87-1.35-.27-.15-.45-.37-.63-.34a21.45,21.45,0,0,0-4.55-3.44c-1.61-1-3.3-1.88-5-2.75-1.79-.4-3.52-1.75-5.57-2.34,0,0,0,0,0,0A16.27,16.27,0,0,1,69.17,25c-.24,0-.48,0-.72,0a49.39,49.39,0,0,0-14.73-2.76c-1.43-.09-2.82-.11-4.19-.09a20.51,20.51,0,0,0-4.1.34,6,6,0,0,0-3.67,2.27,9.21,9.21,0,0,0-1.54,4s-.07,0,0-.13c-.33,1.6-.76,3-1,4.49h0c-.35,3.72-1.14,7.74-.71,11.36A34.73,34.73,0,0,0,41.2,58l-.08,0c1.54,3.33,3.15,6.72,6.12,9.09a12.68,12.68,0,0,0,5.14,2.78,30.29,30.29,0,0,0,5.76.92A9.37,9.37,0,0,0,62,70.46c1.32-.34,2.55-.8,3.67-1a15.94,15.94,0,0,0,6.18-2.88,27.43,27.43,0,0,0,4.86-4.77c3.09-2.9,5.08-6.66,7.4-10,.65-1.82,2.15-3.48,2.84-5.55l-.13,0c.58-.62.17-1.77.76-2.08v.09c.35-.33-.25-1.08.09-1.23l-.09-.1c.1-.48.14,0,.29-.37,0-.14-.19-.11-.05-.38.49.06.21-1.19.74-1.1-.07.27.3-.37.26.26.1-.16.27-1,0-1s-.35-.49-.65,0l.15.14c-.21.12-.12.11-.26.13-.18.63-.44.66-.67,1.08h0a1.45,1.45,0,0,1-.22,1l-.12.07c-.24.09.17.82-.11.53a28.15,28.15,0,0,1-1.38,4.09c0,.25-.45,1-.09.85a4.31,4.31,0,0,0-1.11,1.55s0,0,0-.1c-.69.54-.1,1-.86,1.44.24.27-.73,1.13-.61,1.68-.11,0-.18,0-.21,0-.69,1.15-1.58,2.32-2.24,3.23-.32,1-1.48,1.79-1.69,2.68a12.14,12.14,0,0,0-1.87,2l0-.11a20.41,20.41,0,0,0-2,2.46c-.49-.06-.79.3-1.22.51a21.64,21.64,0,0,1-2.39,2.22c-.24,0-.71.57-.9.38a13.72,13.72,0,0,1-4.28,2.54,15.29,15.29,0,0,1-5,.94l0,0c-.39.19-.84.57-1.27.77,0,0,0-.07,0-.07a17.14,17.14,0,0,1-1.76-.11s0,0,.1-.07c-.57.09-1.14-.25-1.8-.12l0-.07-.43,0c0-.08,0-.2.27-.14a18,18,0,0,1-7.19-2.45,16.88,16.88,0,0,1-5.45-5.6l.17.12c-.22-.26-.44-.53-.65-.81,0,0,.08,0,.12,0C42.8,60,42,58.91,41.56,57.7c0,0,.19.13.16-.05-.6-.79-.24-1.52-.86-1.81a.1.1,0,0,1,.17,0A25,25,0,0,1,39.31,48c-.67-2.18-.32-4.7-.54-7l.09,0c-.14-3,.62-6.18,1.18-9.24.31-1.26.37-2.15.72-3.4h.12a5.52,5.52,0,0,1,1.39-3,9.42,9.42,0,0,1,2.7-2l-.1.19c.26-.35,1.33-.26,1.12-.61l.42.05c1.49-.72,2.83,0,4.72-.38l-.12.1a4.36,4.36,0,0,1,1.47-.05c-.06,0,0,0-.15.06,1.57.38,3.34.08,5,.26l-.21.15a21.25,21.25,0,0,1,3.34.33l-.08.07.55,0v.17C62.3,23.89,63.6,24,64.92,24.32Z"/><path class="cls-1" d="M78,29.07v0S78,29.05,78,29.07Z"/><path class="cls-1" d="M87.38,41.9l.07-.15S87.4,41.85,87.38,41.9Z"/></g><g id="hat"><path class="cls-4" d="M74.84,10.92c.9-2.09.94-4.12,1.53-6.34C76.37,2.64,76,.93,74,.83h0A2.68,2.68,0,0,0,71.63,2.5L69.79,8.66a1.5,1.5,0,0,1-1.9,1.1,22.57,22.57,0,0,0-18.44,2.39A31.19,31.19,0,0,0,36.68,28.31a1.52,1.52,0,0,0,1.42,2c9,.07,18,.75,26.65,3.12A55.42,55.42,0,0,1,88.19,46.13a1.51,1.51,0,0,0,2.5-.75,35,35,0,0,0-1.23-20.89c-2.84-7.1-8-11-14.43-13.25"/><polygon class="cls-1" points="74.73 12.08 74.78 12.16 75.02 12.1 74.73 12.08"/><path class="cls-1" d="M76.06,12.25s0-.07,0-.11l-.86.1C75.42,12.57,75.9,12,76.06,12.25Z"/><path class="cls-1" d="M76.25,12.38a.42.42,0,0,0,.51,0C76.61,12.51,76.27,12.17,76.25,12.38Z"/><path class="cls-1" d="M90.9,32.25a.29.29,0,0,0,0-.09A.14.14,0,0,0,90.9,32.25Z"/><path class="cls-1" d="M91.74,39.13l.14.08c-.18-1.31.13-2.77-.07-4.15l.06.09a28.35,28.35,0,0,0-2.24-9.87s.08,0,.11.09a1.86,1.86,0,0,1-.31-.46c0-.05.08,0,.12.08,0-.78-1-1.91-1-2.39-.11-.17-.24-.2-.26-.07A18.52,18.52,0,0,0,83,16.31c-.08-.11,0-.17,0-.22-2-1.18-4-2.51-6.14-3.51-.12.06.18.19-.08.2.64.42,1.38.34,1.9.83l-.13.05c.41.29.21-.18.61.18.14.16-.11.08,0,.14.93.49,1.82,1.12,2.74,1.53.08.31.89.71,1,1.12.27.11.44.32.62.28a22.83,22.83,0,0,1,5.94,9.44c1,1.59,1,3.82,1.4,5.9h0a10.37,10.37,0,0,1,.34,2.52l.2.7A53.31,53.31,0,0,1,90.71,43c-.11.62-.23,1.24-.38,1.86a2,2,0,0,1-.25.75,1,1,0,0,1-.53.4,1.06,1.06,0,0,1-.66,0,1.6,1.6,0,0,1-.61-.44c-.48-.44-.94-.9-1.43-1.32a39.06,39.06,0,0,0-14.39-8.54s0-.07.13,0c-1.55-.56-2.92-1.22-4.42-1.63v0c-3.76-.88-7.74-2.2-11.48-2.42a90.21,90.21,0,0,0-14.32-1.2l0-.08q-1.44,0-2.85,0c-.91-.09-2,.15-2.5-.63a1.33,1.33,0,0,1-.2-1.17l.52-1.28c.37-.85.76-1.7,1.15-2.57,1.89-3.34,3.86-7.12,7-9.58,1.05-.66,2.08-1.6,3.19-2.46a9.36,9.36,0,0,1,3.44-1.87C56.7,9.45,61.12,8.47,65.9,9.06c.53.14,1.06.28,1.58.45a1.64,1.64,0,0,0,1.48,0,1.65,1.65,0,0,0,.76-1.24l.42-1.56c.28-1,.56-2.08.88-3.09a12.06,12.06,0,0,1,.55-1.55,2.93,2.93,0,0,1,1.28-1,1.59,1.59,0,0,1,1.2-.37h0a2.16,2.16,0,0,1,1.23.45A2.22,2.22,0,0,1,76,2.23a7.78,7.78,0,0,1,.15,2.53l.12,0c-.51.72.06,1.83-.49,2.23V6.85c-.31.38.37,1.07,0,1.27l.1.09c-.07.51-.14,0-.27.41,0,.15.19.1.06.39-.47,0-.23,1.26-.77,1.12.09-.26-.34.33-.25-.28-.09.15-.37.91-.13.93s.26.56.63.14L75,10.76c.23-.1.13-.09.28-.11.26-.64.52-.66.76-1.13h0a1.94,1.94,0,0,1,.2-1.08l.12-.09c.23-.12-.25-.85.06-.58.08-.69.18-1.42.32-2.15l.12-.54L77,4.77a1.59,1.59,0,0,0,0-.42,8.87,8.87,0,0,0-.1-1.24c-.13-.21-.33-1.29-.46-.84a1.54,1.54,0,0,0-.31-1.15,2.18,2.18,0,0,0-1-.81.16.16,0,0,1,.15,0A1.19,1.19,0,0,0,74.07,0h.11c-.49,0-.76.13-1.34.11,0,.18-.42.33-.81.61s-.77.69-.75,1.05c-.13.07-.21.1-.24,0A12,12,0,0,0,70.62,3l-.35,1c-.24.67-.46,1.32-.64,1.88a5.57,5.57,0,0,1-.4,1.66c-.09.29-.18.56-.24.83a4.07,4.07,0,0,0,0,.46.85.85,0,0,1-.64.17l-.16,0-.37-.11A5.53,5.53,0,0,0,67,8.72l.11,0a9,9,0,0,0-3.42-.32c-.31-.43-.82-.37-1.33-.53a31.16,31.16,0,0,0-3.54.42c-.21-.17-1,.21-1.06,0a51.93,51.93,0,0,0-10.19,4.09l0,0a12.14,12.14,0,0,0-.8,1.36s-.07,0,0-.08c-.48.42-1.1.61-1.56,1.07,0,0,0,0,0-.13-.38.47-1.06.68-1.43,1.33l-.08,0-.25.39c-.05-.07-.13-.17.06-.32a27,27,0,0,0-4.94,6.77,33.3,33.3,0,0,0-1.76,3.84c-.14.33-.26.66-.38,1a6.28,6.28,0,0,0-.34,1.1,2,2,0,0,0,1.32,2.11l-.28,0a2.39,2.39,0,0,0,1.28.07c0,.05,0,.07-.11.08,1.37.16,2.8,0,4.13,0,0,0-.21.12,0,.17,1-.2,1.58.37,2.09-.1a.09.09,0,0,1,0,.17,52.52,52.52,0,0,1,8.3.61c2.35-.16,4.84.62,7.25.77l0,.09a44.6,44.6,0,0,1,9.27,2.51c1.24.49,2.12.72,3.36,1.23v.11c2.26.51,4.14,2.32,6.39,3.1l-.22,0c.43,0,1.19.79,1.27.39l.29.32c1.65.41,2.32,1.79,4.08,2.69h-.16a5.17,5.17,0,0,1,1.23.91c-.06,0-.06,0-.17-.05a12,12,0,0,0,1.87,1.75c.35.27.67.54,1.06.81a1.71,1.71,0,0,0,1.32.17,2.62,2.62,0,0,1-.17.21,2.06,2.06,0,0,0,1.3-1.16,11.22,11.22,0,0,0,.4-1.81l.06.09v-.57h.17A29.6,29.6,0,0,0,91.74,39.13Z"/><path class="cls-1" d="M89.55,25h0S89.57,25,89.55,25Z"/><path class="cls-1" d="M76.15,9.35l-.08.17S76.13,9.41,76.15,9.35Z"/></g><g id="eyes-right-white"><path class="cls-5" d="M63.37,53.81a6.29,6.29,0,0,0,7-1.34A5.59,5.59,0,0,0,70.83,46a6.94,6.94,0,0,0-3.06-2.85,5.79,5.79,0,0,0-7,1.28c-1.22,1.25-1.31,3.68-1,5.36a4.74,4.74,0,0,0,1.71,3.11A4.55,4.55,0,0,0,64.26,54"/><polygon class="cls-1" points="64.34 53.09 64.33 53.04 64.28 53.17 64.34 53.09"/><path class="cls-1" d="M64,53.36v.1l.21-.37C64.2,52.86,64.06,53.52,64,53.36Z"/><path class="cls-1" d="M64,53.32c-.05-.1-.11.08-.13.14C63.9,53.32,64,53.52,64,53.32Z"/><path class="cls-1" d="M60.36,49.68v0S60.37,49.68,60.36,49.68Z"/><path class="cls-1" d="M59.56,48.18h-.14c.26.3,0,.66.17,1h-.05a4.73,4.73,0,0,0,.89,2.21s-.06,0-.08,0,.17,0,.18.06a.1.1,0,0,1-.09,0c-.14.27.38.34.28.53a.19.19,0,0,0,.19-.09,3.32,3.32,0,0,0,1.51,1,.36.36,0,0,1-.08.17c.62-.1,1,.19,1.48.35,0-.1,0-.12,0-.22-.13-.15-.34.19-.43,0l0-.09c-.08-.09-.09.24-.15.08s0-.11,0-.13c-.22,0-.38-.18-.66,0,.05-.21-.2-.11-.16-.34-.09,0-.12,0-.22.11-.53-.53-1.29-1-1.57-1.74-.55-.2-.19-.83-.43-1.27h0a.7.7,0,0,1-.2-.54L60,49c.24-1.15.06-2.34.61-3.31a3.79,3.79,0,0,1,1.17-1.22,11.08,11.08,0,0,0,1.32-1.21s0,.06,0,.08c.3-.21.65-.16,1-.31v0c.79-.5,1.72-.06,2.59-.21a9.13,9.13,0,0,1,2.91,1.52l-.06.06c.78.5.93,1.46,1.39,2.15a5.43,5.43,0,0,0,.54,1.25,1.89,1.89,0,0,1,.2,1.37,1.17,1.17,0,0,0-.09.94c0,.34,0,.71-.25.88-1,.73-1.23,1.61-2,2.57-1,.32-1.87,1.16-3,.77-.48.33-1-.36-1.46-.35v.1c-.11-.34-.5.35-.51-.13l0,0c0-.25-.37.47-.35.18l0,.11c-.13,0,0-.13,0-.2s-.08.2-.13.11c.15-.46-.32,0-.13-.52.06,0,0-.23.16-.28,0-.06-.19-.11-.27.11s-.27.37-.23.59l.09-.15a1.81,1.81,0,0,1,0,.22c.14.08.07.33.15.48a0,0,0,0,1,0,0c.15-.16.22,0,.28,0v.1c0,.21.31-.33.16,0,.37,0,.77.1,1.16.14.07-.12.3,0,.23-.23a.49.49,0,0,0,.49.38s0,.06,0,.05c.22.38.24-.36.46.11,0-.33.38.07.46-.33a.38.38,0,0,1,0,.2c.37,0,.79,0,1.1-.07.17-.35.67-.07.74-.53a.74.74,0,0,0,.72-.24v.06c.25-.17.57-.39.58-.71.3.26.36.11.54.12,0-.26.39-.51.47-.85.16.07.1-.25.31-.1a7.44,7.44,0,0,1,1.22-2.62l0,0a3.81,3.81,0,0,0-.57-.46s.06,0,.06,0c0-.16.24-.28.19-.45l.08,0c-.11-.15.23-.31,0-.49h.07l-.1-.11c.09,0,.21,0,.19.06,0-1.48-.93-2.73-1.71-3.82h.09l-.28-.13.08,0c-.1-.36-.52-.46-.74-.71,0,0,.13,0,.12-.12-.33,0-.1-.5-.51-.21,0,0,.07-.11.11-.12-.64-.32-1.22-.68-1.83-1-.68.19-1.18-.35-1.82-.09l0-.09c-.76.2-1.54-.1-2.3.16a2.8,2.8,0,0,0-.79.35l0-.09c-.29.57-1.21.24-1.39,1l-.07-.14c.08.23-.31.16,0,.43l-.15,0c.09.62-.69.31-.68.92l-.06-.08c0,.15,0,.3-.14.34s0,0,0-.07c-.52.2-.3.79-.4,1.16l-.15-.08c.15.24-.11.56,0,.84l-.08,0,.1.14h-.17A5.47,5.47,0,0,0,59.56,48.18Z"/><path class="cls-1" d="M60.44,51.41h0S60.43,51.41,60.44,51.41Z"/><path class="cls-1" d="M63.51,54.68l0,0S63.5,54.66,63.51,54.68Z"/></g><circle id="eyes-right-black" class="cls-1" cx="62.85" cy="46.88" r="2.22"/><g id="eyes-left-white"><path class="cls-5" d="M48.64,51a6.27,6.27,0,0,0,7-1.33,5.6,5.6,0,0,0,.49-6.48A7,7,0,0,0,53,40.29a6.21,6.21,0,0,0-4.29-.41,6.11,6.11,0,0,0-2.68,1.7c-1.22,1.24-1.31,3.67-1,5.35A4.74,4.74,0,0,0,46.82,50a4.49,4.49,0,0,0,2.71,1.08"/><polygon class="cls-1" points="49.61 50.24 49.6 50.18 49.54 50.32 49.61 50.24"/><path class="cls-1" d="M49.3,50.51v.09l.21-.37C49.47,50,49.33,50.66,49.3,50.51Z"/><path class="cls-1" d="M49.26,50.46c0-.1-.11.08-.13.14C49.17,50.46,49.24,50.66,49.26,50.46Z"/><path class="cls-1" d="M45.63,46.83h0S45.64,46.83,45.63,46.83Z"/><path class="cls-1" d="M44.83,45.32h-.14c.26.3,0,.66.17,1h0a4.73,4.73,0,0,0,.89,2.21h-.08c.07,0,.17,0,.17,0a.08.08,0,0,1-.08,0c-.14.28.38.35.28.53a.19.19,0,0,0,.19-.09,3.17,3.17,0,0,0,1.51,1,.36.36,0,0,1-.08.17,2.92,2.92,0,0,1,1.48.35c0-.1,0-.12,0-.22-.13-.15-.34.2-.43,0l0-.09c-.08-.09-.09.24-.15.09s0-.12,0-.13c-.22,0-.38-.19-.66-.06,0-.21-.2-.11-.16-.33-.09,0-.12,0-.22.1-.53-.53-1.29-1-1.57-1.73-.55-.21-.19-.84-.43-1.28h.05a.68.68,0,0,1-.2-.54l-.19-.14c.24-1.15.06-2.34.61-3.31A3.75,3.75,0,0,1,47,41.63a12.14,12.14,0,0,0,1.32-1.22s0,.06,0,.09c.29-.22.64-.17.95-.32v0c.79-.5,1.72-.06,2.59-.2a8.9,8.9,0,0,1,2.91,1.51l-.06.06c.78.5.93,1.46,1.38,2.15A6,6,0,0,0,56.67,45a1.91,1.91,0,0,1,.2,1.38,1.14,1.14,0,0,0-.09.93c0,.34,0,.71-.25.88-1,.73-1.23,1.61-2,2.57-1,.32-1.87,1.17-3,.78-.48.32-1-.36-1.46-.36v.1c-.11-.34-.5.35-.51-.13l0,0c0-.25-.37.47-.35.19l0,.1c-.13,0,0-.13-.05-.2s-.08.2-.13.11c.15-.45-.32,0-.13-.52.06,0,0-.22.16-.28,0-.06-.19-.1-.27.11s-.27.37-.23.59l.09-.15a1.49,1.49,0,0,1,0,.22c.14.09.07.33.15.48a0,0,0,0,1,0,0c.15-.16.22,0,.28,0v.1c0,.21.31-.32.16,0,.37,0,.77.1,1.16.14.07-.12.3,0,.23-.22a.52.52,0,0,0,.48.38s0,.05,0,0c.22.38.24-.35.46.11,0-.33.38.07.46-.32a.34.34,0,0,1,0,.19,9.4,9.4,0,0,0,1.1-.07c.17-.35.67-.06.74-.53.2,0,.56,0,.72-.23v0c.25-.16.57-.38.58-.71.3.26.36.12.54.12,0-.26.39-.51.47-.85.16.08.1-.24.31-.1a7.44,7.44,0,0,1,1.22-2.62l0,0a4.57,4.57,0,0,0-.57-.46s.06,0,.06,0c0-.16.24-.29.19-.45,0,0,0,0,.08,0-.11-.16.23-.32,0-.5h.07l-.1-.11c.09,0,.21,0,.19.06,0-1.47-.93-2.73-1.71-3.81H56l-.28-.12a.11.11,0,0,1,.08,0c-.1-.37-.52-.47-.74-.72,0,0,.13,0,.12-.12-.33,0-.1-.49-.51-.2,0,0,.07-.12.11-.13-.64-.32-1.22-.68-1.83-1-.68.18-1.18-.36-1.82-.1l0-.09c-.76.21-1.54-.1-2.3.16a2.8,2.8,0,0,0-.79.35L48,40c-.29.57-1.21.24-1.39,1l-.07-.14c.08.23-.31.17,0,.44l-.15,0c.09.62-.69.31-.68.92L45.64,42c0,.14,0,.29-.14.33s0,0,0-.06c-.52.2-.3.78-.4,1.16l-.15-.09c.15.24-.11.56,0,.84l-.08,0,.1.15-.17,0A5.37,5.37,0,0,0,44.83,45.32Z"/><path class="cls-1" d="M45.71,48.55Z"/><path class="cls-1" d="M48.78,51.82l0,0S48.77,51.81,48.78,51.82Z"/></g><circle id="eyes-left-black" class="cls-1" cx="48.31" cy="44.17" r="2.22"/><g id="leg-right"><polygon class="cls-1" points="52.45 76.52 52.45 76.57 52.48 76.43 52.45 76.52"/><path class="cls-1" d="M52.56,76.22v-.09l-.09.38C52.48,76.74,52.57,76.07,52.56,76.22Z"/><path class="cls-1" d="M52.57,76.26c0,.09,0-.09,0-.16C52.6,76.25,52.59,76.06,52.57,76.26Z"/><path class="cls-1" d="M54.07,76.29h0Z"/><path class="cls-1" d="M54.51,75.7l0-.15c-.1.26-.16,0-.24.09v0c-.19-.07-.39.16-.59.25v-.07s0,.14,0,.13a.13.13,0,0,1,0-.08c0-.25-.14.14-.14,0a.49.49,0,0,0,0,.2,1.05,1.05,0,0,0-.5.26,1.44,1.44,0,0,1,0-.18c-.17.38-.29.21-.42.14,0,.1,0,.11,0,.22s.1-.25.12-.06v.1c0,.07,0-.25,0-.12a.38.38,0,0,1,0,.13c.07,0,.12.06.21-.17,0,.21.06,0,.06.22a.59.59,0,0,0,.06-.21c.2.14.44-.06.66,0,.14-.41.21.1.35,0v0c0-.1.11-.14.15-.09l.06-.17c.25.39.56.15.84.33a2.35,2.35,0,0,0,.46.21.54.54,0,0,0,.6-.29s0,.06,0,.08.27,0,.34-.1l0,0c.07-.37.52-.4.24-.85a1.45,1.45,0,0,0,0-.85h.08c-.15-.23.31-.39.19-.62.21-.21-.44-.48-.18-.68.42-.12-.45-.33,0-.44.65-.25.24-.52-.14-.78.23-.25-.36-.47.1-.72-.3-.1.36-.24.27-.36H57c.31,0-.45-.07,0-.12h0c.23,0-.56,0-.28-.06h-.12s.13,0,.18,0-.21,0-.15,0c.48,0-.1-.06.43-.1,0,0,.21,0,.32,0s0-.06-.2-.05a4.06,4.06,0,0,0-.64.05h.18l-.22,0s-.28,0-.38.09h0c.21,0,.08,0,0,.06h-.09c-.21,0,.4,0,0,0a.29.29,0,0,1,.1.24c.13,0,0,.06.24,0-.29,0-.36.1-.35.12h-.05c-.38.06.36,0-.11.1.33,0-.1.08.29.09h-.2c0,.08-.13.16-.14.22.29,0-.13.14.27.18-.08,0-.25.1-.09.16h0c0,.06,0,.14.3.18a1,1,0,0,0-.43.07c.18,0,.12.12.28.19-.17,0,.08.05-.18.05.49.18.31.4-.07.57h0l.63.1h-.06c.05,0-.21,0-.16.09H56.3c.11,0-.21.06,0,.1h-.06l.09,0c-.09,0-.21,0-.18,0-.1.28.32.62.22.92l-.08,0,.14.07h-.08c-.15.06.08.16,0,.23a.47.47,0,0,0-.17,0c.22.08-.31,0,.17.13l-.17,0c.14.14.11.37,0,.41.42.21,0,.15.32.44l-.08-.06c.22.37-.19.26-.28.31s-.08.08-.15.09l0-.11c0,.21-.1.11-.16,0s-.09-.18-.18,0l0-.15c0,.23-.07-.08-.09.31l0-.12c-.12.5-.14-.25-.27.07v-.09c0,.07-.07.12-.09,0l0-.06c-.07-.37-.2,0-.29,0l0-.17c-.06.2-.13,0-.2.09v-.08l0,.11v-.16C54.67,75.55,54.59,75.68,54.51,75.7Z"/><path class="cls-1" d="M53.7,75.82Z"/><path class="cls-1" d="M56.11,70.8h0Z"/></g><g id="hand-right"><polygon class="cls-1" points="79.91 63.36 79.95 63.34 79.82 63.36 79.91 63.36"/><path class="cls-1" d="M79.56,63.32l-.08,0,.4-.06C80.07,63.17,79.43,63.4,79.56,63.32Z"/><path class="cls-1" d="M79.58,63.27c.07-.08-.11,0-.17,0C79.55,63.23,79.4,63.36,79.58,63.27Z"/><path class="cls-1" d="M78.22,61.37h0Z"/><path class="cls-1" d="M76.67,61.07,76.52,61c.07.07,0,.08-.13.09h0l.14,0v0l0-.06.09-.1h0c.33-.22.54-.19,1,.14a3.67,3.67,0,0,1,.34.27l-.12,0a2.44,2.44,0,0,1,.24.12l-.13,0c-.17,0-.05.06,0,.13s.18.11.08.12a.94.94,0,0,0,.28,0,4.89,4.89,0,0,0,.72.62.41.41,0,0,1-.15.11c.5.09.52.48.6.8.1,0,.08-.08.19-.09s-.31-.07-.18-.24l.1,0c0-.1-.24.09-.15,0a.24.24,0,0,1,.12-.06c-.11-.12-.1-.31-.38-.32.17-.13-.07-.14.08-.29-.09,0-.09,0-.22,0a1.26,1.26,0,0,0-.11-.25.19.19,0,0,0-.06-.07l-.21-.18-.11-.12-.35-.19c-.2-.13.24.06-.08,0l.1,0c-.28-.11-.5-.14-.41-.06l-.53-.12.18.18.27,0a2.45,2.45,0,0,0,.34,0,2.35,2.35,0,0,0,.4,0,1.89,1.89,0,0,1,.32,0l.28.07a.81.81,0,0,0,.41,0,1.59,1.59,0,0,0,1-.44s0,.06,0,.08c.21-.1.42,0,.61-.08v0c.47-.4,1.05-.07,1.5-.49a7.6,7.6,0,0,0,.92-.1,2,2,0,0,0,.94-.3l.06.06a1.59,1.59,0,0,0,.31-.73,1.11,1.11,0,0,0-.14-.8c0-.55-.81-.84-.75-1.41.28-.44-.7-.55-.4-1,.39-.8-.2-1.23-.77-1.67,0-.62-.73-1-.48-1.63-.37-.14.16-.65,0-.9l-.1,0c.26-.21-.49-.06-.07-.29h0c.2-.14-.56.08-.31,0l-.12,0s.13,0,.15-.12-.2.07-.15,0c.44-.18-.15-.12.34-.32,0,0,.18-.13.31-.09s0-.14-.23,0a1.78,1.78,0,0,0-.59.25l.17-.05-.2.11c0,.09-.22.19-.3.29h0c.21,0,.11.07.1.11l-.09.05c-.18.1.41-.05.07.06a1.32,1.32,0,0,1,.29.52c.13,0,0,.15.26,0-.25.16-.27.32-.24.37h0c-.32.24.37,0,0,.25.31-.1,0,.21.35.13a.67.67,0,0,1-.18.08c0,.18,0,.41,0,.56.31,0,0,.34.4.31,0,.12-.15.32,0,.39h0a.47.47,0,0,0,.43.31c-.35.17-.25.21-.35.31.2,0,.22.23.42.32-.15.08.12.09-.12.19.61.23.63.78.43,1.33h0l.66,0-.06,0c.07.06-.14.21-.07.28H83.4c.13,0-.14.22.08.24l-.06,0,.1,0c-.08,0-.2.06-.18,0a3,3,0,0,0,.5,1c.1.16.21.31.3.47a.44.44,0,0,1,.09.28l-.08,0,.15.11-.09,0c-.15,0,.05.23-.08.28a.86.86,0,0,0-.13-.14c.1.23-.25-.25,0,.2l-.09-.16c0,.17-.49.21-.84.17-.26.46-.64.11-.91.49v-.09c-.37.34-.84.07-1.26.17-.17,0-.28.1-.46.13v-.11c-.25.44-.66-.3-.92.18v-.15c0,.23-.19-.06-.13.33l-.07-.11c-.08.26-.18.22-.28.14s-.29-.15-.33,0l0-.09c0,.08-.06.14-.17.06s0,0,0-.06c-.25-.16-.41-.13-.49-.07s-.08.16-.21.17l-.21-.15s0,.05,0,.06-.31,0-.31.1l-.1-.05.08.08-.22-.1C76.83,60.93,76.83,61,76.67,61.07Z"/><path class="cls-1" d="M77.9,61.38Z"/><path class="cls-1" d="M81.2,52a.05.05,0,0,1,0,0S81.2,52,81.2,52Z"/></g><g id="leg-left"><polygon class="cls-1" points="63.82 75.68 63.84 75.63 63.75 75.74 63.82 75.68"/><path class="cls-1" d="M63.58,75.89l0,.08.26-.31C63.88,75.46,63.51,76,63.58,75.89Z"/><path class="cls-1" d="M63.58,75.85c0-.09-.07.06-.1.11C63.55,75.85,63.48,76,63.58,75.85Z"/><path class="cls-1" d="M61.9,75.48v0S61.9,75.46,61.9,75.48Z"/><path class="cls-1" d="M61.53,76.13v.15c.08-.28.16,0,.22-.13v0c.17,0,.34-.19.55-.28l0,.08s0-.15,0-.13a.15.15,0,0,1,0,.08c0,.25.15-.14.14.06a1.13,1.13,0,0,0,0-.2,1.92,1.92,0,0,0,.58-.14l-.06.17c.28-.31.39-.09.49,0a.72.72,0,0,1,.11-.19c0-.15-.21.17-.17,0l.06-.08c0-.08-.13.22-.1.09a.52.52,0,0,1,.06-.12c-.08,0-.12-.12-.28.08.06-.21-.07,0,0-.24-.05.07-.06,0-.12.17-.21-.19-.51,0-.75-.1-.16.41-.25-.1-.4,0v0c0,.1-.1.15-.16.1l0,.18a1.31,1.31,0,0,0-.15-.12.15.15,0,0,0-.07,0,.15.15,0,0,0-.13,0s-.1,0-.11,0,0-.19,0-.25-.05,0-.32,0l.08,0c-.09,0,.06-.11,0-.12h0c-.35,0,0-.36-.36-.51a1.39,1.39,0,0,0-.14-.76h.08c-.19-.19.25-.41.1-.61.18-.22-.5-.41-.25-.63.4-.15-.49-.28-.07-.42.63-.29.2-.51-.19-.74.21-.25-.39-.45.07-.7-.31-.09.36-.24.26-.36h-.1c.31-.06-.44-.07,0-.12h0c.24,0-.56,0-.28-.05H60.1s.13,0,.17,0-.21,0-.14,0c.48,0-.11-.06.43-.09a1.33,1.33,0,0,1,.32,0s0-.06-.2,0a4,4,0,0,0-.64,0h.17l-.22,0s-.27,0-.38.08h0c.21,0,.09,0,.06.06h-.1c-.2,0,.4,0,0,0a.28.28,0,0,1,.1.23c.14,0,0,.07.25,0-.29,0-.37.1-.35.12h0c-.38.06.35,0-.11.1.33,0-.1.08.29.08h-.2c0,.08-.12.17-.13.23.29,0-.12.14.28.17-.09,0-.25.11-.09.16h0c0,.06,0,.14.3.17-.38,0-.3,0-.42.09.17,0,.13.11.29.17-.18,0,.08,0-.18.06.51.15.34.37,0,.57h0l.64.05h-.07s-.2.07-.15.1a.11.11,0,0,1-.08,0c.11,0-.2.08,0,.1h-.07l.1,0c-.09,0-.22,0-.19,0-.07.3.39.57.34.88H60l.15.05H60c-.14.08.11.14.07.22a1,1,0,0,0-.17,0c.24,0-.29.1.19.11H60a.34.34,0,0,1,.1.45c.44.1,0,.26.4.37h-.09c.32.14,0,.35.07.56s.08.11.09.18l-.11.06c.38-.13-.28.56.12.36l-.11.11c.18-.17,0,.15.26-.19l-.09.13c.44-.45-.14.42.22.08l-.06.1c.06-.07.14-.16.1-.07l0,.06c-.12.33.2-.08.27-.11l-.09.2c.08-.13.12-.13.15-.12s.06,0,.1,0l0,.09.06-.14,0,.19C61.35,76.33,61.46,76.16,61.53,76.13Z"/><path class="cls-1" d="M62.31,76h0Z"/><path class="cls-1" d="M59.58,70.3l0,0Z"/></g><g id="needle-top"><path class="cls-6" d="M20.16,20.66q2.34,13.79,5.5,27.23c.06.24.16.52.34.51s.16-.08.23-.15l2-2.07a2.21,2.21,0,0,0,.57-2q-2.07-10.09-3.69-20.38c-.1-.67-.21-1.35-.31-2a2.19,2.19,0,0,0-3-1.66l-2,.86"/><polygon class="cls-1" points="20.16 21.84 20.21 21.87 20.22 21.71 20.16 21.84"/><path class="cls-1" d="M20.49,21.35s0-.06,0-.07l-.11.48C20.54,21.91,20.35,21.25,20.49,21.35Z"/><path class="cls-1" d="M20.59,21.35c.14,0,.11-.15.11-.22C20.72,21.28,20.49,21.18,20.59,21.35Z"/><path class="cls-1" d="M25.05,26.4s0,0,0,0S25,26.39,25.05,26.4Z"/><path class="cls-1" d="M26.14,28.89h.15c-.35-.44-.19-1-.39-1.52l.06,0a32.82,32.82,0,0,0-1-3.75s.06,0,.08,0-.16-.11-.16-.18.07,0,.09,0c.19-.32-.28-.78-.12-1a.15.15,0,0,0-.22,0,3,3,0,0,0-.47-1.35,1.53,1.53,0,0,0-1.1-.58s0-.11,0-.19a10.32,10.32,0,0,0-1,.31c-.38.16-.85.32-1.27.47,0,.11.13.06.09.19.32,0,.39-.45.71-.38v.11c.21,0-.06-.25.17-.22s0,.13.07.12c.4-.22.54-.16.84-.41,0,.21.31,0,.35.28.09-.06.15,0,.24-.14a1.89,1.89,0,0,1,.91,1.19c.15.72.31,1.44.42,2.17.54.62.19,1.51.48,2.3h0a2.06,2.06,0,0,1,.27.94l.22.24a54.39,54.39,0,0,0,.79,5.79c.29,2.21.34,4.18,1.27,6.21,0,0-.06,0-.09,0,.2.6.15,1.19.34,1.75h0a9.55,9.55,0,0,1,.55,2.18,5.36,5.36,0,0,1,.17,2,6.63,6.63,0,0,1-1.15,1.34l-1.19,1.28a.2.2,0,0,1-.33,0,1,1,0,0,1-.14-.34L25.49,47l.08,0c-.5-1.36-.38-2.83-.82-4.2-.14-1.49-1.13-2.88-1.19-4.41.21-1-.9-2-.66-2.94.27-1.88-.47-3.5-1.18-5.18-.09-1.67-1-3.18-.8-4.84-.42-.69.09-1.63-.14-2.45l-.1.05c.26-.35-.55-.59-.12-.85l0,0c.2-.2-.62-.28-.36-.42h-.11c-.07-.18.12,0,.14-.2s-.21,0-.16-.11c.46-.1-.19-.45.34-.55,0,.1.18-.2.33,0,0-.07,0-.39-.26-.32s-.47-.08-.62.15h.18a1.08,1.08,0,0,1-.21.11c0,.26-.22.33-.3.53h0c.23.09.14.28.12.39l-.09.05c-.19.1.45.23.09.21a12.83,12.83,0,0,1,.38,1.67c.14.06.06.45.3.28a.82.82,0,0,0-.22.79s-.06,0-.06,0c-.32.38.42.31,0,.68.33,0,0,.55.4.64a.27.27,0,0,1-.19.07c.09.53.08,1.12.15,1.57.35.32,0,.94.49,1.19A1.63,1.63,0,0,0,21.08,30L21,30a2.3,2.3,0,0,0,.53,1.18c-.35.2-.24.37-.32.58.23.24.29.82.53,1.22-.16.1.14.34-.1.42a6.68,6.68,0,0,1,.76,4l0,0a7,7,0,0,0,.73.4s-.06,0-.07,0c.1.22-.1.49,0,.72,0,0,0,0-.09,0,.16.2-.1.5.15.72l-.07,0,.13.14c-.08,0-.21,0-.2-.06.35,2,1.24,4,1.65,6.09l-.1-.06.24.37a.11.11,0,0,1-.09,0c0,.56.32,1,.42,1.56,0,0-.15-.08-.17,0a1.16,1.16,0,0,1,.17.73c0,.23.09.4.29.25,0,0-.07.17-.11.16a1.48,1.48,0,0,0,.33.37.46.46,0,0,0,.5.06,4.27,4.27,0,0,0,1.13-1c.35-.35.57-.55.87-.82.12-.46.51-.78.76-1.27a1.57,1.57,0,0,0,.06-1.5H29a18.53,18.53,0,0,1-.69-3.59c-.06-.51-.22-.83-.31-1.33l.1,0c-.56-.77,0-1.85-.56-2.64l.15,0c-.25-.09,0-.55-.39-.42l.09-.18c-.62-.51,0-1.14-.43-1.81l.1,0a.76.76,0,0,1-.14-.56s0,0,.07,0c.25-.68-.27-1.29-.37-1.93l.18,0c-.26-.28-.17-.88-.34-1.28h.09l-.15-.18.15,0C26.48,29.89,26.25,29.41,26.14,28.89Z"/><path class="cls-1" d="M25,23.54h0S25,23.55,25,23.54Z"/><path class="cls-1" d="M19.54,21.48s0-.05,0-.08S19.54,21.45,19.54,21.48Z"/></g><g id="needle-bottom"><path class="cls-6" d="M26.93,48c3.77,11,3.55,14.27,5.92,21.3.72,2.16,1.29,4.91,2.8,6.2A10.16,10.16,0,0,0,35,71.79c-2.54-8.32-4.68-16.85-6.41-25.53"/><polygon class="cls-1" points="28.15 46.35 28.14 46.38 28.22 46.44 28.15 46.35"/><path class="cls-1" d="M28.4,46.79s0,0,0,0l-.25-.24C28.11,46.66,28.46,46.69,28.4,46.79Z"/><path class="cls-1" d="M28.4,46.87c0,.12.07.14.11.16S28.49,46.83,28.4,46.87Z"/><path class="cls-1" d="M30.49,56.2v0A0,0,0,0,0,30.49,56.2Z"/><path class="cls-1" d="M31.39,58.55h.08a9.11,9.11,0,0,1-.41-1.43l0,0c-.26-1.22-.65-2.31-1-3.51,0,0,0,0,.05,0a.45.45,0,0,1-.11-.17s0,0,.05,0c.06-.29-.24-.74-.19-.92s-.08-.09-.11,0c-.24-.94-.49-2-.79-2.89,0-.05,0-.07.08-.06a9.85,9.85,0,0,1-.61-2.53c-.06,0,0,.1-.1,0,0,.28.22.47.18.74l-.06,0c0,.18.13,0,.11.21s-.07,0-.06,0a4.59,4.59,0,0,0,.33,1.11c-.09.12.08.42,0,.58S29,50,29,50c.23,1.35.64,2.69.94,4a12.27,12.27,0,0,1,.54,2.15h0a3.86,3.86,0,0,1,.27.89l.15.23c.25,1.8.83,3.57,1.23,5.38a32.3,32.3,0,0,0,1.67,5.73s0,0-.05,0c.21.55.29,1.09.49,1.61h0c.53,1.28.86,2.73,1.27,4a6.07,6.07,0,0,1,.06,1.29,4.09,4.09,0,0,1-.94-1.19,14.46,14.46,0,0,1-.76-1.65h0c-.53-1.26-.67-2.61-1.17-3.88-.34-1.36-1.07-2.69-1.29-4.1,0-.89-.71-1.91-.68-2.76a15.28,15.28,0,0,0-1.25-4.87c-.28-1.53-1-2.95-1.2-4.46a19.11,19.11,0,0,1-.56-2.23l0,0c.06-.32-.41-.54-.24-.78l0,0c.06-.19-.38-.25-.28-.38h-.06c-.07-.16.06,0,0-.18s-.1,0-.11-.1c.22-.1-.19-.41.06-.51,0,.1.05-.18.18,0,0-.07-.11-.36-.21-.3s-.26-.06-.29.14h.1c-.07.09,0,.06-.09.1.07.24,0,.31,0,.49h0c.14.08.13.25.15.35l0,0c-.08.09.27.2.08.18.2.46.38,1,.55,1.52.09.06.12.41.21.25a1.2,1.2,0,0,0,0,.73,0,0,0,0,1,0,0c-.1.34.27.28.13.62.17,0,.09.49.32.59a.09.09,0,0,1-.08.06c.14.48.23,1,.34,1.43s.18.86.45,1.1a2.91,2.91,0,0,0,.23,1l0,0a4,4,0,0,0,.44,1.12c-.15.16-.08.32-.09.51.15.24.25.77.42,1.16-.07.08.12.32,0,.37a11.47,11.47,0,0,1,.84,3.74h0c.1.14.3.28.42.42s0,0,0,0c.07.21,0,.45.08.66,0,0,0,0-.05,0,.1.2,0,.45.17.67l0,0,.09.14c-.05,0-.11,0-.12-.07.43,1.91,1.31,3.76,1.87,5.65l-.06,0,.18.35a.09.09,0,0,1,0,0,9.79,9.79,0,0,0,.49,1.41s-.08,0-.08,0c.23.3.07.6.36.68a.06.06,0,0,1-.09,0c.24.45.42.82.74,1.32a7.57,7.57,0,0,0,1.26,1.44l0-.2c-.07-.77-.08-1.22-.17-1.8a4.35,4.35,0,0,0-.37-1.29h0a32.55,32.55,0,0,1-1-3.31c-.12-.46-.26-.76-.4-1.22l.05,0c-.42-.72-.29-1.69-.74-2.44l.09,0c-.15-.09-.1-.5-.27-.4v-.16c-.4-.49-.16-1-.5-1.68l.05,0a1.41,1.41,0,0,1-.16-.52s0,0,.05,0a7.1,7.1,0,0,0-.49-1.8l.1,0a8.49,8.49,0,0,1-.36-1.19h0l-.1-.17.08,0C31.71,59.48,31.52,59,31.39,58.55Z"/><path class="cls-1" d="M30.1,53.55Z"/><path class="cls-1" d="M26.79,48.78v-.07S26.79,48.76,26.79,48.78Z"/></g></g><g id="donguriseikotsuin-en" class="cls-7"><path class="cls-8" d="M11.57,121.4a1.06,1.06,0,0,1,0,.24c0,.09,0,.19-.05.29s-.05.2-.09.3l-.09.31-.11.27a2.09,2.09,0,0,1-.1.21l-.06.07-.09.07-.08.08a.13.13,0,0,0,0,.07l-.09,0-.12,0-.12,0-.06,0-.05.1v0h0l-.12,0-.07,0-.1,0-.09,0H9.91a.4.4,0,0,1-.15,0l-.15,0H9.53a1.53,1.53,0,0,1-.24.07l-.25,0-.49-.06H8.06a.29.29,0,0,0,0-.1.3.3,0,0,1,0-.1.36.36,0,0,1,0-.09.43.43,0,0,1,0-.11.15.15,0,0,1,.05-.12.2.2,0,0,1,.11-.06l.14,0,.15,0a.21.21,0,0,0,.11-.1.33.33,0,0,0,0-.19c0-.06,0-.11,0-.16l0-.16,0-.16a.81.81,0,0,1,0-.16.41.41,0,0,1,0-.11.49.49,0,0,0,0-.12,1.49,1.49,0,0,0,0-.21,1.48,1.48,0,0,1,0-.21,1.93,1.93,0,0,1,0-.24,2.11,2.11,0,0,0,0-.25.91.91,0,0,0,0-.23,1.64,1.64,0,0,1,0-.23.62.62,0,0,1,0-.13v-.13a.61.61,0,0,0,0-.14.4.4,0,0,0,0-.15.88.88,0,0,1,0-.16.61.61,0,0,0,0-.15.24.24,0,0,0-.07-.12.27.27,0,0,0-.16-.07l-.06,0,0,0,0,0-.08,0a.15.15,0,0,1-.15-.16.33.33,0,0,1,0-.15.28.28,0,0,1,.08-.11l.1-.1.12-.09a.51.51,0,0,1,.17-.08H9.1l.12,0,.06,0h.06a.11.11,0,0,0,.08,0,.07.07,0,0,1,.06,0h0v0h0s0,0,0,0,0,0,0,0,0,0,0,0,0,0,0,0l0,0,0,0H10a.47.47,0,0,1,.17,0l.15.08.13.1.13.12.1.06.1,0,.08.06a.2.2,0,0,1,.07.1l.08.13a1.47,1.47,0,0,0,.1.13l.09.14s0,.09.08.14a2.45,2.45,0,0,1,.12.41c0,.14.05.28.07.42s0,.12,0,.18a1.1,1.1,0,0,1,0,.18.29.29,0,0,1,0,.09.28.28,0,0,0,0,.09.11.11,0,0,0,0,.06s0,0,0,0a.08.08,0,0,1,0,0A.17.17,0,0,1,11.57,121.4Zm-.57-.23a.78.78,0,0,0,0-.26.7.7,0,0,0-.11-.23.41.41,0,0,0,.05-.09s0-.07,0-.1,0-.07,0-.1v-.1a.08.08,0,0,0,0-.05s0,0,0,0l-.05,0s0,0,0,0a.35.35,0,0,0,0-.06v0a.14.14,0,0,0,0-.06.15.15,0,0,0,0-.06l0,0s0,0,0-.07,0,0,0-.07a.08.08,0,0,0,0,0,.11.11,0,0,0-.07,0l-.09,0a.45.45,0,0,1-.11,0l-.12-.07-.12-.07-.13,0h-.2l-.19,0-.17,0a.41.41,0,0,0-.16,0,.23.23,0,0,0-.13.06.16.16,0,0,0,0,.14,2.09,2.09,0,0,0,0,.25,2,2,0,0,1,0,.25,4.89,4.89,0,0,1,0,.54c0,.18,0,.36,0,.54a2.28,2.28,0,0,0,0,.26,2,2,0,0,1,0,.25,1.84,1.84,0,0,1,0,.33c0,.11,0,.22,0,.34v.14a.66.66,0,0,0,0,.15.5.5,0,0,0,.05.13.27.27,0,0,0,.12.09l.21.07a.54.54,0,0,0,.22,0,.31.31,0,0,0,.13,0l.14-.06.1,0,.11,0,.1,0,.09-.06a.52.52,0,0,1,.1-.11.23.23,0,0,1,.13-.06,0,0,0,0,0,.05,0,.08.08,0,0,0,0,0,.14.14,0,0,1,0-.06s0,0,0-.06a.23.23,0,0,0,.08-.09.61.61,0,0,0,.05-.12s0-.08,0-.12a.51.51,0,0,1,0-.13l.09-.28a.92.92,0,0,0,.05-.28.08.08,0,0,0,0-.07.15.15,0,0,1,0-.07s0,0,0,0h0s0,0,0,0S11,121.21,11,121.17Z"/><path class="cls-8" d="M17.45,122.11a.29.29,0,0,1,0,.09l0,.07,0,0v0a.25.25,0,0,0,0,.07.19.19,0,0,1,0,.08,0,0,0,0,1,0,0h-.09a.53.53,0,0,1,0,.13.49.49,0,0,1,0,.12c0,.07,0,.11,0,.13a.08.08,0,0,1,0,0h0s0,0,0,.06,0,0-.05.08a.32.32,0,0,1-.1.1l-.12.08-.1,0h0a.13.13,0,0,0,0,.06v.06a.06.06,0,0,1,0,.06l-.06,0-.11.07a.52.52,0,0,1-.11.1l-.12.08a.19.19,0,0,1-.12,0,.17.17,0,0,1-.1,0,.2.2,0,0,0-.11,0H16l-.07,0-.07,0h-.08a.39.39,0,0,1-.18,0l-.17-.08-.1,0-.11,0-.1,0-.08-.07a.54.54,0,0,0-.16-.14l-.2-.11-.19-.11a.57.57,0,0,1-.16-.15l-.12-.16-.12-.17a1.07,1.07,0,0,1-.09-.19.43.43,0,0,1,0-.19.53.53,0,0,1,0-.13l0-.14,0-.13a.57.57,0,0,0,0-.13v0a0,0,0,0,0,0,0s0,0,0,0l0,0h0a.64.64,0,0,0,0-.09l0-.13s0-.09,0-.13a.21.21,0,0,1,0-.07l0,0a.06.06,0,0,0,0,0,.15.15,0,0,0,0-.06v-.05s0,0,0-.06h.06l0,0,.06-.12.06-.1a.6.6,0,0,1,.08-.08.52.52,0,0,1,.11-.07l.11-.08.1-.09.12-.07a.21.21,0,0,1,.12,0,.57.57,0,0,0,.18,0,.48.48,0,0,1,.17,0l.28,0a1.32,1.32,0,0,1,.28,0l.2,0,.23.07.22.09a.83.83,0,0,1,.17.11h0a.29.29,0,0,1,0,.09.44.44,0,0,0,0,.1h0s0,0,0,0h.11l.11,0s0,.07.05.08l.09,0a.18.18,0,0,1,.08.07l.07.12.06.13a.58.58,0,0,0,.05.11.31.31,0,0,1,.05.1.36.36,0,0,1,0,.11.69.69,0,0,1,0,.13.41.41,0,0,1,0,.11.2.2,0,0,1,0,.11.41.41,0,0,1-.05.09l-.06.06a.13.13,0,0,0,0,.08.08.08,0,0,0,0,0,.05.05,0,0,0,0,0h0s0,0,0,0h0s0,0,0,0a.14.14,0,0,1,0-.06s0,0,0,0a0,0,0,0,1,0,0s0,0,0,0a.1.1,0,0,1,0,0,.09.09,0,0,1,0,.05v0h0v.06Zm-.35,0a.05.05,0,0,0,0-.06l-.09,0h-.1a.08.08,0,0,1-.07-.05v0a.62.62,0,0,0,0-.18,1.55,1.55,0,0,0,0-.21l-.06-.2a1.89,1.89,0,0,0-.06-.18,1.89,1.89,0,0,1-.06-.18h0l-.11,0-.09-.06-.13,0-.21,0-.27,0-.28,0a.74.74,0,0,0-.36.09,1.09,1.09,0,0,0-.3.23,1.17,1.17,0,0,0-.27.68,1,1,0,0,0,0,.17c0,.07,0,.14,0,.21a1.33,1.33,0,0,0,.05.19.41.41,0,0,0,.08.13v.09l0,0h.08s0,0,0,0a.43.43,0,0,0,.12.2l.15.11.17.1a.58.58,0,0,1,.15.13h.11l.22,0h.21a.46.46,0,0,0,.2,0,.57.57,0,0,0,.16-.15l.07-.1.07-.08.08-.07.1-.07.05,0,.06,0,.05,0a.06.06,0,0,0,0,0,.13.13,0,0,0,0-.06v-.06a.28.28,0,0,1,0-.09.16.16,0,0,1,0-.09.18.18,0,0,1,.05-.07.11.11,0,0,1,.08,0H17l.07,0Z"/><path class="cls-8" d="M23.78,123.52a.11.11,0,0,1,0,.08s0,0-.06.05l-.08,0h-.18l-.1,0-.17,0a.51.51,0,0,1-.17,0h-.07a.27.27,0,0,0-.12,0l-.12,0a.63.63,0,0,1-.19,0,1.08,1.08,0,0,0-.19,0,.35.35,0,0,1-.25-.12.51.51,0,0,1-.09-.27,1,1,0,0,1,.22-.09,1,1,0,0,1,.24,0h.27a4.38,4.38,0,0,0,0-.51,4.73,4.73,0,0,1,0-.52c0-.06,0-.12,0-.18a1.1,1.1,0,0,1,0-.18.84.84,0,0,1,.05-.17,1.1,1.1,0,0,0,0-.18.37.37,0,0,0,0-.11.47.47,0,0,0-.05-.1l0-.09a.43.43,0,0,0,0-.11.19.19,0,0,0,0-.1.15.15,0,0,0-.06-.09.4.4,0,0,0-.13-.07l-.22,0H22l-.16,0-.16,0a.29.29,0,0,0-.1.06.23.23,0,0,0-.05,0l-.05.06-.06.06,0,0h-.08l0,0,0,0,0,.08,0,0s0,0,0,0h0l0,0h0l0,0v.09a.05.05,0,0,1,0,0H21v.07a.19.19,0,0,1,0,.07.21.21,0,0,1,0,.06l0,.06a.19.19,0,0,0,0,.08.59.59,0,0,0,0,.13.51.51,0,0,1,0,.13.12.12,0,0,1,0,.07s0,0,0,.06l0,0a.13.13,0,0,0,0,.06.28.28,0,0,0,0,.09.2.2,0,0,1,0,.08.3.3,0,0,1,0,.08.18.18,0,0,1,0,.1.49.49,0,0,1,0,.12.5.5,0,0,0,0,.12.18.18,0,0,0,0,.11.09.09,0,0,0,.06.06l.08,0,.1,0,.1,0a.45.45,0,0,1,.09.1h0a.1.1,0,0,1,.09,0,.22.22,0,0,1,0,.1.24.24,0,0,1,0,.09s0,0,0,.09,0,.05-.09.07l-.2,0-.22,0h-.67l-.21,0-.16,0a.17.17,0,0,1-.09-.07l0-.09a.44.44,0,0,1,0-.1.12.12,0,0,1,0-.09.16.16,0,0,1,.06-.08.24.24,0,0,1,.11-.06h.24a.14.14,0,0,0,.1,0,.37.37,0,0,0,.07-.14,1,1,0,0,0,0-.27v-.09s0-.06,0-.09,0,0,0-.08v0a.06.06,0,0,1,0,0l0,0a.14.14,0,0,0,0-.06.14.14,0,0,0,0-.07.2.2,0,0,0,0-.11.52.52,0,0,1,0-.11.3.3,0,0,1,0-.1.29.29,0,0,0,0-.09.11.11,0,0,0,0-.07.19.19,0,0,1,0-.08.19.19,0,0,1,0-.07.25.25,0,0,0,0-.08,1.23,1.23,0,0,0,0-.19c0-.06,0-.12,0-.18a.3.3,0,0,0-.07-.16.35.35,0,0,0-.13-.08l-.15,0a.38.38,0,0,1-.15,0,.35.35,0,0,1-.11-.1.5.5,0,0,1,0-.2.18.18,0,0,1,.06-.14.35.35,0,0,1,.12-.07l.16,0h.15l.2,0a.65.65,0,0,0,.19,0,.16.16,0,0,1,.09,0l.07.06a.21.21,0,0,1,.06.08.29.29,0,0,1,0,.09l0,.07,0,.11a.3.3,0,0,0,0,.1.05.05,0,0,0,0,0l0,0s0,0,0,0,0,0,0,0l.09-.08.11-.07.07,0,0,0s0,0,0,0l0,0h.08a.09.09,0,0,0,.07,0l.09-.08.15-.07a.67.67,0,0,1,.23,0h.26l.24,0a.78.78,0,0,1,.21.09.66.66,0,0,1,.18.19l.1.13.06.09,0,.1a.81.81,0,0,1,0,.17.15.15,0,0,0,0,.09l0,.09a.19.19,0,0,1,0,.09.2.2,0,0,1,0,.11,1.69,1.69,0,0,1,0,.23,1.94,1.94,0,0,0,0,.24.47.47,0,0,1,0,.17.51.51,0,0,0,0,.17.24.24,0,0,0,0,.08.19.19,0,0,1,0,.08s0,.08,0,.12a.5.5,0,0,0,0,.12.17.17,0,0,0,0,.1.2.2,0,0,1,0,.09s0,0,0,0l0,0s0,0,0,0,0,0,0,0a.19.19,0,0,0,0,.1.36.36,0,0,0,.07.1.31.31,0,0,0,.09.07l.1,0a.11.11,0,0,0,.08,0h.07a.12.12,0,0,1,.09,0,.35.35,0,0,1,.07.09.49.49,0,0,1,0,.11A.44.44,0,0,1,23.78,123.52Zm-3-1.37s0,0,0-.06l0-.07,0,0a.1.1,0,0,0-.12,0l-.07,0h0s0,.05,0,.07v0h0a.09.09,0,0,0,0,.06l.07,0,.07,0,.07,0A.11.11,0,0,0,20.82,122.15Zm2.22.08a.09.09,0,0,0,0-.07.06.06,0,0,0-.06,0,.05.05,0,0,0-.05,0,.2.2,0,0,0,0,.07.17.17,0,0,0,0,.07.06.06,0,0,0,.11,0,.22.22,0,0,0,0-.08Zm.05.65a.08.08,0,0,0,0,0l0,0,0,0,0,0,0,0a.11.11,0,0,0,0,0,.05.05,0,0,0,0,0l0,0s0,0,0,0l0,0,0,0A.07.07,0,0,0,23.09,122.88Z"/><path class="cls-8" d="M29.62,124.19a.46.46,0,0,1-.08.23,1.18,1.18,0,0,1-.17.22,1.4,1.4,0,0,1-.2.17.31.31,0,0,1-.15.07l-.17,0-.17.07a1.15,1.15,0,0,1-.22.07l-.32.07-.32,0-.24,0h-.21l-.23,0-.22,0-.2-.07s-.06,0-.07,0l-.06,0-.06,0h-.1a.21.21,0,0,1-.12,0l-.07-.07a.19.19,0,0,1,0-.09l-.06-.09a1.45,1.45,0,0,1-.12-.19.73.73,0,0,1,0-.22.8.8,0,0,1,.07-.34,1,1,0,0,1,.19-.29.64.64,0,0,0,0-.2,1.94,1.94,0,0,1-.05-.2l-.06-.2a.75.75,0,0,1,0-.2.37.37,0,0,1,0-.12.25.25,0,0,0,0-.07l0-.05a.07.07,0,0,0,0-.06s0,0,0-.06l.11-.11.11-.13a.28.28,0,0,0,.05-.12.12.12,0,0,0,0-.09l-.07-.07-.08-.09a.15.15,0,0,1,0-.09,10838033921080.4,10838033921080.4,0,0,1,0-.3l0-.15a.81.81,0,0,0,0-.16v0s0,0,0,0a.14.14,0,0,1,0-.06.1.1,0,0,1,0,0l0,0s0,0,0,0a.06.06,0,0,0,0,0,.14.14,0,0,1,0-.07v0h0a.38.38,0,0,0,.09-.09.43.43,0,0,1,.09-.1,1.11,1.11,0,0,1,.16-.11l.17-.1s0,0,0,0l0,0a.1.1,0,0,0,.06,0l.11,0,.12,0a.34.34,0,0,1,.14,0h.11l.1,0,.2,0,.16,0a.46.46,0,0,1,.14.07l.13.16.08,0,.08,0,.08-.06a.22.22,0,0,0,0-.08h.07a.07.07,0,0,0,.06,0l.07,0,.09,0a.27.27,0,0,1,.13,0l.23,0,.23,0a.58.58,0,0,0,0,.14c0,.05,0,.1.05.15a.78.78,0,0,1,.05.14.39.39,0,0,1,0,.15.15.15,0,0,1-.05.11.53.53,0,0,1-.13.13l-.16.09a.34.34,0,0,1-.16,0h0s0,0,0,0a.07.07,0,0,1,0-.06.08.08,0,0,0,0-.06l-.05,0h0a.17.17,0,0,0-.1,0,.22.22,0,0,0-.05.08.43.43,0,0,0,0,.11.49.49,0,0,0,0,.12v.13a.41.41,0,0,1,0,.1c0,.06,0,.11,0,.16a.21.21,0,0,1-.08.12.38.38,0,0,0-.09.13,1,1,0,0,0-.07.15l-.08.15a.49.49,0,0,1-.12.13l-.07.07,0,0h0a.57.57,0,0,0-.18,0l-.17,0-.17.06-.18,0a1.33,1.33,0,0,1-.28,0,1.27,1.27,0,0,0-.28,0l-.15,0a.46.46,0,0,0-.16.07.34.34,0,0,0-.12.12.19.19,0,0,0-.05.14.16.16,0,0,0,0,.1.31.31,0,0,0,.05.1.24.24,0,0,0,.08.06.17.17,0,0,0,.1,0,.23.23,0,0,0,.11,0,.19.19,0,0,1,.1,0,.09.09,0,0,1,.07,0l.06,0a.08.08,0,0,1,0,0h0s0,0,0,0,0,0,.05,0a.1.1,0,0,1,.05,0h.14l.07,0,.06,0h.11l.05,0,0,0,.08,0h.14a.17.17,0,0,0,.1,0l.1,0h.05l.06,0a.32.32,0,0,0,.09,0l.14,0h.11l.1,0,.11,0,.1,0a.19.19,0,0,1,.09,0l0,0,0,0,.07.06.09.07.09,0,.07.06a.33.33,0,0,1,0,.12,1.24,1.24,0,0,0,0,.16A.78.78,0,0,1,29.62,124.19Zm-.55-.12a.25.25,0,0,0-.05-.15.38.38,0,0,0-.13-.09l-.16,0-.16,0h0l-.37-.1a1.72,1.72,0,0,0-.39,0h0l-.08,0h-.05l0,0s0,0,0,0l0,0-.07,0h-.07a.39.39,0,0,0-.15,0l-.14,0-.14,0-.15,0a.19.19,0,0,0-.11,0l-.11.1a.47.47,0,0,0-.09.12.19.19,0,0,0,0,.11.58.58,0,0,0,0,.19.51.51,0,0,0,.09.16.3.3,0,0,0,.14.1.38.38,0,0,0,.19,0H27l.07,0a.52.52,0,0,0,.27.1l.29,0a.33.33,0,0,0,.17,0l.17-.06h.17a.35.35,0,0,0,.17,0l.09,0a.18.18,0,0,1,.11,0h.22a.22.22,0,0,0,.11,0,.27.27,0,0,0,.08-.07.31.31,0,0,0,.05-.1.18.18,0,0,0,0-.1v0a.08.08,0,0,0,.08-.06A.43.43,0,0,0,29.07,124.07Zm-.68-2.6a.55.55,0,0,0,0-.17,1.07,1.07,0,0,0-.07-.19.83.83,0,0,0-.11-.15.27.27,0,0,0-.15-.09l-.39-.14h-.05l0,0h-.09l-.08,0h-.08a.07.07,0,0,0-.06,0l-.05,0,0,0,0,0h0l0,0a.24.24,0,0,0-.06.1.87.87,0,0,0-.07.17c0,.07,0,.13-.06.19a.35.35,0,0,0,0,.12.1.1,0,0,0,0,.06l0,.11.07.14.08.13a.67.67,0,0,0,.06.12l0,.06a.24.24,0,0,0,.1.08l.11,0h.37a.43.43,0,0,0,.23-.07,1.8,1.8,0,0,0,.21-.19,1.43,1.43,0,0,0,.16-.24A.53.53,0,0,0,28.39,121.47Zm.34-.72a.1.1,0,0,0-.06-.09l-.1,0h-.06l0,0,.05,0s0,0,0,0l0,0h.12Z"/><path class="cls-8" d="M35.9,123.39a.22.22,0,0,1,0,.13.64.64,0,0,1-.1.13.6.6,0,0,1-.13.09.22.22,0,0,1-.13,0l-.21,0H35a.19.19,0,0,1-.09,0,.2.2,0,0,1-.12-.06.86.86,0,0,1-.07-.1l-.06-.1a.16.16,0,0,0-.1-.08l-.34.17-.29.14a1.68,1.68,0,0,1-.32.09,1.51,1.51,0,0,1-.39,0H33l-.07,0,0-.06a.46.46,0,0,0-.07-.1l0,0h-.07l-.06,0s0,0,0-.06a.26.26,0,0,0,0-.1.61.61,0,0,0-.07-.1.39.39,0,0,0-.08-.1.45.45,0,0,0-.07-.07v-.34c0-.23,0-.46,0-.68s0-.45,0-.68a.82.82,0,0,0,0-.14,1.09,1.09,0,0,0,0-.18.71.71,0,0,0,0-.17.15.15,0,0,0-.08-.09H32a.66.66,0,0,1-.15,0,.24.24,0,0,1-.14-.09.22.22,0,0,1-.07-.09.17.17,0,0,1,0-.11.19.19,0,0,1,.08-.15,1,1,0,0,1,.17-.1l.21-.05.17,0a1,1,0,0,1,.36.06.87.87,0,0,1,.31.18h0a1.36,1.36,0,0,0,0,.2.65.65,0,0,1,0,.2.34.34,0,0,1,0,.1.36.36,0,0,0,0,.1.5.5,0,0,0,0,.12.49.49,0,0,1,0,.12.17.17,0,0,1,0,.07v.08a.75.75,0,0,0,0,.21.65.65,0,0,1,0,.2.52.52,0,0,1,0,.18,1.16,1.16,0,0,1,0,.18c0,.06,0,.12-.05.18a.9.9,0,0,0,0,.18.59.59,0,0,0,0,.23A.55.55,0,0,0,33,123a.53.53,0,0,0,.2.13.59.59,0,0,0,.23,0,.4.4,0,0,0,.17,0,.23.23,0,0,0,.11,0,.18.18,0,0,0,.07,0l0,0h.1l.08,0a.12.12,0,0,0,.05-.05l.06,0a.09.09,0,0,1,.06,0l.14,0a.12.12,0,0,0,.06-.12v0h.06l0,0,0,0s0,0,0,0a.41.41,0,0,1,.07-.11.16.16,0,0,0,0-.11l0-.13a.27.27,0,0,0,0-.12.2.2,0,0,0,0-.11.17.17,0,0,1,0-.1.35.35,0,0,1,0-.14.59.59,0,0,0,0-.14l0-.06a.14.14,0,0,1,0-.07.12.12,0,0,1,0-.07s0,0,0,0a.2.2,0,0,0,0-.07.21.21,0,0,0,0-.06l0-.06a.14.14,0,0,1,0-.07s0,0,0-.06a.19.19,0,0,0,0-.07.17.17,0,0,0,0-.1l-.06-.07-.09,0-.1,0h-.15l-.11,0a.1.1,0,0,1-.08,0,.32.32,0,0,1-.08-.13.22.22,0,0,1,0-.1.16.16,0,0,1,.08-.13.67.67,0,0,1,.17-.08l.2,0h.38l.11,0,.11,0a.22.22,0,0,1,.14,0,.36.36,0,0,1,.08.12.85.85,0,0,1,0,.17,1.21,1.21,0,0,1,0,.19,1.93,1.93,0,0,1,0,.24,1.21,1.21,0,0,0,0,.18,1.27,1.27,0,0,0,0,.28,1,1,0,0,1,0,.23.14.14,0,0,1,0,.07l0,.07,0,.07a.19.19,0,0,0,0,.07s0,0,0,0l0,.19,0,0s0,0,0,0a.36.36,0,0,0,0,.1s0,.08,0,.12a.5.5,0,0,1,0,.12s0,.09,0,.13a.28.28,0,0,0,.11.24.38.38,0,0,0,.25.09.51.51,0,0,0,.17,0,.16.16,0,0,0,.07.09.6.6,0,0,0,.08.08.27.27,0,0,1,.07.08A.27.27,0,0,1,35.9,123.39Z"/><path class="cls-8" d="M41.73,121.11a.2.2,0,0,1,0,.11l-.06.09-.07.09a.36.36,0,0,0,0,.11l-.06,0h-.39a.2.2,0,0,1-.15-.06.32.32,0,0,1-.1-.13,1.21,1.21,0,0,1,0-.18,1,1,0,0,1,0-.17.75.75,0,0,1,0-.2h0a.06.06,0,0,0-.06,0,.07.07,0,0,1-.06,0l-.05,0a.09.09,0,0,0-.06,0,.27.27,0,0,0-.13,0l-.15.08a.43.43,0,0,0-.12.11.16.16,0,0,0,0,.12.23.23,0,0,0-.14,0l-.12.07a.15.15,0,0,0-.08.08.5.5,0,0,0,0,.13l-.06.13a.17.17,0,0,1-.06.11c0,.06-.07.11-.1.16a.47.47,0,0,0,0,.17.67.67,0,0,0,0,.24,1.18,1.18,0,0,1,0,.25,1,1,0,0,1,0,.17s0,.11,0,.16a.24.24,0,0,0,0,.15.28.28,0,0,0,.09.1l.13,0h.47s0,0,0,0v0l0,0v.09s.07,0,.09,0a.17.17,0,0,0,.06-.08l0,0s0,0,0,0,0,0,0,0l0,0s0,0,0,0,0,0,0,0v0a0,0,0,0,1,0,0s0,0,0,0h-.16l-.06,0-.06,0,0,0h-.05l0,0,0,0,0,0a.08.08,0,0,0,0,0,.08.08,0,0,1,0,.05.05.05,0,0,1,0,0l0,0h-.09a1.24,1.24,0,0,1-.27,0l-.26,0-.13,0a.28.28,0,0,1-.13,0s0,0-.05,0l0,0a.05.05,0,0,0,0,0h-.18l-.12,0-.13,0h-.21l-.09,0L38,123.6a.11.11,0,0,1,0-.07.16.16,0,0,1,0-.08.6.6,0,0,1,.08-.08.3.3,0,0,1,.08-.08l.06,0h.22l.19,0,.17-.08a.53.53,0,0,0,.12-.14.32.32,0,0,0,.05-.19.19.19,0,0,0,0-.08v-.09a.55.55,0,0,1,0-.18,1.1,1.1,0,0,0,0-.18,1,1,0,0,0,0-.24,2.29,2.29,0,0,1,0-.25v-.23a1.62,1.62,0,0,0,0-.22.86.86,0,0,0,0-.15,1.23,1.23,0,0,0,0-.2.48.48,0,0,0-.06-.18.1.1,0,0,0-.1-.07h-.15a.47.47,0,0,1-.16,0h-.14a.8.8,0,0,1-.15,0,.32.32,0,0,1-.12-.08.17.17,0,0,1,0-.12.46.46,0,0,1,0-.14.19.19,0,0,1,.07-.08.19.19,0,0,1,.09,0h.56l.21,0h.16a.7.7,0,0,1,.14,0,.14.14,0,0,1,.1.08l.06.11a.24.24,0,0,0,.06.11.11.11,0,0,0,.1,0,.08.08,0,0,0,.07,0,.1.1,0,0,0,0,0l.06,0a.09.09,0,0,1,.06,0,.34.34,0,0,0,.14-.05l.13-.07.12-.07a.35.35,0,0,1,.14,0h.11l.14,0,.12,0,.1-.06a1.15,1.15,0,0,1,.22,0,1.28,1.28,0,0,1,.24.11l.2.14a.42.42,0,0,1,.1.2.27.27,0,0,0,0,.12l.06.11a.61.61,0,0,1,.05.12A.28.28,0,0,1,41.73,121.11Z"/><path class="cls-8" d="M47.56,123.48a.43.43,0,0,1,0,.11l-.07.09a.2.2,0,0,1-.09.06.2.2,0,0,1-.11,0h0s0,0,0,0a.27.27,0,0,0-.12-.06H47l-.14,0a.22.22,0,0,1-.11-.12.14.14,0,0,0-.06-.07.22.22,0,0,0-.1,0,.66.66,0,0,0-.28,0l-.27.1-.28.11a.87.87,0,0,1-.28,0h-.16l-.16,0,0,0h-.17l0,0,0,0a.29.29,0,0,1-.1.06l-.15,0-.16,0-.12,0a.3.3,0,0,1-.18,0,.31.31,0,0,1-.14-.12l-.06-.07a.46.46,0,0,1-.07-.07l-.06-.08a.24.24,0,0,1,0-.08.1.1,0,0,1,.06-.09l.13-.06.15,0h.11a.51.51,0,0,1,.17,0l.16,0,.15,0a.32.32,0,0,1,.14,0h.26l.16,0,.14-.08c0-.11,0-.23,0-.34s0-.22,0-.34,0-.22,0-.33a1.84,1.84,0,0,1,0-.33s0,0,0,0h0v0a.36.36,0,0,0,0-.14.59.59,0,0,1,0-.14.51.51,0,0,1,0-.17,1.1,1.1,0,0,0,0-.18.27.27,0,0,0,0-.12.41.41,0,0,0-.07-.11.39.39,0,0,0-.1-.08.28.28,0,0,0-.13,0l-.14,0-.14,0-.16,0-.16,0-.19,0a1.38,1.38,0,0,1-.2,0h-.11a.35.35,0,0,1-.11,0,.13.13,0,0,1-.09,0,.11.11,0,0,1,0-.1.3.3,0,0,1,0-.18.24.24,0,0,1,.11-.09.33.33,0,0,1,.14,0h.15l.26,0h.26a1.62,1.62,0,0,1,.31,0l.32,0a.78.78,0,0,1,.22,0,.52.52,0,0,1,.18.1.57.57,0,0,1,.12.18.62.62,0,0,1,0,.25.5.5,0,0,1-.14.33s0,0,0,.06l0,0,0,0s0,0,0,.07,0,0,0,.07a.07.07,0,0,0,0,0c0,.12,0,.24,0,.36v.67a1.63,1.63,0,0,0,0,.31.53.53,0,0,0,0,.15.21.21,0,0,0,.15,0,1.15,1.15,0,0,0,.31,0,1.53,1.53,0,0,1,.3,0,.34.34,0,0,1,.17,0l.15.09.15.1a.22.22,0,0,0,.13,0l0,0,0,0a.43.43,0,0,1,0,.05Zm-1.66-4.17a.75.75,0,0,1,0,.2.69.69,0,0,1-.1.19.54.54,0,0,1-.15.15.38.38,0,0,1-.19.05.62.62,0,0,1-.18,0,1.17,1.17,0,0,1-.2-.06.52.52,0,0,1-.17-.12.19.19,0,0,1-.07-.16,1.11,1.11,0,0,1,0-.17.88.88,0,0,0,0-.17.19.19,0,0,0,.07-.06A.86.86,0,0,0,45,119l.06-.08a.13.13,0,0,1,.07,0h0l.1,0h.11a.38.38,0,0,1,.17,0,.72.72,0,0,1,.2.09.7.7,0,0,1,.16.14A.25.25,0,0,1,45.9,119.31Z"/><path class="cls-8" d="M52.93,121.42a.26.26,0,0,1-.07.11.28.28,0,0,0-.09.1h-.11a.18.18,0,0,0-.11,0,1.08,1.08,0,0,0-.19,0l-.2,0-.2,0a.36.36,0,0,1-.18-.07.37.37,0,0,1-.2,0h-.13l-.12,0h-.91l-.28,0s0,0,0,0v0s0,0-.07,0a.05.05,0,0,0-.05,0l0,0h-.21l-.12,0a.28.28,0,0,1-.14-.1.42.42,0,0,1-.09-.14.58.58,0,0,1,0-.18,1.1,1.1,0,0,1,0-.18v-.06l.07,0h.08l.07,0a.09.09,0,0,0,.06,0,.19.19,0,0,0,.13.07l.15,0,.17,0a.34.34,0,0,1,.17,0,.27.27,0,0,1,.14,0h.49a.26.26,0,0,0,.09,0h.12l.18,0,.17,0a.31.31,0,0,0,.1,0h.1l.22,0a.85.85,0,0,1,.23,0,.46.46,0,0,1,.2,0,.56.56,0,0,1,.05-.08l.07,0a.59.59,0,0,0,.14.06l.15,0,.12.07a.24.24,0,0,1,.07.12s0,0,0,0l0,0h-.06a.05.05,0,0,0,0,0h.08a0,0,0,0,1,0,0v0A.33.33,0,0,0,52.93,121.42ZM49.81,121h0a.09.09,0,0,0-.07,0,.11.11,0,0,0,0,.07.08.08,0,0,0,0,0l0,0s0,0,0,0,0,0,0,0v0S49.8,121,49.81,121Z"/><path class="cls-8" d="M59,121.9c0,.11,0,.23,0,.34s0,.23,0,.34l-.06,0H58.8l-.07,0a.09.09,0,0,0,0,.06.05.05,0,0,0,0,.06h.13a.13.13,0,0,1,0,.08.41.41,0,0,1-.05.09l-.07.07-.06.07s0,0,0,.06l0,.07-.06.06a.09.09,0,0,1-.06,0l-.06,0a0,0,0,0,0,0,0s-.05,0-.05,0a.19.19,0,0,0,0,.08v0s0,0-.07,0l-.17.06-.21.07-.18.06-.29.1a1.39,1.39,0,0,1-.3,0,.76.76,0,0,1-.21,0l-.21-.06-.21-.07a.78.78,0,0,0-.22,0l-.12,0-.11,0a.11.11,0,0,0,0,0s0,0,0,0l0,0,0,0a.38.38,0,0,1-.14-.11l-.09-.14a1.09,1.09,0,0,1-.05-.17.5.5,0,0,1,0-.17.37.37,0,0,1,0-.11.49.49,0,0,0,0-.12.44.44,0,0,0,0-.16.88.88,0,0,1,0-.16.5.5,0,0,1,0-.12.22.22,0,0,0,0-.11.15.15,0,0,0,0-.09.19.19,0,0,1,0-.08.08.08,0,0,1,0,0s0,0,0,0a.22.22,0,0,0,0-.08v-.14s0-.06,0-.08a.14.14,0,0,1,0-.07.06.06,0,0,1,0,0,.19.19,0,0,1,.13.07.78.78,0,0,1,.11.18A1,1,0,0,1,56,122a.64.64,0,0,1,0,.15,0,0,0,0,1,0,0s0,0,0,0l0,.07a.25.25,0,0,1,0,.08.22.22,0,0,1,0,.08.19.19,0,0,0,0,.08.14.14,0,0,0,0,.06l0,.06s0,0,.05.06l0,0h.13a1.37,1.37,0,0,0,.16.18.93.93,0,0,0,.18.16l.31,0a1.51,1.51,0,0,0,.3,0l.22,0,.18-.08.15-.1a1.67,1.67,0,0,0,.16-.12l.12-.07.13-.08.12-.09.09-.12s0-.05.07-.08a.14.14,0,0,0,0-.1s0,0,0,0,0-.14,0-.21a1.7,1.7,0,0,0,0-.22.3.3,0,0,0,0-.15.28.28,0,0,0-.1-.09l-.12-.07a.91.91,0,0,1-.13-.1.29.29,0,0,0-.14-.08l-.17,0h-.17a.3.3,0,0,1-.15-.07h0l-.06,0-.06,0-.11,0a.19.19,0,0,1-.1,0l-.1,0-.11,0-.11,0h-.08s0,0-.07,0l-.11-.06a1.19,1.19,0,0,0-.38-.17.58.58,0,0,0-.1-.19.18.18,0,0,0-.07,0l-.07-.05a.87.87,0,0,1-.05-.12l-.07-.18c0-.07,0-.13,0-.19a1,1,0,0,1,0-.12.39.39,0,0,1,0-.15.24.24,0,0,1,.07-.13l0,0s0,0,0,0,0,0,0,0,0,0,0,0h0v0a.61.61,0,0,1,.07-.14l.11-.13.13-.12.13-.09.08-.08a.12.12,0,0,1,.07-.07h.19s0,0,0,0l0,0,0,0h.93l.18,0,.12,0,.13,0a.13.13,0,0,0,.08,0l0-.06,0,0,.07,0a.28.28,0,0,1,.15,0l.15.06h0s0,.05,0,.07a.5.5,0,0,0,0,.12s0,.07,0,.11a.68.68,0,0,1,.06.22.15.15,0,0,1,0,.07v.07a.22.22,0,0,0,0,.1.09.09,0,0,1,0,0,.08.08,0,0,1,0,0,.06.06,0,0,0,0,.06c0,.06,0,.12,0,.17a1.09,1.09,0,0,1,0,.18v.09a.49.49,0,0,1,0,.12.36.36,0,0,1,0,.11.08.08,0,0,1-.07,0,.13.13,0,0,1-.1,0l-.08-.07-.07-.11s0-.07,0-.12l0-.12a.54.54,0,0,0-.05-.11l-.11-.16a1.4,1.4,0,0,0-.1-.16.35.35,0,0,0-.06-.09l-.06,0h-.17a.53.53,0,0,1-.12,0l-.12,0-.12,0-.12,0a.76.76,0,0,0-.21,0l-.2.08-.2.1-.19.08a.86.86,0,0,0-.09.39.9.9,0,0,0,0,.25.62.62,0,0,0,.1.16.55.55,0,0,0,.14.12l.16.11a.47.47,0,0,0,.17.07.62.62,0,0,0,.19,0h.36l.11,0,.12,0,.12,0H58a.11.11,0,0,1,.08,0l.08,0,.07,0a.16.16,0,0,0,.09,0l.11.06.09.06.06.08a.52.52,0,0,1,.08.11.35.35,0,0,0,.1.11.4.4,0,0,1,.1.12.07.07,0,0,1,0,0,.13.13,0,0,1,0,.06l0,0s0,0,0,0a.2.2,0,0,1,0,.07Z"/><path class="cls-8" d="M64.54,122.89a.41.41,0,0,1,0,.16.75.75,0,0,1-.07.12l-.11.09-.12.1a.47.47,0,0,1-.09.06l-.07,0-.08,0-.09,0-.11.06a.31.31,0,0,1-.1,0l-.1,0-.13,0-.28,0a1.27,1.27,0,0,1-.28,0h-.05l-.07,0-.08,0-.11,0s-.09,0-.11,0l-.08,0a.17.17,0,0,1-.06-.06l-.09,0a1.31,1.31,0,0,1-.35-.22,1.42,1.42,0,0,1-.25-.3,1.27,1.27,0,0,1-.17-.35,3.59,3.59,0,0,1-.12-.39,1.36,1.36,0,0,1,0-.29.85.85,0,0,1,.08-.35.57.57,0,0,1,0-.18.63.63,0,0,1,0-.2,1.3,1.3,0,0,1,.1-.25,1.36,1.36,0,0,1,.13-.24.32.32,0,0,1,.13-.13l.06,0s0,0,0-.06a.08.08,0,0,1,0-.07l.08,0,.09,0,.07,0,.25-.1.23-.07.23,0,.27,0,.15,0,.13.06.14.07.12.07h0l.1,0a.16.16,0,0,0,.09,0,.69.69,0,0,0,.13.11l.15.12.13.12a.3.3,0,0,1,.05.15V121l0,0s0,0,0,0,0,0,0,0a.14.14,0,0,1,0,.06.11.11,0,0,1,0,0,.27.27,0,0,0,.08.07.23.23,0,0,1,.07.07.16.16,0,0,0,0,.09.25.25,0,0,0,0,.12.22.22,0,0,1,0,.11v.13a.66.66,0,0,0,0,.14.09.09,0,0,1,0,.08l-.09,0-.08,0s0,0,0,.06a0,0,0,0,1,0,0h0a1.54,1.54,0,0,1-.3,0,1,1,0,0,0-.3,0l-.32,0a1.66,1.66,0,0,1-.32,0h-.59l-.18,0-.18.05a.35.35,0,0,0-.12,0v0a.71.71,0,0,0,.09.33,1.22,1.22,0,0,0,.25.31,1.18,1.18,0,0,0,.35.23.75.75,0,0,0,.38.1h.23a.93.93,0,0,1,.22,0,.75.75,0,0,0,.17-.1l.14-.12.14-.13.15-.14s0,0,.06,0l.12,0h.19a.4.4,0,0,1,.15,0A.77.77,0,0,1,64.54,122.89ZM64,121.5a.36.36,0,0,0,0-.1l0-.1a1.23,1.23,0,0,1,0-.19.55.55,0,0,0,0-.18h0a.06.06,0,0,1,0,0l0,0-.08,0-.06,0-.24-.11-.2-.09a1,1,0,0,0-.23-.06,1.12,1.12,0,0,0-.27,0h0s0,0,0,0l0,0h0l-.15,0-.11,0-.09.06-.12.1a.14.14,0,0,1-.08,0l-.07,0L62,121l-.06,0a1.22,1.22,0,0,1-.07.17.31.31,0,0,0,0,.17.1.1,0,0,0,0,.08.3.3,0,0,0,.11.07l.14.05.16,0,.15,0h.1l.26,0a1.15,1.15,0,0,1,.26,0h.63l.14,0,.12,0A.1.1,0,0,0,64,121.5Z"/><path class="cls-8" d="M70.58,123.48a.23.23,0,0,1,0,.11.24.24,0,0,1-.06.09.2.2,0,0,1-.09.06.2.2,0,0,1-.11,0h0l0,0a.24.24,0,0,0-.11-.06H70l-.14,0a.19.19,0,0,1-.11-.12.14.14,0,0,0-.06-.07.22.22,0,0,0-.1,0,.66.66,0,0,0-.28,0l-.28.1a1.69,1.69,0,0,1-.27.11.92.92,0,0,1-.28,0h-.17l-.15,0,0,0h-.18l0,0,0,0a.17.17,0,0,1-.09.06l-.15,0a1,1,0,0,1-.17,0l-.12,0a.34.34,0,0,1-.18,0,.47.47,0,0,1-.14-.12.18.18,0,0,0,0-.07.46.46,0,0,1-.07-.07.24.24,0,0,1-.06-.08.24.24,0,0,1,0-.08.11.11,0,0,1,.05-.09l.13-.06.15,0h.12a.51.51,0,0,1,.17,0l.16,0,.14,0a.39.39,0,0,1,.15,0h.26l.16,0,.14-.08c0-.11,0-.23,0-.34s0-.22,0-.34a1.84,1.84,0,0,0,0-.33c0-.11,0-.22,0-.33v0h0s0,0,0,0a.78.78,0,0,0,0-.14.59.59,0,0,1,0-.14,1,1,0,0,1,0-.17.57.57,0,0,0,0-.18.27.27,0,0,0,0-.12.41.41,0,0,0-.07-.11.39.39,0,0,0-.1-.08.28.28,0,0,0-.13,0l-.14,0-.14,0-.16,0-.16,0-.2,0-.19,0H67.1a.35.35,0,0,1-.11,0,.19.19,0,0,1-.1,0,.13.13,0,0,1,0-.1.3.3,0,0,1,0-.18.28.28,0,0,1,.1-.09.37.37,0,0,1,.15,0h.15l.26,0h.26a1.62,1.62,0,0,1,.31,0l.32,0a.83.83,0,0,1,.22,0,.59.59,0,0,1,.17.1.46.46,0,0,1,.13.18.62.62,0,0,1,0,.25.5.5,0,0,1-.14.33s0,0,0,.06l0,0,0,0s0,0,0,.07a.2.2,0,0,0,0,.07.07.07,0,0,0,0,0c0,.12,0,.24,0,.36v.67a1.63,1.63,0,0,0,0,.31.33.33,0,0,0,0,.15.21.21,0,0,0,.15,0,1,1,0,0,0,.3,0,1.63,1.63,0,0,1,.31,0,.37.37,0,0,1,.17,0l.15.09.15.1a.2.2,0,0,0,.13,0l0,0,0,0a.11.11,0,0,0,0,.05Zm-1.66-4.17a.75.75,0,0,1,0,.2,1.14,1.14,0,0,1-.1.19.54.54,0,0,1-.15.15.38.38,0,0,1-.19.05.62.62,0,0,1-.18,0,1.17,1.17,0,0,1-.2-.06.52.52,0,0,1-.17-.12.19.19,0,0,1-.07-.16,1.11,1.11,0,0,1,0-.17.88.88,0,0,0,0-.17.19.19,0,0,0,.07-.06L68,119l.06-.08a.13.13,0,0,1,.07,0h0l.1,0h.11a.38.38,0,0,1,.17,0,.88.88,0,0,1,.2.09.5.5,0,0,1,.15.14A.21.21,0,0,1,68.92,119.31Z"/><path class="cls-8" d="M76.54,123.48a.15.15,0,0,1,0,.07l0,0,0,0a.08.08,0,0,0,0,0v0l-.26,0h-.31l0,0,0,0s0,0,0,0l-.09,0-.1,0a.2.2,0,0,0-.08,0s0,0-.07.06l-.12,0-.16,0-.16,0-.15,0a.26.26,0,0,1-.11-.07.12.12,0,0,1,0-.1v-.06a.29.29,0,0,1,0-.09.24.24,0,0,1,0-.08s0,0,0,0h.06l.07,0h0v0a.07.07,0,0,0,0,0l0,0h-.09a.37.37,0,0,0,0-.11.5.5,0,0,0,0-.12.78.78,0,0,0,0-.14,1,1,0,0,0,0-.16.57.57,0,0,0-.08-.13.19.19,0,0,0-.12-.07l0-.1-.06-.09-.08-.07a.18.18,0,0,0-.1,0,.29.29,0,0,0-.16.06.9.9,0,0,0-.19.15c-.06,0-.11.11-.16.16a.24.24,0,0,0-.06.11.17.17,0,0,0,0,.07s0,.05,0,.07a.2.2,0,0,1,0,.11.16.16,0,0,1-.06.08.16.16,0,0,0,0,.1l.1,0,.12,0,.1,0,.06,0,.08.07.06.07a.13.13,0,0,1,0,.07s0,0,0,0h-.11a.05.05,0,0,0,0,0s0,0,0,0a3.16,3.16,0,0,0-.32,0l-.31.07-.13,0h-.27l-.14,0h-.09a.4.4,0,0,1-.15,0l-.12-.09a.36.36,0,0,1-.08-.12.37.37,0,0,1,0-.15.27.27,0,0,1,0-.14.14.14,0,0,1,.13-.06l0,0a.05.05,0,0,0,0,0l0,0,0,0a.08.08,0,0,1,0,0l0,0A.35.35,0,0,0,73,123a.23.23,0,0,0,.1-.12.48.48,0,0,0,.05-.17.88.88,0,0,0,0-.17.59.59,0,0,0,0-.13.59.59,0,0,1,0-.13.39.39,0,0,1,0-.18.76.76,0,0,0,0-.21c0-.11,0-.22,0-.32s0-.21,0-.32,0-.16,0-.24a1.94,1.94,0,0,0,0-.24s0-.06,0-.09l0-.07a.25.25,0,0,1,0-.07.14.14,0,0,1,0-.07.31.31,0,0,1,0-.13.78.78,0,0,0,0-.14.68.68,0,0,0,0-.15.4.4,0,0,1,0-.15.49.49,0,0,1,0-.12.49.49,0,0,0,0-.12.26.26,0,0,0,0-.19.3.3,0,0,0-.13-.09l-.17,0-.18,0-.13,0a.17.17,0,0,1,0-.12.31.31,0,0,1,0-.17.27.27,0,0,1,.12-.09.33.33,0,0,1,.15,0h.16l.35.08.19.06.08,0,0,0a1.64,1.64,0,0,1,0,.18l0,.26a2.35,2.35,0,0,1,0,.26,1.58,1.58,0,0,1,0,.19.57.57,0,0,1,0,.18.47.47,0,0,0,0,.17.52.52,0,0,0,0,.18.63.63,0,0,1,0,.19.49.49,0,0,1,0,.12v.75l0,.25h.06a.16.16,0,0,0,.12,0,.6.6,0,0,0,.08-.08l.08-.1a.27.27,0,0,1,.1-.08.33.33,0,0,0,.14-.1,1.71,1.71,0,0,0,.11-.14,1.47,1.47,0,0,1,.1-.13.33.33,0,0,1,.14-.1.12.12,0,0,0,.09-.12s0-.07,0-.11l0-.09,0-.1a.34.34,0,0,1,0-.1v0h.06s0,0,0,0a.14.14,0,0,1,0-.06.1.1,0,0,1,0-.07h.07a.32.32,0,0,1,.14,0,.39.39,0,0,0,.15,0h.1l.1,0,.11,0h.1a.55.55,0,0,1,.18,0,.55.55,0,0,0,.18,0l.19,0a.63.63,0,0,1,.19,0h0l.06,0,0,0s0,0,0,0a.05.05,0,0,1,0,0s0,0,0,0a.08.08,0,0,0,0,0,461844306686.7,461844306686.7,0,0,1,.08.1.14.14,0,0,1,0,.06s0,.06-.08.09l-.19.07-.21,0a.5.5,0,0,1-.15,0l-.11,0a.09.09,0,0,0-.07,0,.33.33,0,0,0-.14,0l-.18.11-.2.16-.18.17-.13.17a.27.27,0,0,0,0,.13s0,.07,0,.11a.31.31,0,0,0,0,.1.11.11,0,0,0,0,.08l.07.06.08,0A.27.27,0,0,1,75,122a.85.85,0,0,0,.09.15c0,.06.09.12.13.19l.15.2.14.19a.81.81,0,0,1,.1.18.27.27,0,0,1,0,.14v0a1.37,1.37,0,0,1,.34,0h.22l.23,0v0a.2.2,0,0,0,0,.11l0,.07.06.06A.08.08,0,0,1,76.54,123.48Z"/><path class="cls-8" d="M82.26,122.11a.29.29,0,0,1,0,.09l0,.07,0,0v0a.25.25,0,0,0,0,.07.11.11,0,0,1,0,.08,0,0,0,0,1,0,0H82.1s0,.08,0,.13,0,.08,0,.12a.31.31,0,0,1,0,.13l0,0h0s0,0,0,.06,0,0,0,.08a.52.52,0,0,1-.11.1l-.12.08-.1,0h0s0,0,0,.06v.06a.06.06,0,0,1,0,.06l-.06,0-.1.07-.12.1-.12.08a.19.19,0,0,1-.12,0,.17.17,0,0,1-.1,0,.2.2,0,0,0-.11,0h-.09l-.07,0-.07,0h-.08a.39.39,0,0,1-.18,0l-.17-.08-.1,0-.11,0-.09,0a.27.27,0,0,1-.08-.07.75.75,0,0,0-.17-.14l-.2-.11-.19-.11a.57.57,0,0,1-.16-.15l-.12-.16-.12-.17a1.07,1.07,0,0,1-.09-.19.43.43,0,0,1,0-.19.53.53,0,0,1,0-.13l0-.14,0-.13a.57.57,0,0,0,0-.13v0a0,0,0,0,0,0,0s0,0,0,0l0,0h0s0,0,0-.09a.65.65,0,0,0,0-.13s0-.09,0-.13l0-.07s0,0,0,0a.06.06,0,0,0,0,0,.15.15,0,0,0,0-.06v-.05s0,0,0-.06H79a.05.05,0,0,0,0,0,1.34,1.34,0,0,1,.06-.12l.06-.1a.6.6,0,0,1,.08-.08l.11-.07.11-.08.1-.09.12-.07a.21.21,0,0,1,.12,0,.57.57,0,0,0,.18,0,.64.64,0,0,1,.17,0l.28,0a1.42,1.42,0,0,1,.29,0l.19,0,.23.07.22.09a.83.83,0,0,1,.17.11h0a.29.29,0,0,1,0,.09.44.44,0,0,0,0,.1h0a0,0,0,0,0,0,0h.11l.11,0a.12.12,0,0,0,.05.08l.09,0a.18.18,0,0,1,.08.07A.75.75,0,0,1,82,121l.06.13,0,.11a.31.31,0,0,1,0,.1.36.36,0,0,1,0,.11.69.69,0,0,1,0,.13.41.41,0,0,1,0,.11.36.36,0,0,1,0,.11l-.06.09-.06.06a.24.24,0,0,0,0,.08.06.06,0,0,0,0,0,.05.05,0,0,0,0,0h0s0,0,0,0h0a.05.05,0,0,0,0,0,.14.14,0,0,1,0-.06s0,0,0,0a0,0,0,0,1,0,0s0,0,.05,0l0,0,0,.05v0h0v.06Zm-.34,0a.07.07,0,0,0,0-.06l-.1,0h-.1s-.05,0-.07-.05v0a1.21,1.21,0,0,0,0-.18c0-.07,0-.14,0-.21l-.06-.2a1.89,1.89,0,0,0-.06-.18,1.89,1.89,0,0,1-.06-.18h0l-.1,0-.1-.06-.13,0-.2,0-.28,0-.28,0a.74.74,0,0,0-.36.09.92.92,0,0,0-.29.23,1,1,0,0,0-.2.32.92.92,0,0,0-.07.36V122a1.49,1.49,0,0,0,0,.21.65.65,0,0,0,0,.19.3.3,0,0,0,.09.13v.09l0,0h.09a0,0,0,0,1,0,0,.43.43,0,0,0,.12.2l.15.11.17.1a.58.58,0,0,1,.15.13h.12l.21,0h.21a.42.42,0,0,0,.2,0,.57.57,0,0,0,.16-.15l.08-.1.07-.08.08-.07.1-.07,0,0,0,0,0,0a.06.06,0,0,0,0,0v-.06a.15.15,0,0,1,0-.06.28.28,0,0,1,0-.09.32.32,0,0,1,0-.09.18.18,0,0,1,.05-.07.13.13,0,0,1,.08,0h.08l.07,0S81.92,122.15,81.92,122.13Z"/><path class="cls-8" d="M87.72,122.39a1.49,1.49,0,0,1,0,.21l-.06.19-.06.19a1.46,1.46,0,0,0,0,.2.55.55,0,0,1-.13.29.79.79,0,0,1-.22.18l-.29.1-.32,0-.34,0-.3,0-.08-.08-.07-.08-.06-.07a.16.16,0,0,0-.1,0s0,0,0-.06a.69.69,0,0,0,0-.13s0-.09,0-.12,0-.06,0-.06a.23.23,0,0,1-.13,0l-.07-.09a.27.27,0,0,1,0-.12.57.57,0,0,1,0-.13.29.29,0,0,0,0-.09.56.56,0,0,1,0-.08l0-.08a.11.11,0,0,1,0-.08v-.13s0-.11,0-.16a.92.92,0,0,0,0-.16.66.66,0,0,0,0-.13.28.28,0,0,1,0-.1.59.59,0,0,1,0-.08l0-.05a.14.14,0,0,0,0-.06.11.11,0,0,0,0-.06.14.14,0,0,1,0-.06.11.11,0,0,1,0-.07l0-.08a1,1,0,0,0,0-.3v0s0,0,0-.06a.38.38,0,0,0-.17-.08l-.19,0-.19,0a.21.21,0,0,1-.15-.07.43.43,0,0,1-.09-.1.21.21,0,0,0-.11-.08l-.08,0a.1.1,0,0,1,0-.09.17.17,0,0,1,0-.12l.12-.07.14,0,.13-.06a.16.16,0,0,1,.12,0H85a.26.26,0,0,0,.14,0,.24.24,0,0,0,.09-.08.26.26,0,0,0,.05-.12.61.61,0,0,0,0-.14,1.48,1.48,0,0,0,0-.21,1.49,1.49,0,0,1,0-.21.64.64,0,0,1,0-.24.38.38,0,0,1,.13-.19l0-.05s0,0,0,0l.06,0,.06,0h0l0,0,.1.11a.29.29,0,0,1,0,.09V119a.19.19,0,0,0,0,.08.83.83,0,0,0,0,.22.67.67,0,0,1,0,.18.27.27,0,0,1,0,.12.59.59,0,0,0,0,.13.29.29,0,0,0,0,.09l0,.07a.35.35,0,0,1,.05.08.16.16,0,0,1,0,.09.3.3,0,0,0,.15,0l.27,0h.55l.14,0,.08,0,.06,0,.07,0a.14.14,0,0,1,.09,0s0,0,0,.08a.17.17,0,0,1,0,.13.28.28,0,0,1-.11.08l-.13,0H86.6a1.39,1.39,0,0,0-.3,0,.54.54,0,0,0-.23.1.4.4,0,0,0-.15.19.67.67,0,0,0-.06.3c0,.11,0,.23,0,.34a2,2,0,0,1,0,.34v.27a.62.62,0,0,0,0,.16.78.78,0,0,1,.07.23c0,.08,0,.16.07.24a.52.52,0,0,0,.12.19.34.34,0,0,0,.23.08l.14,0,.17,0a.36.36,0,0,0,.15-.08.13.13,0,0,0,.06-.11.19.19,0,0,0,0-.12.28.28,0,0,1,0-.13.19.19,0,0,1,0-.08l.06-.07.08,0,.07,0a.93.93,0,0,1,.15-.13.41.41,0,0,1,.19,0l.13,0,.12.06A.62.62,0,0,1,87.72,122.39Z"/><path class="cls-8" d="M93,122.56a.28.28,0,0,1,0,.09.59.59,0,0,1,0,.08l0,.09a.19.19,0,0,0,0,.08.51.51,0,0,1-.07.17l-.12.14-.15.12-.13.12a.14.14,0,0,1-.11,0h-.13l-.08,0,0,0-.07,0-.09,0a.15.15,0,0,0-.09,0,.13.13,0,0,1-.08,0,.43.43,0,0,1-.14,0,.43.43,0,0,0-.17,0h-.23l-.1,0-.1,0-.09,0h-.1a.23.23,0,0,0-.17.05.47.47,0,0,0-.13.11,1.36,1.36,0,0,1-.12.12.18.18,0,0,1-.12,0,.14.14,0,0,1-.09,0,.09.09,0,0,1,0,0s0,0,0-.07a.09.09,0,0,0,0-.07.3.3,0,0,1-.07-.1.37.37,0,0,1,0-.12,1.66,1.66,0,0,1,0-.32,1.66,1.66,0,0,0,0-.32.37.37,0,0,0,0-.11l0-.1a.59.59,0,0,1,0-.08s0,0,0,0a.25.25,0,0,1,0-.07l0-.06a.12.12,0,0,1,0-.05l0,0,.06,0,0,0,0,0,.06,0h0a.67.67,0,0,1,.07.17l.06.17a.87.87,0,0,0,.07.17.41.41,0,0,0,.12.14.1.1,0,0,0,0,0l.06,0a.1.1,0,0,0,0,0h.2s.06,0,.06,0v0h.06a1.09,1.09,0,0,0,.26,0,1.24,1.24,0,0,1,.27,0h.12a.26.26,0,0,1,.12,0l.11-.08.09-.09a.43.43,0,0,1,.1-.09.39.39,0,0,1,.14,0,.06.06,0,0,0,0,0,.13.13,0,0,0,0-.06v-.05s0,0,0,0a.18.18,0,0,0,0-.07.15.15,0,0,0,0-.08.37.37,0,0,0,0-.17l-.13-.15-.19-.12-.21-.09-.21,0a.56.56,0,0,0-.17,0h-.17a.58.58,0,0,0-.17.06s0-.09,0-.1l-.08,0a.19.19,0,0,1-.1,0,.15.15,0,0,1-.08-.08.3.3,0,0,1-.14.11.57.57,0,0,1-.18,0,.41.41,0,0,1-.16,0,.39.39,0,0,1-.23-.23.29.29,0,0,1,0-.16.29.29,0,0,0,0-.1l0-.09a.56.56,0,0,1,0-.08.37.37,0,0,1,0-.11,1.63,1.63,0,0,1,0-.24.33.33,0,0,1,0-.13s0-.06.05-.07l.06,0,.06,0a.38.38,0,0,0,.05-.11.08.08,0,0,1,0-.07.1.1,0,0,1,.07,0l.06,0,0,0v0s0,0,0,0a.24.24,0,0,1,.14-.06l.15,0H91l.29,0h.28l.2,0,.16,0,.11,0a.18.18,0,0,0,.09,0,.23.23,0,0,0,.11,0l.11,0,.06,0,.08,0,0,0a.06.06,0,0,0,0,0l.1,0,.08.08a.47.47,0,0,1,0,.1.2.2,0,0,1,0,.1,2.26,2.26,0,0,1,0,.26,1,1,0,0,0,0,.25.88.88,0,0,0,0,.24l-.1.07a.39.39,0,0,0-.1.08h0l-.06-.06-.08-.06-.07,0-.07,0h0l0,0a0,0,0,0,1,0,0,.14.14,0,0,1,0-.07.11.11,0,0,0,0-.06l0,0a.46.46,0,0,0-.07-.07l-.08-.08,0,0-.08,0-.07,0-.07,0h-.39a.9.9,0,0,1-.22-.06.57.57,0,0,0-.22,0,.21.21,0,0,0-.15,0,.28.28,0,0,0-.08.11.86.86,0,0,1-.07.1s0,0-.1,0h0a1.89,1.89,0,0,0,.06.18s0,.1.07.14l.11.11.15.12,0,0,0,0,0,0h0l.11,0,.11,0,.08,0,.08,0,.08,0h.15l.21,0h.21a.4.4,0,0,1,.15,0l.15.07.13.1a.57.57,0,0,1,.11.11l.07.09.08.07.07.09a.31.31,0,0,1,.05.1s0,.1,0,.15A.49.49,0,0,1,93,122.56Z"/><path class="cls-8" d="M99.41,123.39a.33.33,0,0,1,0,.13.64.64,0,0,1-.1.13.6.6,0,0,1-.13.09.24.24,0,0,1-.13,0l-.21,0h-.33s-.08,0-.09,0a.2.2,0,0,1-.12-.06.36.36,0,0,1-.07-.1l-.06-.1a.16.16,0,0,0-.1-.08l-.34.17-.3.14a1.4,1.4,0,0,1-.31.09,1.51,1.51,0,0,1-.39,0h-.14l-.07,0a.21.21,0,0,1,0-.06.46.46,0,0,0-.07-.1l-.05,0h-.07l-.06,0s0,0,0-.06a.26.26,0,0,0,0-.1.61.61,0,0,0-.07-.1l-.08-.1a.45.45,0,0,0-.07-.07v-.34c0-.23,0-.46,0-.68s0-.45,0-.68a.82.82,0,0,0,0-.14,1.09,1.09,0,0,0,0-.18.71.71,0,0,0,0-.17.15.15,0,0,0-.08-.09h-.32a.9.9,0,0,1-.16,0,.26.26,0,0,1-.13-.09.22.22,0,0,1-.07-.09.17.17,0,0,1,0-.11.19.19,0,0,1,.08-.15.69.69,0,0,1,.17-.1l.21-.05.17,0a1,1,0,0,1,.36.06,1,1,0,0,1,.31.18h0a1.36,1.36,0,0,0,0,.2.65.65,0,0,1,0,.2.34.34,0,0,1,0,.1.36.36,0,0,0,0,.1.5.5,0,0,0,0,.12.49.49,0,0,1,0,.12.17.17,0,0,1,0,.07v.08a.75.75,0,0,0,0,.21.65.65,0,0,1,0,.2.52.52,0,0,1,0,.18c0,.06,0,.12,0,.18a1.21,1.21,0,0,0,0,.18.9.9,0,0,0,0,.18.59.59,0,0,0,.05.23.55.55,0,0,0,.14.19.53.53,0,0,0,.2.13.59.59,0,0,0,.23,0,.4.4,0,0,0,.17,0,.28.28,0,0,0,.11,0,.18.18,0,0,0,.07,0l0,0h.1l.08,0a.12.12,0,0,0,0-.05s0,0,.05,0l.07,0,.14,0a.12.12,0,0,0,.06-.12v0H98l0,0,0,0s0,0,0,0a.26.26,0,0,1,.07-.11.16.16,0,0,0,0-.11.5.5,0,0,1,0-.13.27.27,0,0,0,0-.12.2.2,0,0,0,0-.11.17.17,0,0,1,0-.1.35.35,0,0,1,0-.14.59.59,0,0,0,0-.14.15.15,0,0,1,0-.06.14.14,0,0,1,0-.07.12.12,0,0,1,0-.07s0,0,0,0a.2.2,0,0,0,0-.07l0-.06,0-.06a.14.14,0,0,1,0-.07s0,0,0-.06a.19.19,0,0,0,0-.07.17.17,0,0,0,0-.1.23.23,0,0,0-.07-.07l-.08,0-.1,0h-.15l-.11,0a.1.1,0,0,1-.08,0,.32.32,0,0,1-.08-.13.22.22,0,0,1,0-.1.16.16,0,0,1,.08-.13.67.67,0,0,1,.17-.08l.2,0h.37l.12,0,.11,0a.22.22,0,0,1,.14,0,.36.36,0,0,1,.08.12.85.85,0,0,1,0,.17c0,.06,0,.13,0,.19s0,.16,0,.24a1.21,1.21,0,0,0,0,.18,1.27,1.27,0,0,0,0,.28,1,1,0,0,1,0,.23.14.14,0,0,1,0,.07l0,.07,0,.07a.19.19,0,0,0,0,.07s0,0,0,0l0,.19,0,0a.06.06,0,0,0,0,0,.36.36,0,0,0,0,.1s0,.08,0,.12a.5.5,0,0,1,0,.12.62.62,0,0,0,0,.13.28.28,0,0,0,.11.24.37.37,0,0,0,.25.09.51.51,0,0,0,.17,0,.2.2,0,0,0,.06.09l.09.08a.27.27,0,0,1,.07.08A.27.27,0,0,1,99.41,123.39Z"/><path class="cls-8" d="M105.25,123.48a.43.43,0,0,1,0,.11l-.06.09a.47.47,0,0,1-.09.06.25.25,0,0,1-.12,0h0s0,0,0,0a.23.23,0,0,0-.12-.06h-.14l-.14,0a.22.22,0,0,1-.11-.12.14.14,0,0,0-.06-.07l-.09,0a.71.71,0,0,0-.29,0l-.27.1-.27.11a1,1,0,0,1-.29,0H103l-.16,0,0,0h-.17l0,0,0,0-.09.06-.16,0-.16,0-.12,0a.3.3,0,0,1-.18,0,.31.31,0,0,1-.14-.12l-.06-.07a.46.46,0,0,1-.07-.07l-.06-.08a.24.24,0,0,1,0-.08.1.1,0,0,1,.06-.09l.13-.06.15,0H102a.51.51,0,0,1,.17,0l.16,0,.15,0a.32.32,0,0,1,.14,0h.26l.16,0,.14-.08c0-.11,0-.23,0-.34s0-.22,0-.34a1.83,1.83,0,0,0,0-.33,1.84,1.84,0,0,1,0-.33s0,0,0,0h0v0a.36.36,0,0,0,0-.14.59.59,0,0,1,0-.14.51.51,0,0,1,0-.17,1.1,1.1,0,0,0,0-.18.27.27,0,0,0,0-.12.26.26,0,0,0-.07-.11.39.39,0,0,0-.1-.08.27.27,0,0,0-.12,0l-.15,0-.14,0-.15,0-.17,0-.19,0a1.38,1.38,0,0,1-.2,0h-.11l-.11,0a.13.13,0,0,1-.09,0,.11.11,0,0,1,0-.1.3.3,0,0,1,0-.18.31.31,0,0,1,.11-.09.33.33,0,0,1,.14,0H102l.26,0h.26a1.72,1.72,0,0,1,.32,0l.31,0a.78.78,0,0,1,.22,0,.52.52,0,0,1,.18.1.57.57,0,0,1,.12.18.62.62,0,0,1,0,.25.39.39,0,0,1,0,.18.31.31,0,0,1-.1.15l0,.06,0,0,0,0s0,0,0,.07,0,0,0,.07a.07.07,0,0,0,0,0v.36c0,.12,0,.24,0,.36v.31c0,.1,0,.21,0,.31a.53.53,0,0,0,0,.15.21.21,0,0,0,.15,0,1.1,1.1,0,0,0,.31,0,1.53,1.53,0,0,1,.3,0,.34.34,0,0,1,.17,0l.16.09a.71.71,0,0,0,.14.1.22.22,0,0,0,.13,0l0,0,0,0a.43.43,0,0,1,0,.05Zm-1.66-4.17a.75.75,0,0,1,0,.2.5.5,0,0,1-.1.19.67.67,0,0,1-.14.15.46.46,0,0,1-.2.05.62.62,0,0,1-.18,0,1.52,1.52,0,0,1-.2-.06.52.52,0,0,1-.17-.12.22.22,0,0,1-.07-.16,1.11,1.11,0,0,1,0-.17.88.88,0,0,0,0-.17.13.13,0,0,0,.07-.06.86.86,0,0,0,.07-.1l.06-.08s.05,0,.07,0h0l.1,0H103a.45.45,0,0,1,.18,0,.82.82,0,0,1,.19.09.7.7,0,0,1,.16.14A.25.25,0,0,1,103.59,119.31Z"/><path class="cls-8" d="M111.3,123.52a.19.19,0,0,1,0,.08l-.06.05-.08,0H111l-.11,0-.16,0-.17,0h-.08l-.11,0-.12,0a.58.58,0,0,1-.19,0l-.19,0a.35.35,0,0,1-.25-.12.52.52,0,0,1-.1-.27,1.09,1.09,0,0,1,.23-.09,1,1,0,0,1,.24,0h.27a4.4,4.4,0,0,0,0-.51,4.67,4.67,0,0,1,0-.52V122l0-.18a.85.85,0,0,1,0-.17.57.57,0,0,0,0-.18.36.36,0,0,0,0-.11.42.42,0,0,0,0-.1.16.16,0,0,1,0-.09s0-.07,0-.11l0-.1a.22.22,0,0,0-.07-.09.32.32,0,0,0-.13-.07l-.21,0h-.12l-.17,0-.16,0a.29.29,0,0,0-.1.06l0,0L109,121l-.05.06,0,0h-.08l0,0,0,0a.59.59,0,0,1,0,.08l0,0s0,0,0,0h0l0,0s0,0,0,0l0,0v.09s0,0,0,0h0s0,0,0,.07a.1.1,0,0,1,0,.07l0,.06,0,.06a.19.19,0,0,0,0,.08.57.57,0,0,0,0,.13.27.27,0,0,1,0,.13s0,.06,0,.07l0,.06,0,0s0,0,0,.06a.29.29,0,0,0,0,.09.59.59,0,0,1,0,.08l0,.08a.36.36,0,0,1,0,.1.5.5,0,0,1,0,.12.49.49,0,0,0,0,.12.31.31,0,0,0,0,.11.17.17,0,0,0,.06.06l.08,0,.1,0,.1,0a.32.32,0,0,1,.1.1h0s.07,0,.08,0a.22.22,0,0,1,0,.1.13.13,0,0,1,0,.09.2.2,0,0,0,0,.09s0,.05-.09.07l-.2,0-.22,0h-.67l-.21,0-.16,0a.19.19,0,0,1-.08-.07l0-.09a.38.38,0,0,1,0-.1s0-.07,0-.09l.06-.08a.34.34,0,0,1,.12-.06h.24a.12.12,0,0,0,.09,0,.26.26,0,0,0,.07-.14.91.91,0,0,0,0-.27.28.28,0,0,0,0-.09s0-.06,0-.09a.24.24,0,0,1,0-.08.11.11,0,0,1,0,0s0,0,0,0l0,0,0-.06a.15.15,0,0,0,0-.07.36.36,0,0,0,0-.11.23.23,0,0,1,0-.11.31.31,0,0,1,0-.1.29.29,0,0,0,0-.09.19.19,0,0,0,0-.07.19.19,0,0,1,0-.08.17.17,0,0,1,0-.07.31.31,0,0,0,0-.08,1.23,1.23,0,0,0,0-.19,1.16,1.16,0,0,1,0-.18.3.3,0,0,0-.08-.16.35.35,0,0,0-.13-.08l-.15,0a.34.34,0,0,1-.14,0,.27.27,0,0,1-.11-.1.37.37,0,0,1,0-.2.17.17,0,0,1,.05-.14l.13-.07.16,0h.14l.2,0a.71.71,0,0,0,.2,0,.11.11,0,0,1,.08,0l.08.06a.35.35,0,0,1,0,.08.16.16,0,0,1,0,.09.23.23,0,0,0,0,.07l0,.11,0,.1s0,0,0,0l0,0s0,0,0,0,0,0,0,0l.1-.08.1-.07.07,0s0,0,0,0l0,0,0,0H109l.07,0,.09-.08.14-.07a.78.78,0,0,1,.24,0h.25l.24,0a.85.85,0,0,1,.22.09.63.63,0,0,1,.17.19l.1.13a.24.24,0,0,1,.06.09.17.17,0,0,1,0,.1.81.81,0,0,1,0,.17.29.29,0,0,0,0,.09.36.36,0,0,0,0,.09.39.39,0,0,1,0,.09.36.36,0,0,1,0,.11,1.64,1.64,0,0,1,0,.23,1.93,1.93,0,0,0,0,.24.47.47,0,0,1,0,.17.35.35,0,0,0,0,.17.24.24,0,0,0,0,.08.11.11,0,0,1,0,.08.49.49,0,0,1,0,.12.49.49,0,0,0,0,.12.3.3,0,0,0,0,.1.12.12,0,0,1,0,.09s0,0,0,0l0,0,0,0a.09.09,0,0,0,0,0,.19.19,0,0,0,0,.1.21.21,0,0,0,.06.1l.1.07.1,0a.08.08,0,0,0,.07,0h.08a.09.09,0,0,1,.08,0,.22.22,0,0,1,.07.09.54.54,0,0,1,.05.11A.38.38,0,0,1,111.3,123.52Zm-3-1.37a.13.13,0,0,0,0-.06.19.19,0,0,0,0-.07.1.1,0,0,0,0,0,.06.06,0,0,0,0,0,.08.08,0,0,0-.07,0l-.07,0h0a.17.17,0,0,0,0,.07v0h0a.07.07,0,0,0,0,.06l.06,0,.08,0,.06,0A.11.11,0,0,0,108.34,122.15Zm2.22.08a.14.14,0,0,0,0-.07l-.06,0a0,0,0,0,0,0,0,.25.25,0,0,0,0,.07.19.19,0,0,0,0,.07s0,0,0,0l.06,0a.13.13,0,0,0,0-.08Zm.06.65,0,0,0,0a.08.08,0,0,1,0,0l0,0,0,0a.17.17,0,0,0,0,0,.05.05,0,0,0,0,0l0,0s0,0,0,0l0,0,0,0A.08.08,0,0,0,110.62,122.88Z"/></g><g id="donguriseikotsuin-ja" class="cls-7"><path class="cls-8" d="M3,98.57a1.44,1.44,0,0,1,.74.59,3.38,3.38,0,0,1,.41,1,6,6,0,0,1,.17,1.06v.29a4.51,4.51,0,0,0,0,.52.91.91,0,0,0,.13.42.6.6,0,0,0,.43.19,2.15,2.15,0,0,0,.67,0l.56-.18a4,4,0,0,0,.68-.29,1.28,1.28,0,0,0,.48-.47,4.8,4.8,0,0,1,.6.49,2,2,0,0,1,.4.48,2.12,2.12,0,0,1,.25.89,1.81,1.81,0,0,1-.27.87,1.36,1.36,0,0,1-.49.45,2.67,2.67,0,0,1-.83.33l-.4.09-.65.15a3.81,3.81,0,0,0-.47.15,5.64,5.64,0,0,0-.71.4,3.74,3.74,0,0,0-1,1,3.56,3.56,0,0,0-.31.58,2.56,2.56,0,0,0-.18.8,1.6,1.6,0,0,0,.21.83,1.2,1.2,0,0,0,.54.57l.44.19a1.46,1.46,0,0,1,.41.23.73.73,0,0,1,.32.55,1.6,1.6,0,0,1-.12.73,2.13,2.13,0,0,1-.44.69,1.93,1.93,0,0,1-.68.47,1.76,1.76,0,0,1-.89.13,2.74,2.74,0,0,1-1-.4,3.66,3.66,0,0,1-.93-.79A5.13,5.13,0,0,1,.72,111a6.58,6.58,0,0,1-.46-1A3.91,3.91,0,0,1,0,108.86a4.2,4.2,0,0,1,.28-1.62,4,4,0,0,1,.93-1.47,1.55,1.55,0,0,0,.35-.57,1.78,1.78,0,0,0,.1-.52,1.45,1.45,0,0,0-.09-.41c-.07-.19-.13-.4-.19-.62a3.11,3.11,0,0,1-.1-.65c0-.09,0-.26,0-.5s0-.52-.05-.83-.05-.57-.06-.82a3.91,3.91,0,0,0-.06-.5c0-.19-.09-.43-.17-.71a2.32,2.32,0,0,0-.36-.78,2.36,2.36,0,0,1,.92-.33,3.94,3.94,0,0,1,1,0A2,2,0,0,1,3,98.57Zm4.48.71a.25.25,0,0,0-.12.19,1.67,1.67,0,0,1-.06.29.59.59,0,0,1-.25.31.65.65,0,0,1-.53.1.85.85,0,0,1-.5-.3.76.76,0,0,1-.2-.54.53.53,0,0,1,.23-.45.66.66,0,0,1,.51-.14A.57.57,0,0,0,7,98.67a.3.3,0,0,0,.13-.21,1.11,1.11,0,0,1,0-.28.68.68,0,0,1,.25-.32.66.66,0,0,1,.53-.1.86.86,0,0,1,.5.31.81.81,0,0,1,.21.53.6.6,0,0,1-.24.46.76.76,0,0,1-.38.18,1.47,1.47,0,0,1-.31,0A.26.26,0,0,0,7.49,99.28Z"/><path class="cls-8" d="M20.43,100.53a2.29,2.29,0,0,1,0,1.16,7.39,7.39,0,0,1-.43,1.16c-.17.39-.32.75-.45,1.1s-.29.73-.47,1.15-.36.82-.5,1.19a3.36,3.36,0,0,0-.24.88.68.68,0,0,0,.27.57.7.7,0,0,0,.68.12c.63-.19,1.13-.33,1.52-.41a5.15,5.15,0,0,1,.93-.15,2.23,2.23,0,0,1,.65,0,1,1,0,0,1,.57.36c.17.2.35.38.53.56a.79.79,0,0,0,.58.26,1.33,1.33,0,0,0,.56-.19,3.68,3.68,0,0,0,.62-.46,2.94,2.94,0,0,0,.51-.56,1,1,0,0,0,.23-.52,5.89,5.89,0,0,1,.63.24,3.8,3.8,0,0,1,.8.5,1,1,0,0,1,.42.7,1.9,1.9,0,0,1,0,.71,1.64,1.64,0,0,1-.29.68,3.89,3.89,0,0,1-.76.81A3,3,0,0,1,26,111a5.09,5.09,0,0,1-1.28.39,5.55,5.55,0,0,1-1.65.06,1.51,1.51,0,0,1-.75-.25,2,2,0,0,1-.41-.43,1.48,1.48,0,0,0-.3-.34,1.09,1.09,0,0,0-.79-.1,5.35,5.35,0,0,0-1.69.74l-.5.22c-.26.11-.54.21-.83.31a3.43,3.43,0,0,1-.7.18,2.19,2.19,0,0,1-.69-.06,1.68,1.68,0,0,1-.77-.42,1.78,1.78,0,0,1-.49-1,4.24,4.24,0,0,1,0-1,11.66,11.66,0,0,1,.14-1.25c.07-.43.15-.86.23-1.27s.16-.77.23-1.08.13-.52.15-.64.1-.35.18-.65.19-.64.31-1,.23-.75.34-1.12.21-.68.29-.94.13-.41.14-.47a5.07,5.07,0,0,0,.16-.76,7.61,7.61,0,0,0,.09-.77,3.05,3.05,0,0,0,0-.51c.14,0,.37.11.69.22a10.38,10.38,0,0,1,1,.43A6.71,6.71,0,0,1,20,100,1,1,0,0,1,20.43,100.53Z"/><path class="cls-8" d="M42.14,100.26a2.39,2.39,0,0,1-.18,1,3.93,3.93,0,0,1-.5.82,5.93,5.93,0,0,1-.59.62c-.27.27-.58.56-.92.88s-.68.63-1,1-.62.62-.86.9a2.21,2.21,0,0,0-.45.68.79.79,0,0,0-.06.53,1.58,1.58,0,0,0,.14.31,3.53,3.53,0,0,0,.55.61,9.55,9.55,0,0,0,.82.68c.29.22.54.4.76.54l.4.25.44.08a1.57,1.57,0,0,0,.47,0,2.24,2.24,0,0,1,.38.62,6.54,6.54,0,0,1,.33.91,1.67,1.67,0,0,1,.06.81,1.65,1.65,0,0,1-.14.37,1.1,1.1,0,0,1-.38.45,1.21,1.21,0,0,1-.68.11,2.86,2.86,0,0,1-1.19-.41,13.68,13.68,0,0,1-2.18-1.53,20.26,20.26,0,0,1-2.57-2.63,2.44,2.44,0,0,1-.47-.88,2.58,2.58,0,0,1-.09-.87,2.36,2.36,0,0,1,.26-1,2.86,2.86,0,0,1,.49-.7l.58-.62c.25-.28.55-.6.87-1l1-1.11,1-1.06.74-.83.36-.42a4.09,4.09,0,0,0,.42-.65,2.34,2.34,0,0,0,.28-.77,2.86,2.86,0,0,1,1.49,1A2.16,2.16,0,0,1,42.14,100.26ZM44,104.35a.33.33,0,0,0-.12.21,1.67,1.67,0,0,1-.06.29.64.64,0,0,1-.25.31.66.66,0,0,1-.53.1.93.93,0,0,1-.51-.32.88.88,0,0,1-.19-.53.55.55,0,0,1,.23-.46.74.74,0,0,1,.52-.14.51.51,0,0,0,.41-.07.27.27,0,0,0,.13-.2,1.12,1.12,0,0,1,0-.27.68.68,0,0,1,.25-.32.62.62,0,0,1,.53-.12.84.84,0,0,1,.5.32.74.74,0,0,1,.2.53.55.55,0,0,1-.23.46.73.73,0,0,1-.39.17,1.42,1.42,0,0,1-.3,0A.29.29,0,0,0,44,104.35Z"/><path class="cls-8" d="M54.69,105.34a4.21,4.21,0,0,1-.22.67c-.12.29-.25.57-.39.85a4.11,4.11,0,0,1-.36.62,1.81,1.81,0,0,1-.52.41,1,1,0,0,1-.6.1,5.59,5.59,0,0,1-.56-.12.88.88,0,0,1-.51-.34,2.17,2.17,0,0,1-.33-1,9.59,9.59,0,0,1-.06-1c0-.44,0-.92,0-1.45s0-1,0-1.51,0-.88,0-1.17a13.66,13.66,0,0,0-.21-1.66,4.34,4.34,0,0,0-.35-1.13,1.17,1.17,0,0,1,.51-.12,4.14,4.14,0,0,1,1.63.21,1.44,1.44,0,0,1,.6.34,2.26,2.26,0,0,1,.6,1.06,7.6,7.6,0,0,1,.21,1.4,13.26,13.26,0,0,1,0,1.4c0,.44,0,.78,0,1a1.79,1.79,0,0,0,.2,1A1,1,0,0,0,54.69,105.34Zm5.66-3.56a6.64,6.64,0,0,1,0,.84c0,.35,0,.72,0,1.1s0,.71,0,1,0,.51,0,.63c-.07,1-.16,1.91-.27,2.72s-.21,1.47-.31,2-.16.83-.19,1a2.41,2.41,0,0,1-.53,1.13,1.15,1.15,0,0,1-.92.47,1.59,1.59,0,0,1-1.18-.5,2.31,2.31,0,0,1-.63-1.15c.09,0,.19-.23.29-.57s.19-.78.28-1.3.18-1.07.26-1.64.14-1.13.19-1.65.08-1,.1-1.3,0-.9,0-1.42,0-1-.07-1.56-.09-1-.15-1.4a5.5,5.5,0,0,0-.22-.94,1.47,1.47,0,0,1,.5,0,5.78,5.78,0,0,1,.74.11,2.51,2.51,0,0,1,.71.28,2.76,2.76,0,0,1,1.08,1A2.64,2.64,0,0,1,60.35,101.78Z"/><path class="cls-8" d="M80.82,110.82a1.61,1.61,0,0,1,.31.38.72.72,0,0,1,.09.45.59.59,0,0,1-.26.43,1.38,1.38,0,0,1-.77.23l-1.13,0-1.94,0H69.63l-2,0-1.19,0a1.48,1.48,0,0,1-1-.38,1.36,1.36,0,0,1-.26-1.11h1.5a.76.76,0,0,0,.61-.24.8.8,0,0,0,.21-.51c0-.11,0-.29,0-.53s0-.57,0-1a10.54,10.54,0,0,1,1.27,0,2.94,2.94,0,0,1,1.15.24.58.58,0,0,1,.42.54v.37a3,3,0,0,1,0,.42,1,1,0,0,0,.16.43.54.54,0,0,0,.51.26,1,1,0,0,0,.69-.19.71.71,0,0,0,.25-.48c0-.21,0-.39,0-.53a3,3,0,0,0-.06-.53.64.64,0,0,0-.29-.45,1.28,1.28,0,0,0-.77-.21H68.54c-.66,0-1.15,0-1.45,0a1.49,1.49,0,0,1-1-.39,1.32,1.32,0,0,1-.26-1.09h2a.67.67,0,0,0,.38-.09.38.38,0,0,0,.17-.19,1.83,1.83,0,0,0,.07-.23.41.41,0,0,0,0-.22.29.29,0,0,0-.17-.21.17.17,0,0,0-.25,0l-.19.17-.2.18a1.25,1.25,0,0,1-.49.27,1.9,1.9,0,0,1-.54.07,4.06,4.06,0,0,1-1.36-.31l.6-.62.47-.48c.15-.16.25-.27.31-.35a.52.52,0,0,0,.13-.47.35.35,0,0,0-.2-.27,1.69,1.69,0,0,1-.57-.4,1.29,1.29,0,0,1-.29-.82c0-.15,0-.37,0-.64v-.84c0-.29,0-.63,0-1H68.1a.26.26,0,0,0,.28-.24s0,0-.08-.1a.29.29,0,0,0-.21-.08h-.44l-.73,0-.56,0a1.36,1.36,0,0,1-.92-.46,1.29,1.29,0,0,1-.22-1.06h2.69a.6.6,0,0,0,.36-.12.33.33,0,0,0,.17-.25v-.36l.64,0a4,4,0,0,1,.77,0,1.12,1.12,0,0,1,.61.28l.23.26a.47.47,0,0,0,.42.19h2.48a1.57,1.57,0,0,1,.4.64.6.6,0,0,1-.15.52,1.12,1.12,0,0,1-.55.29,3.36,3.36,0,0,1-.48,0l-.69,0-.66,0h-.37a.66.66,0,0,0-.25,0q-.12.06-.12.15c0,.14.15.22.46.22h1.88a1.28,1.28,0,0,0,.4-.09.71.71,0,0,0,.37-.24,3.39,3.39,0,0,0,.2-.34c.1-.18.21-.39.33-.64s.23-.47.34-.7.23-.5.37-.81a5,5,0,0,1,.85.2,2.1,2.1,0,0,1,.67.33.49.49,0,0,1,.23.46c0,.06,0,.14,0,.24s0,.18,0,.23a.34.34,0,0,0,.24.32,1.39,1.39,0,0,0,.5.1h3.37a1.21,1.21,0,0,1,.37.62.63.63,0,0,1-.13.55,1,1,0,0,1-.52.31,1.34,1.34,0,0,0-.25.11,1.86,1.86,0,0,0-.48.45,7.1,7.1,0,0,0-.48.62c-.16.25-.3.48-.43.7a1.89,1.89,0,0,0-.17.47.62.62,0,0,0,.15.57l.33.36.55.55.6.59.65.65a5,5,0,0,1-.63.61.8.8,0,0,0-.19.28.55.55,0,0,0,0,.4.45.45,0,0,1,0,.34.61.61,0,0,1-.27.46,1.65,1.65,0,0,1-.83.22H77.65l-1,0H75.32a1,1,0,0,0-.32.07c-.09,0-.13.09-.12.16s.16.23.47.23h4.3a.93.93,0,0,1,.28.31.81.81,0,0,1,.12.41.67.67,0,0,1-.21.47,1.19,1.19,0,0,1-.74.26,7.75,7.75,0,0,1-.84,0H75.35c-.34,0-.51.1-.51.22s.14.24.48.24ZM68.09,103c.19,0,.3-.09.32-.25a3,3,0,0,0,0-.39,1.17,1.17,0,0,0,0-.3c0-.11-.14-.16-.32-.16s-.3.06-.33.18a1.16,1.16,0,0,0-.06.34,1.59,1.59,0,0,0,.07.36C67.79,102.94,67.9,103,68.09,103Zm3.21,3.89h1.52a1.67,1.67,0,0,0,.57-.26l.48-.32a1.91,1.91,0,0,0,.26-.3l.38-.53c.14-.2.27-.39.38-.57a3.27,3.27,0,0,0,.23-.41,2.54,2.54,0,0,0,.22-.6.88.88,0,0,0,0-.54.84.84,0,0,0-.21-.33,1.69,1.69,0,0,0-.28-.26.66.66,0,0,0-.28-.13,1.46,1.46,0,0,0-.59,0,1.43,1.43,0,0,0-.38.12c-.17.06-.27.25-.32.54a.59.59,0,0,1-.15.37l-.3.32a.37.37,0,0,0-.11.33.52.52,0,0,0,.13.3,2.32,2.32,0,0,0,.38.35l.75.56a7.14,7.14,0,0,1-.5.68,1.8,1.8,0,0,1-.47.41.53.53,0,0,1-.5.06,3.15,3.15,0,0,1-.67-.44l-.58-.47a.29.29,0,0,0-.32,0,.41.41,0,0,0-.21.27,1.76,1.76,0,0,0,0,.46C70.75,106.71,70.94,106.85,71.3,106.89Zm-.19-5q-.28,0-.33.18a1.16,1.16,0,0,0-.06.34,1.48,1.48,0,0,0,.06.36.3.3,0,0,0,.35.22c.19,0,.3-.09.32-.25s0-.28,0-.39a1.13,1.13,0,0,0,0-.3C71.4,102,71.29,101.9,71.11,101.9Zm5.25,4.52a.31.31,0,0,0,0,.25c0,.11.11.18.29.22a2.88,2.88,0,0,0,.48,0h.58a2,2,0,0,0,.35,0,1,1,0,0,0,.26-.14c.1-.06.11-.14,0-.24l-.25-.29a3.31,3.31,0,0,0-.34-.3.82.82,0,0,0-.44-.19.55.55,0,0,0-.54.23l-.2.24Zm.61-5.3c-.23,0-.37.06-.42.17a.37.37,0,0,0-.06.26.53.53,0,0,0,.21.39.59.59,0,0,0,.31.1.42.42,0,0,0,.29-.14.71.71,0,0,0,.15-.33.43.43,0,0,0,0-.32C77.35,101.17,77.21,101.12,77,101.12Z"/><path class="cls-8" d="M97.44,103l.59,0v3.47a1.14,1.14,0,0,1-.75.05,3.46,3.46,0,0,1-.7-.26.35.35,0,0,0-.4,0,.59.59,0,0,0-.15.52v.74c0,.35,0,.76,0,1.22s0,.9,0,1.34,0,.82,0,1.14a3.55,3.55,0,0,1,0,.57,1.51,1.51,0,0,1-.31.64,1.37,1.37,0,0,1-.48.27,2.35,2.35,0,0,1-.73.07,2.39,2.39,0,0,1-.79-.12,3.12,3.12,0,0,1-.84-.45,1.16,1.16,0,0,0,.32-.61.44.44,0,0,0-.12-.28.51.51,0,0,0-.42-.19c-.33,0-.7-.06-1.12-.07H90.2a8.91,8.91,0,0,0-1.12.08,1.32,1.32,0,0,0-.25,0,1,1,0,0,0-.32.18.36.36,0,0,0-.15.31v.35a1,1,0,0,1,0,.26c0,.1-.1.18-.28.25a3.76,3.76,0,0,1-.62.15q-.36.06-.72.09a5.71,5.71,0,0,1-.59,0,1.16,1.16,0,0,1-.56-.15c-.14-.1-.21-.18-.21-.26l0-5.43a.45.45,0,0,0-.17-.38.52.52,0,0,0-.51,0,2.53,2.53,0,0,1-.57.12,2.22,2.22,0,0,1-.74-.14V103H84a.75.75,0,0,0,.55-.25.87.87,0,0,0,.24-.63l0-3.93h12l0,4a.64.64,0,0,0,.19.47A1,1,0,0,0,97.44,103Zm-10.3,2.17h7.23a1.74,1.74,0,0,0,.4-.07c.18,0,.27-.13.24-.24a.33.33,0,0,0-.22-.23,2,2,0,0,0-.6-.07h-6.4l-.79,0-.32,0a.41.41,0,0,0-.24.16c-.07.08,0,.16.1.23A1.45,1.45,0,0,0,87.14,105.14Zm.54-4.76a3.47,3.47,0,0,0-.05.54c0,.28,0,.56,0,.84v.61a.69.69,0,0,0,.17.46.61.61,0,0,0,.44.19.94.94,0,0,0,.5-.15.5.5,0,0,0,.23-.46v-1.83h4.12a1.7,1.7,0,0,0,.54-.09c.18-.06.26-.16.25-.29a.43.43,0,0,0-.32-.37,2.07,2.07,0,0,0-.48-.14,10.42,10.42,0,0,0-1.31-.1c-.48,0-1,0-1.4,0s-.85,0-1.18.06a4.25,4.25,0,0,0-.65.09,4.15,4.15,0,0,0-.53.2A.57.57,0,0,0,87.68,100.38Zm4.92,7.12a1.92,1.92,0,0,0,.47-.11c.11,0,.15-.12.13-.21A.32.32,0,0,0,93,107l-.28-.06a6.39,6.39,0,0,0-1.07-.1c-.42,0-.83,0-1.25,0s-.78,0-1.08.06a1.69,1.69,0,0,0-.56.09.71.71,0,0,0-.22.07.17.17,0,0,0-.08.16c0,.15.22.24.66.28l.74,0H91.9Zm0,2.07a1.35,1.35,0,0,0,.47-.09c.11,0,.15-.12.13-.2a.29.29,0,0,0-.23-.19l-.28-.08a7.66,7.66,0,0,0-1.07-.1c-.42,0-.83,0-1.25,0s-.78,0-1.08.07a3.22,3.22,0,0,0-.56.07,1,1,0,0,0-.22.09.16.16,0,0,0-.08.14c0,.07,0,.13.17.18a1.16,1.16,0,0,0,.49.1l.74,0H91.9Zm.81-6.55a1.21,1.21,0,0,0,.38-.16.33.33,0,0,0,.16-.27.3.3,0,0,0-.23-.32,1.72,1.72,0,0,0-.51-.11H92.6l-.63,0a1.87,1.87,0,0,0-.41.1.36.36,0,0,0-.25.26c0,.27.14.42.56.47l.52,0H93Z"/><path class="cls-8" d="M113.59,109.88a2.45,2.45,0,0,0,1,0,4.35,4.35,0,0,0,1-.44,6.58,6.58,0,0,1,.07,1.26,3.18,3.18,0,0,1-.19.84,1.17,1.17,0,0,1-.56.62,3.55,3.55,0,0,1-1.64.44,4.32,4.32,0,0,1-1.49-.19,1.94,1.94,0,0,1-1-.9,4.17,4.17,0,0,1-.34-1.66v-.42c0-.23,0-.44,0-.61a.36.36,0,0,0-.25-.37,1.22,1.22,0,0,0-.4-.09,1.08,1.08,0,0,0-.38.09c-.15.06-.23.21-.23.45v2a1.74,1.74,0,0,1-.19.79,2.19,2.19,0,0,1-.49.6,2.51,2.51,0,0,1-.77.43,3.08,3.08,0,0,1-.89.19v-4a.5.5,0,0,0-.26-.49l-.4-.17a2.63,2.63,0,0,0-.79-.16,1,1,0,0,0-.65.13l-.82.67a2.28,2.28,0,0,0-.52.53,1.82,1.82,0,0,0-.21.78,7.71,7.71,0,0,0,0,1.08c0,.38,0,.7.06,1s0,.41,0,.43-.11.12-.34.15a5,5,0,0,1-.8,0,4.1,4.1,0,0,1-.83-.14.67.67,0,0,1-.48-.32,1.75,1.75,0,0,1-.07-.45c0-.21,0-.43,0-.64a4.32,4.32,0,0,0,0-.46V98.24h5.1c0,.14,0,.28.05.43a2.88,2.88,0,0,1,0,.41,1.69,1.69,0,0,0,.11.41c0,.17.22.25.49.25h2.07c.17,0,.27,0,.31-.13a.54.54,0,0,0,0-.29,2.44,2.44,0,0,1,0-.29,1.56,1.56,0,0,1,.37-.91,1.46,1.46,0,0,1,1.15-.39,1.7,1.7,0,0,1,1.2.39,1.29,1.29,0,0,1,.41.94,2.43,2.43,0,0,0,0,.42c0,.17.15.26.37.26h3.11v4.17h-.38a.94.94,0,0,0-.44.11.82.82,0,0,0-.4.48.86.86,0,0,1-.58.58l-.55,0c-.3,0-.68,0-1.13,0l-1.42,0h-1.43l-1.17,0-.62,0a1,1,0,0,1-.63-.41,1.94,1.94,0,0,0-.3-.35.92.92,0,0,0-.66-.21,1.32,1.32,0,0,1-.62-.15v-1.37c0-.12,0-.19-.1-.2a.3.3,0,0,0-.2,0,.33.33,0,0,0-.14.09,2.45,2.45,0,0,0-.28.52.51.51,0,0,0,.09.49,4.37,4.37,0,0,1,.59.88,4,4,0,0,1,.3.83,1,1,0,0,0,.22.4.65.65,0,0,0,.53.23h9.29a2.44,2.44,0,0,1,.28.48,2,2,0,0,1,.15.67,1.29,1.29,0,0,1-.09.67,1,1,0,0,1-.53.5,2.53,2.53,0,0,1-.41,0l-.75,0-.61,0a.53.53,0,0,0-.43.18.71.71,0,0,0-.16.31,1,1,0,0,0,.09.68A.75.75,0,0,0,113.59,109.88Zm-10.32-9.67a.45.45,0,0,0-.26.25,1.47,1.47,0,0,0-.13.5,1.79,1.79,0,0,0,0,.52.51.51,0,0,0,.16.32.27.27,0,0,0,.35,0,1.11,1.11,0,0,0,.29-.47,2.28,2.28,0,0,0,.13-.69.4.4,0,0,0-.1-.29A.47.47,0,0,0,103.27,100.21Zm.63,5.8a1.69,1.69,0,0,0-.13-.78q-.17-.41-.48-.42c-.14,0-.24.1-.31.31a2.2,2.2,0,0,0-.08.71,2.65,2.65,0,0,0,.09.73c.06.21.15.32.26.33a.44.44,0,0,0,.42-.18,1.38,1.38,0,0,0,.18-.41A2.14,2.14,0,0,0,103.9,106Zm4.37-4.05a.81.81,0,0,0-.34.16.5.5,0,0,0-.22.3.31.31,0,0,0,0,.32.67.67,0,0,0,.44.19l.58,0h1.09l1.24,0,1.09,0h.61c.23,0,.36-.06.39-.19a.42.42,0,0,0,0-.3.67.67,0,0,0-.5-.45l-.58,0-1,0h-2.19A4.85,4.85,0,0,0,108.27,102Z"/></g></g></g></svg>